<svg width="300" height="218" viewBox="0 0 300 218" fill="none" xmlns="http://www.w3.org/2000/svg">
<g filter="url(#filter0_d_4216_15975)">
<rect width="240" height="136" transform="translate(30 20)" fill="#E3F1FB"/>
<path d="M51.4 47.004H52.366L51.96 50.014H50.658L51.4 47.004ZM53.64 47.004H54.606L54.2 50.014H52.898L53.64 47.004ZM56.2603 47.004H57.5483V57H56.2603V47.004ZM59.5923 49.762H60.7963V50.868C61.151 50.392 61.543 50.0513 61.9723 49.846C62.4016 49.6407 62.8543 49.538 63.3303 49.538C64.1516 49.538 64.7583 49.762 65.1503 50.21C65.5516 50.658 65.7523 51.316 65.7523 52.184V57H64.5343V52.422C64.5343 51.75 64.413 51.2787 64.1703 51.008C63.9276 50.728 63.5543 50.588 63.0503 50.588C62.7796 50.588 62.509 50.6347 62.2383 50.728C61.977 50.8213 61.739 50.9707 61.5243 51.176C61.291 51.3813 61.1136 51.6007 60.9923 51.834C60.871 52.058 60.8103 52.352 60.8103 52.716V57H59.5923V49.762ZM66.6273 49.762H68.0413L70.1973 55.642L72.3953 49.762H73.7393L70.8273 57H69.5253L66.6273 49.762ZM80.8894 54.97C80.768 55.67 80.4554 56.2207 79.9514 56.622C79.4567 57.0233 78.7427 57.224 77.8094 57.224C76.708 57.224 75.8634 56.8927 75.2754 56.23C74.6874 55.558 74.3934 54.6247 74.3934 53.43C74.3934 52.8047 74.4774 52.2493 74.6454 51.764C74.8134 51.2787 75.0467 50.8727 75.3454 50.546C75.6534 50.2193 76.0174 49.972 76.4374 49.804C76.8574 49.6267 77.3147 49.538 77.8094 49.538C78.3694 49.538 78.85 49.6267 79.2514 49.804C79.6527 49.9813 79.9794 50.2287 80.2314 50.546C80.4927 50.854 80.684 51.2227 80.8054 51.652C80.936 52.0813 81.0014 52.5527 81.0014 53.066V53.682H75.6254C75.6254 54.046 75.672 54.3867 75.7654 54.704C75.868 55.012 76.008 55.2827 76.1854 55.516C76.372 55.74 76.6007 55.9173 76.8714 56.048C77.142 56.1787 77.4547 56.244 77.8094 56.244C78.416 56.244 78.8594 56.132 79.1394 55.908C79.4194 55.6747 79.6107 55.362 79.7134 54.97H80.8894ZM79.7834 52.772C79.7834 52.4267 79.746 52.114 79.6714 51.834C79.5967 51.554 79.48 51.316 79.3214 51.12C79.1627 50.9147 78.9574 50.756 78.7054 50.644C78.4534 50.532 78.15 50.476 77.7954 50.476C77.1514 50.476 76.6474 50.672 76.2834 51.064C75.9287 51.456 75.7187 52.0253 75.6534 52.772H79.7834ZM83.3997 54.886C83.4837 55.39 83.6937 55.7447 84.0297 55.95C84.3751 56.146 84.8417 56.244 85.4297 56.244C86.0457 56.244 86.4797 56.1413 86.7317 55.936C86.9931 55.7213 87.1237 55.4413 87.1237 55.096C87.1237 54.956 87.1051 54.8253 87.0677 54.704C87.0397 54.5733 86.9791 54.4613 86.8857 54.368C86.7924 54.2653 86.6617 54.1767 86.4937 54.102C86.3257 54.0273 86.1064 53.9667 85.8357 53.92L84.9117 53.78C84.5011 53.7147 84.1417 53.6307 83.8337 53.528C83.5257 53.4253 83.2644 53.2947 83.0497 53.136C82.8351 52.968 82.6717 52.7673 82.5597 52.534C82.4571 52.2913 82.4057 52.002 82.4057 51.666C82.4057 51.33 82.4757 51.0313 82.6157 50.77C82.7651 50.5087 82.9657 50.2893 83.2177 50.112C83.4791 49.9253 83.7824 49.7853 84.1277 49.692C84.4824 49.5893 84.8651 49.538 85.2757 49.538C85.7984 49.538 86.2324 49.5893 86.5777 49.692C86.9324 49.7947 87.2217 49.9347 87.4457 50.112C87.6697 50.2893 87.8424 50.4993 87.9637 50.742C88.0851 50.9847 88.1784 51.2413 88.2437 51.512L87.1377 51.694C87.0724 51.498 86.9977 51.3253 86.9137 51.176C86.8297 51.0267 86.7177 50.9053 86.5777 50.812C86.4377 50.7093 86.2651 50.6347 86.0597 50.588C85.8637 50.532 85.6164 50.504 85.3177 50.504C84.9817 50.504 84.7017 50.5367 84.4777 50.602C84.2537 50.658 84.0717 50.7373 83.9317 50.84C83.8011 50.9427 83.7077 51.0593 83.6517 51.19C83.5957 51.3113 83.5677 51.442 83.5677 51.582C83.5677 51.7313 83.5864 51.8667 83.6237 51.988C83.6611 52.1 83.7311 52.2027 83.8337 52.296C83.9364 52.38 84.0764 52.4547 84.2537 52.52C84.4311 52.5853 84.6597 52.6413 84.9397 52.688L85.9897 52.856C86.8391 52.996 87.4457 53.2387 87.8097 53.584C88.1831 53.9293 88.3697 54.4333 88.3697 55.096C88.3697 55.404 88.3091 55.6887 88.1877 55.95C88.0664 56.202 87.8844 56.426 87.6417 56.622C87.3991 56.8087 87.0957 56.9533 86.7317 57.056C86.3677 57.168 85.9431 57.224 85.4577 57.224C85.0191 57.224 84.6084 57.182 84.2257 57.098C83.8524 57.014 83.5211 56.8833 83.2317 56.706C82.9424 56.5193 82.7091 56.2767 82.5317 55.978C82.3544 55.6793 82.2517 55.3153 82.2237 54.886H83.3997ZM90.3502 50.728H89.2302V49.762H90.3502V47.788H91.5682V49.762H93.4862V50.728H91.5682V54.97C91.5682 55.3247 91.6475 55.6093 91.8062 55.824C91.9649 56.0387 92.2075 56.146 92.5342 56.146C92.7395 56.146 92.9169 56.132 93.0662 56.104C93.2249 56.076 93.3695 56.0387 93.5002 55.992L93.7102 56.93C93.5235 56.9953 93.3182 57.0467 93.0942 57.084C92.8795 57.1307 92.6229 57.154 92.3242 57.154C91.9135 57.154 91.5822 57.0933 91.3302 56.972C91.0782 56.8507 90.8775 56.678 90.7282 56.454C90.5789 56.23 90.4762 55.964 90.4202 55.656C90.3735 55.348 90.3502 55.012 90.3502 54.648V50.728ZM97.7856 57.224C97.2349 57.224 96.7449 57.1353 96.3156 56.958C95.8863 56.7807 95.5223 56.5287 95.2236 56.202C94.9249 55.8753 94.6963 55.474 94.5376 54.998C94.3789 54.522 94.2996 53.99 94.2996 53.402C94.2996 52.814 94.3836 52.282 94.5516 51.806C94.7196 51.33 94.9576 50.924 95.2656 50.588C95.5736 50.252 95.9423 49.9953 96.3716 49.818C96.8103 49.6313 97.2956 49.538 97.8276 49.538C98.3689 49.538 98.8543 49.6267 99.2836 49.804C99.7129 49.9813 100.077 50.238 100.376 50.574C100.684 50.9007 100.917 51.2973 101.076 51.764C101.234 52.2307 101.314 52.758 101.314 53.346C101.314 53.9433 101.23 54.48 101.062 54.956C100.903 55.432 100.67 55.838 100.362 56.174C100.063 56.51 99.6943 56.7713 99.2556 56.958C98.8169 57.1353 98.3269 57.224 97.7856 57.224ZM97.7996 56.216C98.1916 56.216 98.5276 56.146 98.8076 56.006C99.0876 55.866 99.3163 55.67 99.4936 55.418C99.6803 55.166 99.8156 54.8673 99.8996 54.522C99.9836 54.1673 100.026 53.78 100.026 53.36C100.026 52.9493 99.9836 52.5713 99.8996 52.226C99.8156 51.8807 99.6803 51.5867 99.4936 51.344C99.3163 51.092 99.0876 50.896 98.8076 50.756C98.5276 50.616 98.1916 50.546 97.7996 50.546C97.4076 50.546 97.0716 50.616 96.7916 50.756C96.5209 50.896 96.2923 51.092 96.1056 51.344C95.9283 51.5867 95.7976 51.8807 95.7136 52.226C95.6296 52.5713 95.5876 52.954 95.5876 53.374C95.5876 53.794 95.6296 54.1767 95.7136 54.522C95.7976 54.8673 95.9283 55.166 96.1056 55.418C96.2829 55.67 96.5116 55.866 96.7916 56.006C97.0716 56.146 97.4076 56.216 97.7996 56.216ZM102.946 49.762H104.15V50.882C104.42 50.4807 104.738 50.1727 105.102 49.958C105.466 49.7433 105.853 49.636 106.264 49.636C106.516 49.636 106.73 49.6547 106.908 49.692L106.754 50.826C106.66 50.8073 106.567 50.7933 106.474 50.784C106.38 50.7653 106.278 50.756 106.166 50.756C105.942 50.756 105.713 50.798 105.48 50.882C105.246 50.9567 105.027 51.0873 104.822 51.274C104.616 51.4513 104.453 51.6567 104.332 51.89C104.22 52.1233 104.164 52.394 104.164 52.702V57H102.946V49.762ZM108.747 54.886C108.831 55.39 109.041 55.7447 109.377 55.95C109.723 56.146 110.189 56.244 110.777 56.244C111.393 56.244 111.827 56.1413 112.079 55.936C112.341 55.7213 112.471 55.4413 112.471 55.096C112.471 54.956 112.453 54.8253 112.415 54.704C112.387 54.5733 112.327 54.4613 112.233 54.368C112.14 54.2653 112.009 54.1767 111.841 54.102C111.673 54.0273 111.454 53.9667 111.183 53.92L110.259 53.78C109.849 53.7147 109.489 53.6307 109.181 53.528C108.873 53.4253 108.612 53.2947 108.397 53.136C108.183 52.968 108.019 52.7673 107.907 52.534C107.805 52.2913 107.753 52.002 107.753 51.666C107.753 51.33 107.823 51.0313 107.963 50.77C108.113 50.5087 108.313 50.2893 108.565 50.112C108.827 49.9253 109.13 49.7853 109.475 49.692C109.83 49.5893 110.213 49.538 110.623 49.538C111.146 49.538 111.58 49.5893 111.925 49.692C112.28 49.7947 112.569 49.9347 112.793 50.112C113.017 50.2893 113.19 50.4993 113.311 50.742C113.433 50.9847 113.526 51.2413 113.591 51.512L112.485 51.694C112.42 51.498 112.345 51.3253 112.261 51.176C112.177 51.0267 112.065 50.9053 111.925 50.812C111.785 50.7093 111.613 50.6347 111.407 50.588C111.211 50.532 110.964 50.504 110.665 50.504C110.329 50.504 110.049 50.5367 109.825 50.602C109.601 50.658 109.419 50.7373 109.279 50.84C109.149 50.9427 109.055 51.0593 108.999 51.19C108.943 51.3113 108.915 51.442 108.915 51.582C108.915 51.7313 108.934 51.8667 108.971 51.988C109.009 52.1 109.079 52.2027 109.181 52.296C109.284 52.38 109.424 52.4547 109.601 52.52C109.779 52.5853 110.007 52.6413 110.287 52.688L111.337 52.856C112.187 52.996 112.793 53.2387 113.157 53.584C113.531 53.9293 113.717 54.4333 113.717 55.096C113.717 55.404 113.657 55.6887 113.535 55.95C113.414 56.202 113.232 56.426 112.989 56.622C112.747 56.8087 112.443 56.9533 112.079 57.056C111.715 57.168 111.291 57.224 110.805 57.224C110.367 57.224 109.956 57.182 109.573 57.098C109.2 57.014 108.869 56.8833 108.579 56.706C108.29 56.5193 108.057 56.2767 107.879 55.978C107.702 55.6793 107.599 55.3153 107.571 54.886H108.747ZM123.659 55.964C123.36 56.3653 123.015 56.678 122.623 56.902C122.231 57.1167 121.769 57.224 121.237 57.224C120.705 57.224 120.243 57.126 119.851 56.93C119.468 56.734 119.151 56.468 118.899 56.132C118.647 55.7867 118.46 55.3807 118.339 54.914C118.218 54.4473 118.157 53.948 118.157 53.416C118.157 52.8187 118.232 52.282 118.381 51.806C118.53 51.3207 118.74 50.91 119.011 50.574C119.291 50.238 119.627 49.9813 120.019 49.804C120.42 49.6267 120.873 49.538 121.377 49.538C121.76 49.538 122.147 49.6173 122.539 49.776C122.931 49.9253 123.295 50.2147 123.631 50.644V47.004H124.849V57H123.659V55.964ZM123.673 53.164C123.673 52.5853 123.608 52.1373 123.477 51.82C123.356 51.4933 123.15 51.218 122.861 50.994C122.656 50.826 122.446 50.7093 122.231 50.644C122.026 50.5787 121.797 50.546 121.545 50.546C121.246 50.546 120.966 50.5973 120.705 50.7C120.453 50.8027 120.229 50.9707 120.033 51.204C119.846 51.428 119.697 51.722 119.585 52.086C119.482 52.4407 119.431 52.8747 119.431 53.388C119.431 53.92 119.487 54.368 119.599 54.732C119.72 55.096 119.874 55.3853 120.061 55.6C120.257 55.8147 120.472 55.9687 120.705 56.062C120.948 56.1553 121.195 56.202 121.447 56.202C121.718 56.202 121.96 56.1693 122.175 56.104C122.39 56.0387 122.604 55.9267 122.819 55.768C123.099 55.544 123.309 55.264 123.449 54.928C123.598 54.592 123.673 54.1673 123.673 53.654V53.164ZM129.983 57.224C129.432 57.224 128.942 57.1353 128.513 56.958C128.084 56.7807 127.72 56.5287 127.421 56.202C127.122 55.8753 126.894 55.474 126.735 54.998C126.576 54.522 126.497 53.99 126.497 53.402C126.497 52.814 126.581 52.282 126.749 51.806C126.917 51.33 127.155 50.924 127.463 50.588C127.771 50.252 128.14 49.9953 128.569 49.818C129.008 49.6313 129.493 49.538 130.025 49.538C130.566 49.538 131.052 49.6267 131.481 49.804C131.91 49.9813 132.274 50.238 132.573 50.574C132.881 50.9007 133.114 51.2973 133.273 51.764C133.432 52.2307 133.511 52.758 133.511 53.346C133.511 53.9433 133.427 54.48 133.259 54.956C133.1 55.432 132.867 55.838 132.559 56.174C132.26 56.51 131.892 56.7713 131.453 56.958C131.014 57.1353 130.524 57.224 129.983 57.224ZM129.997 56.216C130.389 56.216 130.725 56.146 131.005 56.006C131.285 55.866 131.514 55.67 131.691 55.418C131.878 55.166 132.013 54.8673 132.097 54.522C132.181 54.1673 132.223 53.78 132.223 53.36C132.223 52.9493 132.181 52.5713 132.097 52.226C132.013 51.8807 131.878 51.5867 131.691 51.344C131.514 51.092 131.285 50.896 131.005 50.756C130.725 50.616 130.389 50.546 129.997 50.546C129.605 50.546 129.269 50.616 128.989 50.756C128.718 50.896 128.49 51.092 128.303 51.344C128.126 51.5867 127.995 51.8807 127.911 52.226C127.827 52.5713 127.785 52.954 127.785 53.374C127.785 53.794 127.827 54.1767 127.911 54.522C127.995 54.8673 128.126 55.166 128.303 55.418C128.48 55.67 128.709 55.866 128.989 56.006C129.269 56.146 129.605 56.216 129.997 56.216ZM135.143 49.762H136.347V50.868C136.702 50.392 137.094 50.0513 137.523 49.846C137.952 49.6407 138.405 49.538 138.881 49.538C139.702 49.538 140.309 49.762 140.701 50.21C141.102 50.658 141.303 51.316 141.303 52.184V57H140.085V52.422C140.085 51.75 139.964 51.2787 139.721 51.008C139.478 50.728 139.105 50.588 138.601 50.588C138.33 50.588 138.06 50.6347 137.789 50.728C137.528 50.8213 137.29 50.9707 137.075 51.176C136.842 51.3813 136.664 51.6007 136.543 51.834C136.422 52.058 136.361 52.352 136.361 52.716V57H135.143V49.762ZM143.547 50.728H142.427V49.762H143.547V47.788H144.765V49.762H146.683V50.728H144.765V54.97C144.765 55.3247 144.845 55.6093 145.003 55.824C145.162 56.0387 145.405 56.146 145.731 56.146C145.937 56.146 146.114 56.132 146.263 56.104C146.422 56.076 146.567 56.0387 146.697 55.992L146.907 56.93C146.721 56.9953 146.515 57.0467 146.291 57.084C146.077 57.1307 145.82 57.154 145.521 57.154C145.111 57.154 144.779 57.0933 144.527 56.972C144.275 56.8507 144.075 56.678 143.925 56.454C143.776 56.23 143.673 55.964 143.617 55.656C143.571 55.348 143.547 55.012 143.547 54.648V50.728ZM151.098 47.004H152.316V50.84C152.671 50.3827 153.058 50.0513 153.478 49.846C153.907 49.6407 154.36 49.538 154.836 49.538C155.657 49.538 156.264 49.762 156.656 50.21C157.057 50.658 157.258 51.316 157.258 52.184V57H156.026V52.422C156.026 51.75 155.905 51.2787 155.662 51.008C155.429 50.728 155.06 50.588 154.556 50.588C154.285 50.588 154.015 50.6347 153.744 50.728C153.483 50.8213 153.245 50.9707 153.03 51.176C152.797 51.3813 152.619 51.6007 152.498 51.834C152.377 52.058 152.316 52.352 152.316 52.716V57H151.098V47.004ZM163.591 56.006C163.329 56.3233 162.998 56.5987 162.597 56.832C162.195 57.056 161.696 57.168 161.099 57.168C160.735 57.168 160.399 57.1213 160.091 57.028C159.792 56.944 159.531 56.8133 159.307 56.636C159.092 56.4493 158.924 56.2207 158.803 55.95C158.681 55.6793 158.621 55.362 158.621 54.998C158.621 54.5033 158.723 54.102 158.929 53.794C159.143 53.486 159.423 53.2433 159.769 53.066C160.123 52.8887 160.52 52.7627 160.959 52.688C161.397 52.6133 161.85 52.5667 162.317 52.548L163.563 52.506V52.226C163.563 51.61 163.432 51.1667 163.171 50.896C162.909 50.6253 162.485 50.49 161.897 50.49C161.318 50.49 160.893 50.588 160.623 50.784C160.352 50.9707 160.175 51.232 160.091 51.568L158.985 51.442C159.115 50.7793 159.428 50.2987 159.923 50C160.417 49.692 161.089 49.538 161.939 49.538C162.461 49.538 162.9 49.6033 163.255 49.734C163.619 49.8553 163.913 50.0327 164.137 50.266C164.361 50.4993 164.519 50.7887 164.613 51.134C164.715 51.4793 164.767 51.8667 164.767 52.296V57H163.591V56.006ZM163.563 53.374L162.401 53.416C161.906 53.4347 161.495 53.4813 161.169 53.556C160.842 53.6307 160.581 53.7333 160.385 53.864C160.198 53.9853 160.063 54.1393 159.979 54.326C159.904 54.5127 159.867 54.7273 159.867 54.97C159.867 55.334 159.974 55.628 160.189 55.852C160.413 56.0667 160.777 56.174 161.281 56.174C161.999 56.174 162.559 55.9967 162.961 55.642C163.362 55.2873 163.563 54.802 163.563 54.186V53.374ZM165.776 49.762H167.19L169.346 55.642L171.544 49.762H172.888L169.976 57H168.674L165.776 49.762ZM180.038 54.97C179.916 55.67 179.604 56.2207 179.1 56.622C178.605 57.0233 177.891 57.224 176.958 57.224C175.856 57.224 175.012 56.8927 174.424 56.23C173.836 55.558 173.542 54.6247 173.542 53.43C173.542 52.8047 173.626 52.2493 173.794 51.764C173.962 51.2787 174.195 50.8727 174.494 50.546C174.802 50.2193 175.166 49.972 175.586 49.804C176.006 49.6267 176.463 49.538 176.958 49.538C177.518 49.538 177.998 49.6267 178.4 49.804C178.801 49.9813 179.128 50.2287 179.38 50.546C179.641 50.854 179.832 51.2227 179.954 51.652C180.084 52.0813 180.15 52.5527 180.15 53.066V53.682H174.774C174.774 54.046 174.82 54.3867 174.914 54.704C175.016 55.012 175.156 55.2827 175.334 55.516C175.52 55.74 175.749 55.9173 176.02 56.048C176.29 56.1787 176.603 56.244 176.958 56.244C177.564 56.244 178.008 56.132 178.288 55.908C178.568 55.6747 178.759 55.362 178.862 54.97H180.038ZM178.932 52.772C178.932 52.4267 178.894 52.114 178.82 51.834C178.745 51.554 178.628 51.316 178.47 51.12C178.311 50.9147 178.106 50.756 177.854 50.644C177.602 50.532 177.298 50.476 176.944 50.476C176.3 50.476 175.796 50.672 175.432 51.064C175.077 51.456 174.867 52.0253 174.802 52.772H178.932ZM189.389 56.006C189.128 56.3233 188.797 56.5987 188.395 56.832C187.994 57.056 187.495 57.168 186.897 57.168C186.533 57.168 186.197 57.1213 185.889 57.028C185.591 56.944 185.329 56.8133 185.105 56.636C184.891 56.4493 184.723 56.2207 184.601 55.95C184.48 55.6793 184.419 55.362 184.419 54.998C184.419 54.5033 184.522 54.102 184.727 53.794C184.942 53.486 185.222 53.2433 185.567 53.066C185.922 52.8887 186.319 52.7627 186.757 52.688C187.196 52.6133 187.649 52.5667 188.115 52.548L189.361 52.506V52.226C189.361 51.61 189.231 51.1667 188.969 50.896C188.708 50.6253 188.283 50.49 187.695 50.49C187.117 50.49 186.692 50.588 186.421 50.784C186.151 50.9707 185.973 51.232 185.889 51.568L184.783 51.442C184.914 50.7793 185.227 50.2987 185.721 50C186.216 49.692 186.888 49.538 187.737 49.538C188.26 49.538 188.699 49.6033 189.053 49.734C189.417 49.8553 189.711 50.0327 189.935 50.266C190.159 50.4993 190.318 50.7887 190.411 51.134C190.514 51.4793 190.565 51.8667 190.565 52.296V57H189.389V56.006ZM189.361 53.374L188.199 53.416C187.705 53.4347 187.294 53.4813 186.967 53.556C186.641 53.6307 186.379 53.7333 186.183 53.864C185.997 53.9853 185.861 54.1393 185.777 54.326C185.703 54.5127 185.665 54.7273 185.665 54.97C185.665 55.334 185.773 55.628 185.987 55.852C186.211 56.0667 186.575 56.174 187.079 56.174C187.798 56.174 188.358 55.9967 188.759 55.642C189.161 55.2873 189.361 54.802 189.361 54.186V53.374ZM194.706 49.762H196.036L197.492 55.53L199.158 49.804H200.39L202.014 55.53L203.456 49.762H204.744L202.63 57H201.342L199.718 51.232L198.08 57H196.806L194.706 49.762ZM210.307 56.006C210.046 56.3233 209.715 56.5987 209.313 56.832C208.912 57.056 208.413 57.168 207.815 57.168C207.451 57.168 207.115 57.1213 206.807 57.028C206.509 56.944 206.247 56.8133 206.023 56.636C205.809 56.4493 205.641 56.2207 205.519 55.95C205.398 55.6793 205.337 55.362 205.337 54.998C205.337 54.5033 205.44 54.102 205.645 53.794C205.86 53.486 206.14 53.2433 206.485 53.066C206.84 52.8887 207.237 52.7627 207.675 52.688C208.114 52.6133 208.567 52.5667 209.033 52.548L210.279 52.506V52.226C210.279 51.61 210.149 51.1667 209.887 50.896C209.626 50.6253 209.201 50.49 208.613 50.49C208.035 50.49 207.61 50.588 207.339 50.784C207.069 50.9707 206.891 51.232 206.807 51.568L205.701 51.442C205.832 50.7793 206.145 50.2987 206.639 50C207.134 49.692 207.806 49.538 208.655 49.538C209.178 49.538 209.617 49.6033 209.971 49.734C210.335 49.8553 210.629 50.0327 210.853 50.266C211.077 50.4993 211.236 50.7887 211.329 51.134C211.432 51.4793 211.483 51.8667 211.483 52.296V57H210.307V56.006ZM210.279 53.374L209.117 53.416C208.623 53.4347 208.212 53.4813 207.885 53.556C207.559 53.6307 207.297 53.7333 207.101 53.864C206.915 53.9853 206.779 54.1393 206.695 54.326C206.621 54.5127 206.583 54.7273 206.583 54.97C206.583 55.334 206.691 55.628 206.905 55.852C207.129 56.0667 207.493 56.174 207.997 56.174C208.716 56.174 209.276 55.9967 209.677 55.642C210.079 55.2873 210.279 54.802 210.279 54.186V53.374ZM213.305 58.54C213.566 58.6333 213.827 58.68 214.089 58.68C214.387 58.68 214.616 58.6007 214.775 58.442C214.943 58.2927 215.106 58.008 215.265 57.588L215.559 56.818L212.493 49.762H213.907L216.189 55.446L218.275 49.762H219.619L216.455 57.686C216.324 58.0127 216.193 58.2973 216.063 58.54C215.932 58.792 215.787 59.0067 215.629 59.184C215.47 59.3613 215.279 59.492 215.055 59.576C214.84 59.6693 214.574 59.716 214.257 59.716C214.033 59.716 213.832 59.702 213.655 59.674C213.477 59.646 213.281 59.5947 213.067 59.52L213.305 58.54ZM224.02 50.728H222.9V49.762H224.02V47.788H225.238V49.762H227.156V50.728H225.238V54.97C225.238 55.3247 225.317 55.6093 225.476 55.824C225.635 56.0387 225.877 56.146 226.204 56.146C226.409 56.146 226.587 56.132 226.736 56.104C226.895 56.076 227.039 56.0387 227.17 55.992L227.38 56.93C227.193 56.9953 226.988 57.0467 226.764 57.084C226.549 57.1307 226.293 57.154 225.994 57.154C225.583 57.154 225.252 57.0933 225 56.972C224.748 56.8507 224.547 56.678 224.398 56.454C224.249 56.23 224.146 55.964 224.09 55.656C224.043 55.348 224.02 55.012 224.02 54.648V50.728ZM231.456 57.224C230.905 57.224 230.415 57.1353 229.986 56.958C229.556 56.7807 229.192 56.5287 228.894 56.202C228.595 55.8753 228.366 55.474 228.208 54.998C228.049 54.522 227.97 53.99 227.97 53.402C227.97 52.814 228.054 52.282 228.222 51.806C228.39 51.33 228.628 50.924 228.936 50.588C229.244 50.252 229.612 49.9953 230.042 49.818C230.48 49.6313 230.966 49.538 231.498 49.538C232.039 49.538 232.524 49.6267 232.954 49.804C233.383 49.9813 233.747 50.238 234.046 50.574C234.354 50.9007 234.587 51.2973 234.746 51.764C234.904 52.2307 234.984 52.758 234.984 53.346C234.984 53.9433 234.9 54.48 234.732 54.956C234.573 55.432 234.34 55.838 234.032 56.174C233.733 56.51 233.364 56.7713 232.926 56.958C232.487 57.1353 231.997 57.224 231.456 57.224ZM231.47 56.216C231.862 56.216 232.198 56.146 232.478 56.006C232.758 55.866 232.986 55.67 233.164 55.418C233.35 55.166 233.486 54.8673 233.57 54.522C233.654 54.1673 233.696 53.78 233.696 53.36C233.696 52.9493 233.654 52.5713 233.57 52.226C233.486 51.8807 233.35 51.5867 233.164 51.344C232.986 51.092 232.758 50.896 232.478 50.756C232.198 50.616 231.862 50.546 231.47 50.546C231.078 50.546 230.742 50.616 230.462 50.756C230.191 50.896 229.962 51.092 229.776 51.344C229.598 51.5867 229.468 51.8807 229.384 52.226C229.3 52.5713 229.258 52.954 229.258 53.374C229.258 53.794 229.3 54.1767 229.384 54.522C229.468 54.8673 229.598 55.166 229.776 55.418C229.953 55.67 230.182 55.866 230.462 56.006C230.742 56.146 231.078 56.216 231.47 56.216ZM50.966 71.004H52.184V81H50.966V71.004ZM60.3405 78.97C60.2192 79.67 59.9065 80.2207 59.4025 80.622C58.9079 81.0233 58.1939 81.224 57.2605 81.224C56.1592 81.224 55.3145 80.8927 54.7265 80.23C54.1385 79.558 53.8445 78.6247 53.8445 77.43C53.8445 76.8047 53.9285 76.2493 54.0965 75.764C54.2645 75.2787 54.4979 74.8727 54.7965 74.546C55.1045 74.2193 55.4685 73.972 55.8885 73.804C56.3085 73.6267 56.7659 73.538 57.2605 73.538C57.8205 73.538 58.3012 73.6267 58.7025 73.804C59.1039 73.9813 59.4305 74.2287 59.6825 74.546C59.9439 74.854 60.1352 75.2227 60.2565 75.652C60.3872 76.0813 60.4525 76.5527 60.4525 77.066V77.682H55.0765C55.0765 78.046 55.1232 78.3867 55.2165 78.704C55.3192 79.012 55.4592 79.2827 55.6365 79.516C55.8232 79.74 56.0519 79.9173 56.3225 80.048C56.5932 80.1787 56.9059 80.244 57.2605 80.244C57.8672 80.244 58.3105 80.132 58.5905 79.908C58.8705 79.6747 59.0619 79.362 59.1645 78.97H60.3405ZM59.2345 76.772C59.2345 76.4267 59.1972 76.114 59.1225 75.834C59.0479 75.554 58.9312 75.316 58.7725 75.12C58.6139 74.9147 58.4085 74.756 58.1565 74.644C57.9045 74.532 57.6012 74.476 57.2465 74.476C56.6025 74.476 56.0985 74.672 55.7345 75.064C55.3799 75.456 55.1699 76.0253 55.1045 76.772H59.2345ZM66.5749 80.006C66.3136 80.3233 65.9822 80.5987 65.5809 80.832C65.1796 81.056 64.6802 81.168 64.0829 81.168C63.7189 81.168 63.3829 81.1213 63.0749 81.028C62.7762 80.944 62.5149 80.8133 62.2909 80.636C62.0762 80.4493 61.9082 80.2207 61.7869 79.95C61.6656 79.6793 61.6049 79.362 61.6049 78.998C61.6049 78.5033 61.7076 78.102 61.9129 77.794C62.1276 77.486 62.4076 77.2433 62.7529 77.066C63.1076 76.8887 63.5042 76.7627 63.9429 76.688C64.3816 76.6133 64.8342 76.5667 65.3009 76.548L66.5469 76.506V76.226C66.5469 75.61 66.4162 75.1667 66.1549 74.896C65.8936 74.6253 65.4689 74.49 64.8809 74.49C64.3022 74.49 63.8776 74.588 63.6069 74.784C63.3362 74.9707 63.1589 75.232 63.0749 75.568L61.9689 75.442C62.0996 74.7793 62.4122 74.2987 62.9069 74C63.4016 73.692 64.0736 73.538 64.9229 73.538C65.4456 73.538 65.8842 73.6033 66.2389 73.734C66.6029 73.8553 66.8969 74.0327 67.1209 74.266C67.3449 74.4993 67.5036 74.7887 67.5969 75.134C67.6996 75.4793 67.7509 75.8667 67.7509 76.296V81H66.5749V80.006ZM66.5469 77.374L65.3849 77.416C64.8902 77.4347 64.4796 77.4813 64.1529 77.556C63.8262 77.6307 63.5649 77.7333 63.3689 77.864C63.1822 77.9853 63.0469 78.1393 62.9629 78.326C62.8882 78.5127 62.8509 78.7273 62.8509 78.97C62.8509 79.334 62.9582 79.628 63.1729 79.852C63.3969 80.0667 63.7609 80.174 64.2649 80.174C64.9836 80.174 65.5436 79.9967 65.9449 79.642C66.3462 79.2873 66.5469 78.802 66.5469 78.186V77.374ZM69.6001 73.762H70.8041V74.882C71.0748 74.4807 71.3921 74.1727 71.7561 73.958C72.1201 73.7433 72.5074 73.636 72.9181 73.636C73.1701 73.636 73.3848 73.6547 73.5621 73.692L73.4081 74.826C73.3148 74.8073 73.2214 74.7933 73.1281 74.784C73.0348 74.7653 72.9321 74.756 72.8201 74.756C72.5961 74.756 72.3674 74.798 72.1341 74.882C71.9008 74.9567 71.6814 75.0873 71.4761 75.274C71.2708 75.4513 71.1074 75.6567 70.9861 75.89C70.8741 76.1233 70.8181 76.394 70.8181 76.702V81H69.6001V73.762ZM74.7271 73.762H75.9311V74.868C76.2857 74.392 76.6777 74.0513 77.1071 73.846C77.5364 73.6407 77.9891 73.538 78.4651 73.538C79.2864 73.538 79.8931 73.762 80.2851 74.21C80.6864 74.658 80.8871 75.316 80.8871 76.184V81H79.6691V76.422C79.6691 75.75 79.5477 75.2787 79.3051 75.008C79.0624 74.728 78.6891 74.588 78.1851 74.588C77.9144 74.588 77.6437 74.6347 77.3731 74.728C77.1117 74.8213 76.8737 74.9707 76.6591 75.176C76.4257 75.3813 76.2484 75.6007 76.1271 75.834C76.0057 76.058 75.9451 76.352 75.9451 76.716V81H74.7271V73.762ZM90.3366 80.006C90.0753 80.3233 89.744 80.5987 89.3426 80.832C88.9413 81.056 88.442 81.168 87.8446 81.168C87.4806 81.168 87.1446 81.1213 86.8366 81.028C86.538 80.944 86.2766 80.8133 86.0526 80.636C85.838 80.4493 85.67 80.2207 85.5486 79.95C85.4273 79.6793 85.3666 79.362 85.3666 78.998C85.3666 78.5033 85.4693 78.102 85.6746 77.794C85.8893 77.486 86.1693 77.2433 86.5146 77.066C86.8693 76.8887 87.266 76.7627 87.7046 76.688C88.1433 76.6133 88.596 76.5667 89.0626 76.548L90.3086 76.506V76.226C90.3086 75.61 90.178 75.1667 89.9166 74.896C89.6553 74.6253 89.2306 74.49 88.6426 74.49C88.064 74.49 87.6393 74.588 87.3686 74.784C87.098 74.9707 86.9206 75.232 86.8366 75.568L85.7306 75.442C85.8613 74.7793 86.174 74.2987 86.6686 74C87.1633 73.692 87.8353 73.538 88.6846 73.538C89.2073 73.538 89.646 73.6033 90.0006 73.734C90.3646 73.8553 90.6586 74.0327 90.8826 74.266C91.1066 74.4993 91.2653 74.7887 91.3586 75.134C91.4613 75.4793 91.5126 75.8667 91.5126 76.296V81H90.3366V80.006ZM90.3086 77.374L89.1466 77.416C88.652 77.4347 88.2413 77.4813 87.9146 77.556C87.588 77.6307 87.3266 77.7333 87.1306 77.864C86.944 77.9853 86.8086 78.1393 86.7246 78.326C86.65 78.5127 86.6126 78.7273 86.6126 78.97C86.6126 79.334 86.72 79.628 86.9346 79.852C87.1586 80.0667 87.5226 80.174 88.0266 80.174C88.7453 80.174 89.3053 79.9967 89.7066 79.642C90.108 79.2873 90.3086 78.802 90.3086 78.186V77.374ZM93.3618 73.762H94.5658V74.868C94.9205 74.392 95.3125 74.0513 95.7418 73.846C96.1712 73.6407 96.6238 73.538 97.0998 73.538C97.9212 73.538 98.5278 73.762 98.9198 74.21C99.3212 74.658 99.5218 75.316 99.5218 76.184V81H98.3038V76.422C98.3038 75.75 98.1825 75.2787 97.9398 75.008C97.6972 74.728 97.3238 74.588 96.8198 74.588C96.5492 74.588 96.2785 74.6347 96.0078 74.728C95.7465 74.8213 95.5085 74.9707 95.2938 75.176C95.0605 75.3813 94.8832 75.6007 94.7618 75.834C94.6405 76.058 94.5798 76.352 94.5798 76.716V81H93.3618V73.762ZM106.61 79.964C106.312 80.3653 105.966 80.678 105.574 80.902C105.182 81.1167 104.72 81.224 104.188 81.224C103.656 81.224 103.194 81.126 102.802 80.93C102.42 80.734 102.102 80.468 101.85 80.132C101.598 79.7867 101.412 79.3807 101.29 78.914C101.169 78.4473 101.108 77.948 101.108 77.416C101.108 76.8187 101.183 76.282 101.332 75.806C101.482 75.3207 101.692 74.91 101.962 74.574C102.242 74.238 102.578 73.9813 102.97 73.804C103.372 73.6267 103.824 73.538 104.328 73.538C104.711 73.538 105.098 73.6173 105.49 73.776C105.882 73.9253 106.246 74.2147 106.582 74.644V71.004H107.8V81H106.61V79.964ZM106.624 77.164C106.624 76.5853 106.559 76.1373 106.428 75.82C106.307 75.4933 106.102 75.218 105.812 74.994C105.607 74.826 105.397 74.7093 105.182 74.644C104.977 74.5787 104.748 74.546 104.496 74.546C104.198 74.546 103.918 74.5973 103.656 74.7C103.404 74.8027 103.18 74.9707 102.984 75.204C102.798 75.428 102.648 75.722 102.536 76.086C102.434 76.4407 102.382 76.8747 102.382 77.388C102.382 77.92 102.438 78.368 102.55 78.732C102.672 79.096 102.826 79.3853 103.012 79.6C103.208 79.8147 103.423 79.9687 103.656 80.062C103.899 80.1553 104.146 80.202 104.398 80.202C104.669 80.202 104.912 80.1693 105.126 80.104C105.341 80.0387 105.556 79.9267 105.77 79.768C106.05 79.544 106.26 79.264 106.4 78.928C106.55 78.592 106.624 78.1673 106.624 77.654V77.164ZM119.061 78.97C118.94 79.67 118.627 80.2207 118.123 80.622C117.629 81.0233 116.915 81.224 115.981 81.224C114.88 81.224 114.035 80.8927 113.447 80.23C112.859 79.558 112.565 78.6247 112.565 77.43C112.565 76.8047 112.649 76.2493 112.817 75.764C112.985 75.2787 113.219 74.8727 113.517 74.546C113.825 74.2193 114.189 73.972 114.609 73.804C115.029 73.6267 115.487 73.538 115.981 73.538C116.541 73.538 117.022 73.6267 117.423 73.804C117.825 73.9813 118.151 74.2287 118.403 74.546C118.665 74.854 118.856 75.2227 118.977 75.652C119.108 76.0813 119.173 76.5527 119.173 77.066V77.682H113.797C113.797 78.046 113.844 78.3867 113.937 78.704C114.04 79.012 114.18 79.2827 114.357 79.516C114.544 79.74 114.773 79.9173 115.043 80.048C115.314 80.1787 115.627 80.244 115.981 80.244C116.588 80.244 117.031 80.132 117.311 79.908C117.591 79.6747 117.783 79.362 117.885 78.97H119.061ZM117.955 76.772C117.955 76.4267 117.918 76.114 117.843 75.834C117.769 75.554 117.652 75.316 117.493 75.12C117.335 74.9147 117.129 74.756 116.877 74.644C116.625 74.532 116.322 74.476 115.967 74.476C115.323 74.476 114.819 74.672 114.455 75.064C114.101 75.456 113.891 76.0253 113.825 76.772H117.955ZM126.052 79.964C125.753 80.3653 125.408 80.678 125.016 80.902C124.624 81.1167 124.162 81.224 123.63 81.224C123.098 81.224 122.636 81.126 122.244 80.93C121.861 80.734 121.544 80.468 121.292 80.132C121.04 79.7867 120.853 79.3807 120.732 78.914C120.61 78.4473 120.55 77.948 120.55 77.416C120.55 76.8187 120.624 76.282 120.774 75.806C120.923 75.3207 121.133 74.91 121.404 74.574C121.684 74.238 122.02 73.9813 122.412 73.804C122.813 73.6267 123.266 73.538 123.77 73.538C124.152 73.538 124.54 73.6173 124.932 73.776C125.324 73.9253 125.688 74.2147 126.024 74.644V71.004H127.242V81H126.052V79.964ZM126.066 77.164C126.066 76.5853 126 76.1373 125.87 75.82C125.748 75.4933 125.543 75.218 125.254 74.994C125.048 74.826 124.838 74.7093 124.624 74.644C124.418 74.5787 124.19 74.546 123.938 74.546C123.639 74.546 123.359 74.5973 123.098 74.7C122.846 74.8027 122.622 74.9707 122.426 75.204C122.239 75.428 122.09 75.722 121.978 76.086C121.875 76.4407 121.824 76.8747 121.824 77.388C121.824 77.92 121.88 78.368 121.992 78.732C122.113 79.096 122.267 79.3853 122.454 79.6C122.65 79.8147 122.864 79.9687 123.098 80.062C123.34 80.1553 123.588 80.202 123.84 80.202C124.11 80.202 124.353 80.1693 124.568 80.104C124.782 80.0387 124.997 79.9267 125.212 79.768C125.492 79.544 125.702 79.264 125.842 78.928C125.991 78.592 126.066 78.1673 126.066 77.654V77.164ZM129.085 73.762H130.303V78.326C130.303 78.998 130.411 79.474 130.625 79.754C130.849 80.034 131.209 80.174 131.703 80.174C132.245 80.174 132.735 79.978 133.173 79.586C133.407 79.3807 133.584 79.166 133.705 78.942C133.827 78.7087 133.887 78.41 133.887 78.046V73.762H135.105V81H133.901V79.88C133.547 80.3467 133.164 80.6873 132.753 80.902C132.343 81.1167 131.899 81.224 131.423 81.224C130.602 81.224 130.005 81.0047 129.631 80.566C129.267 80.118 129.085 79.4507 129.085 78.564V73.762ZM143.247 78.55C143.126 79.3807 142.808 80.034 142.295 80.51C141.782 80.986 141.058 81.224 140.125 81.224C139.574 81.224 139.084 81.1353 138.655 80.958C138.235 80.7807 137.88 80.5287 137.591 80.202C137.311 79.866 137.096 79.4647 136.947 78.998C136.807 78.522 136.737 77.99 136.737 77.402C136.737 76.8233 136.816 76.296 136.975 75.82C137.134 75.344 137.362 74.938 137.661 74.602C137.96 74.266 138.324 74.0047 138.753 73.818C139.182 73.6313 139.668 73.538 140.209 73.538C141.077 73.538 141.749 73.7527 142.225 74.182C142.701 74.602 143.004 75.1853 143.135 75.932L141.917 76.156C141.87 75.9227 141.805 75.708 141.721 75.512C141.646 75.316 141.539 75.148 141.399 75.008C141.259 74.8587 141.086 74.7467 140.881 74.672C140.685 74.588 140.447 74.546 140.167 74.546C139.784 74.546 139.458 74.6207 139.187 74.77C138.916 74.91 138.692 75.1107 138.515 75.372C138.347 75.624 138.221 75.9227 138.137 76.268C138.062 76.6133 138.025 76.982 138.025 77.374C138.025 77.766 138.062 78.1347 138.137 78.48C138.212 78.8253 138.333 79.1287 138.501 79.39C138.669 79.642 138.888 79.8427 139.159 79.992C139.43 80.1413 139.761 80.216 140.153 80.216C140.741 80.216 141.175 80.0667 141.455 79.768C141.744 79.4693 141.931 79.0633 142.015 78.55H143.247ZM149.303 80.006C149.042 80.3233 148.711 80.5987 148.309 80.832C147.908 81.056 147.409 81.168 146.811 81.168C146.447 81.168 146.111 81.1213 145.803 81.028C145.505 80.944 145.243 80.8133 145.019 80.636C144.805 80.4493 144.637 80.2207 144.515 79.95C144.394 79.6793 144.333 79.362 144.333 78.998C144.333 78.5033 144.436 78.102 144.641 77.794C144.856 77.486 145.136 77.2433 145.481 77.066C145.836 76.8887 146.233 76.7627 146.671 76.688C147.11 76.6133 147.563 76.5667 148.029 76.548L149.275 76.506V76.226C149.275 75.61 149.145 75.1667 148.883 74.896C148.622 74.6253 148.197 74.49 147.609 74.49C147.031 74.49 146.606 74.588 146.335 74.784C146.065 74.9707 145.887 75.232 145.803 75.568L144.697 75.442C144.828 74.7793 145.141 74.2987 145.635 74C146.13 73.692 146.802 73.538 147.651 73.538C148.174 73.538 148.613 73.6033 148.967 73.734C149.331 73.8553 149.625 74.0327 149.849 74.266C150.073 74.4993 150.232 74.7887 150.325 75.134C150.428 75.4793 150.479 75.8667 150.479 76.296V81H149.303V80.006ZM149.275 77.374L148.113 77.416C147.619 77.4347 147.208 77.4813 146.881 77.556C146.555 77.6307 146.293 77.7333 146.097 77.864C145.911 77.9853 145.775 78.1393 145.691 78.326C145.617 78.5127 145.579 78.7273 145.579 78.97C145.579 79.334 145.687 79.628 145.901 79.852C146.125 80.0667 146.489 80.174 146.993 80.174C147.712 80.174 148.272 79.9967 148.673 79.642C149.075 79.2873 149.275 78.802 149.275 78.186V77.374ZM152.749 74.728H151.629V73.762H152.749V71.788H153.967V73.762H155.885V74.728H153.967V78.97C153.967 79.3247 154.046 79.6093 154.205 79.824C154.363 80.0387 154.606 80.146 154.933 80.146C155.138 80.146 155.315 80.132 155.465 80.104C155.623 80.076 155.768 80.0387 155.899 79.992L156.109 80.93C155.922 80.9953 155.717 81.0467 155.493 81.084C155.278 81.1307 155.021 81.154 154.723 81.154C154.312 81.154 153.981 81.0933 153.729 80.972C153.477 80.8507 153.276 80.678 153.127 80.454C152.977 80.23 152.875 79.964 152.819 79.656C152.772 79.348 152.749 79.012 152.749 78.648V74.728ZM163.194 78.97C163.073 79.67 162.76 80.2207 162.256 80.622C161.761 81.0233 161.047 81.224 160.114 81.224C159.013 81.224 158.168 80.8927 157.58 80.23C156.992 79.558 156.698 78.6247 156.698 77.43C156.698 76.8047 156.782 76.2493 156.95 75.764C157.118 75.2787 157.351 74.8727 157.65 74.546C157.958 74.2193 158.322 73.972 158.742 73.804C159.162 73.6267 159.619 73.538 160.114 73.538C160.674 73.538 161.155 73.6267 161.556 73.804C161.957 73.9813 162.284 74.2287 162.536 74.546C162.797 74.854 162.989 75.2227 163.11 75.652C163.241 76.0813 163.306 76.5527 163.306 77.066V77.682H157.93C157.93 78.046 157.977 78.3867 158.07 78.704C158.173 79.012 158.313 79.2827 158.49 79.516C158.677 79.74 158.905 79.9173 159.176 80.048C159.447 80.1787 159.759 80.244 160.114 80.244C160.721 80.244 161.164 80.132 161.444 79.908C161.724 79.6747 161.915 79.362 162.018 78.97H163.194ZM162.088 76.772C162.088 76.4267 162.051 76.114 161.976 75.834C161.901 75.554 161.785 75.316 161.626 75.12C161.467 74.9147 161.262 74.756 161.01 74.644C160.758 74.532 160.455 74.476 160.1 74.476C159.456 74.476 158.952 74.672 158.588 75.064C158.233 75.456 158.023 76.0253 157.958 76.772H162.088ZM168.458 74.728H167.338V73.762H168.458V71.788H169.676V73.762H171.594V74.728H169.676V78.97C169.676 79.3247 169.755 79.6093 169.914 79.824C170.072 80.0387 170.315 80.146 170.642 80.146C170.847 80.146 171.024 80.132 171.174 80.104C171.332 80.076 171.477 80.0387 171.608 79.992L171.818 80.93C171.631 80.9953 171.426 81.0467 171.202 81.084C170.987 81.1307 170.73 81.154 170.432 81.154C170.021 81.154 169.69 81.0933 169.438 80.972C169.186 80.8507 168.985 80.678 168.836 80.454C168.686 80.23 168.584 79.964 168.528 79.656C168.481 79.348 168.458 79.012 168.458 78.648V74.728ZM172.891 71.004H174.109V74.84C174.464 74.3827 174.851 74.0513 175.271 73.846C175.7 73.6407 176.153 73.538 176.629 73.538C177.45 73.538 178.057 73.762 178.449 74.21C178.85 74.658 179.051 75.316 179.051 76.184V81H177.819V76.422C177.819 75.75 177.698 75.2787 177.455 75.008C177.222 74.728 176.853 74.588 176.349 74.588C176.078 74.588 175.808 74.6347 175.537 74.728C175.276 74.8213 175.038 74.9707 174.823 75.176C174.59 75.3813 174.412 75.6007 174.291 75.834C174.17 76.058 174.109 76.352 174.109 76.716V81H172.891V71.004ZM187.133 78.97C187.012 79.67 186.7 80.2207 186.196 80.622C185.701 81.0233 184.987 81.224 184.053 81.224C182.952 81.224 182.108 80.8927 181.52 80.23C180.932 79.558 180.638 78.6247 180.638 77.43C180.638 76.8047 180.722 76.2493 180.89 75.764C181.058 75.2787 181.291 74.8727 181.59 74.546C181.898 74.2193 182.262 73.972 182.682 73.804C183.102 73.6267 183.559 73.538 184.053 73.538C184.614 73.538 185.094 73.6267 185.496 73.804C185.897 73.9813 186.224 74.2287 186.476 74.546C186.737 74.854 186.928 75.2227 187.05 75.652C187.18 76.0813 187.246 76.5527 187.246 77.066V77.682H181.87C181.87 78.046 181.916 78.3867 182.01 78.704C182.112 79.012 182.252 79.2827 182.43 79.516C182.616 79.74 182.845 79.9173 183.116 80.048C183.386 80.1787 183.699 80.244 184.053 80.244C184.66 80.244 185.104 80.132 185.384 79.908C185.664 79.6747 185.855 79.362 185.958 78.97H187.133ZM186.028 76.772C186.028 76.4267 185.99 76.114 185.916 75.834C185.841 75.554 185.724 75.316 185.566 75.12C185.407 74.9147 185.202 74.756 184.95 74.644C184.698 74.532 184.394 74.476 184.04 74.476C183.396 74.476 182.892 74.672 182.528 75.064C182.173 75.456 181.963 76.0253 181.898 76.772H186.028ZM188.86 73.762H190.064V74.868C190.391 74.42 190.75 74.0887 191.142 73.874C191.534 73.65 191.935 73.538 192.346 73.538C192.887 73.538 193.321 73.6547 193.648 73.888C193.984 74.1213 194.231 74.4573 194.39 74.896C194.717 74.448 195.09 74.112 195.51 73.888C195.93 73.6547 196.378 73.538 196.854 73.538C197.563 73.538 198.109 73.734 198.492 74.126C198.884 74.5087 199.08 75.1293 199.08 75.988V81H197.862V76.268C197.862 75.9413 197.834 75.6707 197.778 75.456C197.722 75.232 197.638 75.0593 197.526 74.938C197.423 74.8073 197.293 74.7187 197.134 74.672C196.975 74.616 196.793 74.588 196.588 74.588C196.373 74.588 196.149 74.6253 195.916 74.7C195.683 74.7747 195.454 74.9053 195.23 75.092C195.043 75.2507 194.889 75.442 194.768 75.666C194.647 75.89 194.586 76.1467 194.586 76.436V81H193.368V76.282C193.368 75.6473 193.256 75.2087 193.032 74.966C192.817 74.714 192.505 74.588 192.094 74.588C191.618 74.588 191.17 74.784 190.75 75.176C190.591 75.3253 190.437 75.5167 190.288 75.75C190.148 75.9833 190.078 76.296 190.078 76.688V81H188.86V73.762ZM201.702 78.886C201.786 79.39 201.996 79.7447 202.332 79.95C202.678 80.146 203.144 80.244 203.732 80.244C204.348 80.244 204.782 80.1413 205.034 79.936C205.296 79.7213 205.426 79.4413 205.426 79.096C205.426 78.956 205.408 78.8253 205.37 78.704C205.342 78.5733 205.282 78.4613 205.188 78.368C205.095 78.2653 204.964 78.1767 204.796 78.102C204.628 78.0273 204.409 77.9667 204.138 77.92L203.214 77.78C202.804 77.7147 202.444 77.6307 202.136 77.528C201.828 77.4253 201.567 77.2947 201.352 77.136C201.138 76.968 200.974 76.7673 200.862 76.534C200.76 76.2913 200.708 76.002 200.708 75.666C200.708 75.33 200.778 75.0313 200.918 74.77C201.068 74.5087 201.268 74.2893 201.52 74.112C201.782 73.9253 202.085 73.7853 202.43 73.692C202.785 73.5893 203.168 73.538 203.578 73.538C204.101 73.538 204.535 73.5893 204.88 73.692C205.235 73.7947 205.524 73.9347 205.748 74.112C205.972 74.2893 206.145 74.4993 206.266 74.742C206.388 74.9847 206.481 75.2413 206.546 75.512L205.44 75.694C205.375 75.498 205.3 75.3253 205.216 75.176C205.132 75.0267 205.02 74.9053 204.88 74.812C204.74 74.7093 204.568 74.6347 204.362 74.588C204.166 74.532 203.919 74.504 203.62 74.504C203.284 74.504 203.004 74.5367 202.78 74.602C202.556 74.658 202.374 74.7373 202.234 74.84C202.104 74.9427 202.01 75.0593 201.954 75.19C201.898 75.3113 201.87 75.442 201.87 75.582C201.87 75.7313 201.889 75.8667 201.926 75.988C201.964 76.1 202.034 76.2027 202.136 76.296C202.239 76.38 202.379 76.4547 202.556 76.52C202.734 76.5853 202.962 76.6413 203.242 76.688L204.292 76.856C205.142 76.996 205.748 77.2387 206.112 77.584C206.486 77.9293 206.672 78.4333 206.672 79.096C206.672 79.404 206.612 79.6887 206.49 79.95C206.369 80.202 206.187 80.426 205.944 80.622C205.702 80.8087 205.398 80.9533 205.034 81.056C204.67 81.168 204.246 81.224 203.76 81.224C203.322 81.224 202.911 81.182 202.528 81.098C202.155 81.014 201.824 80.8833 201.534 80.706C201.245 80.5193 201.012 80.2767 200.834 79.978C200.657 79.6793 200.554 79.3153 200.526 78.886H201.702ZM214.491 78.97C214.37 79.67 214.057 80.2207 213.553 80.622C213.058 81.0233 212.344 81.224 211.411 81.224C210.31 81.224 209.465 80.8927 208.877 80.23C208.289 79.558 207.995 78.6247 207.995 77.43C207.995 76.8047 208.079 76.2493 208.247 75.764C208.415 75.2787 208.648 74.8727 208.947 74.546C209.255 74.2193 209.619 73.972 210.039 73.804C210.459 73.6267 210.916 73.538 211.411 73.538C211.971 73.538 212.452 73.6267 212.853 73.804C213.254 73.9813 213.581 74.2287 213.833 74.546C214.094 74.854 214.286 75.2227 214.407 75.652C214.538 76.0813 214.603 76.5527 214.603 77.066V77.682H209.227C209.227 78.046 209.274 78.3867 209.367 78.704C209.47 79.012 209.61 79.2827 209.787 79.516C209.974 79.74 210.202 79.9173 210.473 80.048C210.744 80.1787 211.056 80.244 211.411 80.244C212.018 80.244 212.461 80.132 212.741 79.908C213.021 79.6747 213.212 79.362 213.315 78.97H214.491ZM213.385 76.772C213.385 76.4267 213.348 76.114 213.273 75.834C213.198 75.554 213.082 75.316 212.923 75.12C212.764 74.9147 212.559 74.756 212.307 74.644C212.055 74.532 211.752 74.476 211.397 74.476C210.753 74.476 210.249 74.672 209.885 75.064C209.53 75.456 209.32 76.0253 209.255 76.772H213.385ZM216.245 71.004H217.463V81H216.245V71.004ZM218.522 73.762H219.936L222.092 79.642L224.29 73.762H225.634L222.722 81H221.42L218.522 73.762ZM232.784 78.97C232.663 79.67 232.35 80.2207 231.846 80.622C231.351 81.0233 230.637 81.224 229.704 81.224C228.603 81.224 227.758 80.8927 227.17 80.23C226.582 79.558 226.288 78.6247 226.288 77.43C226.288 76.8047 226.372 76.2493 226.54 75.764C226.708 75.2787 226.941 74.8727 227.24 74.546C227.548 74.2193 227.912 73.972 228.332 73.804C228.752 73.6267 229.209 73.538 229.704 73.538C230.264 73.538 230.745 73.6267 231.146 73.804C231.547 73.9813 231.874 74.2287 232.126 74.546C232.387 74.854 232.579 75.2227 232.7 75.652C232.831 76.0813 232.896 76.5527 232.896 77.066V77.682H227.52C227.52 78.046 227.567 78.3867 227.66 78.704C227.763 79.012 227.903 79.2827 228.08 79.516C228.267 79.74 228.495 79.9173 228.766 80.048C229.037 80.1787 229.349 80.244 229.704 80.244C230.311 80.244 230.754 80.132 231.034 79.908C231.314 79.6747 231.505 79.362 231.608 78.97H232.784ZM231.678 76.772C231.678 76.4267 231.641 76.114 231.566 75.834C231.491 75.554 231.375 75.316 231.216 75.12C231.057 74.9147 230.852 74.756 230.6 74.644C230.348 74.532 230.045 74.476 229.69 74.476C229.046 74.476 228.542 74.672 228.178 75.064C227.823 75.456 227.613 76.0253 227.548 76.772H231.678ZM55.446 104.006C55.1847 104.323 54.8533 104.599 54.452 104.832C54.0507 105.056 53.5513 105.168 52.954 105.168C52.59 105.168 52.254 105.121 51.946 105.028C51.6473 104.944 51.386 104.813 51.162 104.636C50.9473 104.449 50.7793 104.221 50.658 103.95C50.5367 103.679 50.476 103.362 50.476 102.998C50.476 102.503 50.5787 102.102 50.784 101.794C50.9987 101.486 51.2787 101.243 51.624 101.066C51.9787 100.889 52.3753 100.763 52.814 100.688C53.2527 100.613 53.7053 100.567 54.172 100.548L55.418 100.506V100.226C55.418 99.61 55.2873 99.1667 55.026 98.896C54.7647 98.6253 54.34 98.49 53.752 98.49C53.1733 98.49 52.7487 98.588 52.478 98.784C52.2073 98.9707 52.03 99.232 51.946 99.568L50.84 99.442C50.9707 98.7793 51.2833 98.2987 51.778 98C52.2727 97.692 52.9447 97.538 53.794 97.538C54.3167 97.538 54.7553 97.6033 55.11 97.734C55.474 97.8553 55.768 98.0327 55.992 98.266C56.216 98.4993 56.3747 98.7887 56.468 99.134C56.5707 99.4793 56.622 99.8667 56.622 100.296V105H55.446V104.006ZM55.418 101.374L54.256 101.416C53.7613 101.435 53.3507 101.481 53.024 101.556C52.6973 101.631 52.436 101.733 52.24 101.864C52.0533 101.985 51.918 102.139 51.834 102.326C51.7593 102.513 51.722 102.727 51.722 102.97C51.722 103.334 51.8293 103.628 52.044 103.852C52.268 104.067 52.632 104.174 53.136 104.174C53.8547 104.174 54.4147 103.997 54.816 103.642C55.2173 103.287 55.418 102.802 55.418 102.186V101.374ZM58.4712 95.004H59.6892V98.77C59.9879 98.378 60.3332 98.0747 60.7252 97.86C61.1172 97.6453 61.5792 97.538 62.1112 97.538C62.6245 97.538 63.0725 97.6313 63.4552 97.818C63.8472 98.0047 64.1692 98.266 64.4212 98.602C64.6825 98.938 64.8739 99.3393 64.9952 99.806C65.1259 100.263 65.1912 100.772 65.1912 101.332C65.1912 101.929 65.1165 102.471 64.9672 102.956C64.8179 103.432 64.6032 103.838 64.3232 104.174C64.0432 104.51 63.7025 104.771 63.3012 104.958C62.9092 105.135 62.4659 105.224 61.9712 105.224C61.5512 105.224 61.1405 105.14 60.7392 104.972C60.3472 104.795 59.9925 104.496 59.6752 104.076V105H58.4712V95.004ZM59.6752 101.584C59.6752 102.051 59.7265 102.452 59.8292 102.788C59.9412 103.115 60.0905 103.385 60.2772 103.6C60.4639 103.815 60.6879 103.973 60.9492 104.076C61.2105 104.169 61.4952 104.216 61.8032 104.216C62.1019 104.216 62.3772 104.165 62.6292 104.062C62.8905 103.959 63.1145 103.796 63.3012 103.572C63.4879 103.339 63.6325 103.04 63.7352 102.676C63.8472 102.312 63.9032 101.869 63.9032 101.346C63.9032 100.814 63.8425 100.371 63.7212 100.016C63.6092 99.652 63.4599 99.3627 63.2732 99.148C63.0865 98.9333 62.8719 98.7793 62.6292 98.686C62.3959 98.5927 62.1532 98.546 61.9012 98.546C61.5839 98.546 61.2899 98.602 61.0192 98.714C60.7485 98.8167 60.5105 98.9753 60.3052 99.19C60.1092 99.3953 59.9552 99.6613 59.8432 99.988C59.7312 100.305 59.6752 100.674 59.6752 101.094V101.584ZM70.0727 105.224C69.5221 105.224 69.0321 105.135 68.6027 104.958C68.1734 104.781 67.8094 104.529 67.5107 104.202C67.2121 103.875 66.9834 103.474 66.8247 102.998C66.6661 102.522 66.5867 101.99 66.5867 101.402C66.5867 100.814 66.6707 100.282 66.8387 99.806C67.0067 99.33 67.2447 98.924 67.5527 98.588C67.8607 98.252 68.2294 97.9953 68.6587 97.818C69.0974 97.6313 69.5827 97.538 70.1147 97.538C70.6561 97.538 71.1414 97.6267 71.5707 97.804C72.0001 97.9813 72.3641 98.238 72.6627 98.574C72.9707 98.9007 73.2041 99.2973 73.3627 99.764C73.5214 100.231 73.6007 100.758 73.6007 101.346C73.6007 101.943 73.5167 102.48 73.3487 102.956C73.1901 103.432 72.9567 103.838 72.6487 104.174C72.3501 104.51 71.9814 104.771 71.5427 104.958C71.1041 105.135 70.6141 105.224 70.0727 105.224ZM70.0867 104.216C70.4787 104.216 70.8147 104.146 71.0947 104.006C71.3747 103.866 71.6034 103.67 71.7807 103.418C71.9674 103.166 72.1027 102.867 72.1867 102.522C72.2707 102.167 72.3127 101.78 72.3127 101.36C72.3127 100.949 72.2707 100.571 72.1867 100.226C72.1027 99.8807 71.9674 99.5867 71.7807 99.344C71.6034 99.092 71.3747 98.896 71.0947 98.756C70.8147 98.616 70.4787 98.546 70.0867 98.546C69.6947 98.546 69.3587 98.616 69.0787 98.756C68.8081 98.896 68.5794 99.092 68.3927 99.344C68.2154 99.5867 68.0847 99.8807 68.0007 100.226C67.9167 100.571 67.8747 100.954 67.8747 101.374C67.8747 101.794 67.9167 102.177 68.0007 102.522C68.0847 102.867 68.2154 103.166 68.3927 103.418C68.5701 103.67 68.7987 103.866 69.0787 104.006C69.3587 104.146 69.6947 104.216 70.0867 104.216ZM75.1909 97.762H76.4089V102.326C76.4089 102.998 76.5163 103.474 76.7309 103.754C76.9549 104.034 77.3143 104.174 77.8089 104.174C78.3503 104.174 78.8403 103.978 79.2789 103.586C79.5123 103.381 79.6896 103.166 79.8109 102.942C79.9323 102.709 79.9929 102.41 79.9929 102.046V97.762H81.2109V105H80.0069V103.88C79.6523 104.347 79.2696 104.687 78.8589 104.902C78.4483 105.117 78.0049 105.224 77.5289 105.224C76.7076 105.224 76.1103 105.005 75.7369 104.566C75.3729 104.118 75.1909 103.451 75.1909 102.564V97.762ZM83.5006 98.728H82.3806V97.762H83.5006V95.788H84.7186V97.762H86.6366V98.728H84.7186V102.97C84.7186 103.325 84.7979 103.609 84.9566 103.824C85.1152 104.039 85.3579 104.146 85.6846 104.146C85.8899 104.146 86.0672 104.132 86.2166 104.104C86.3752 104.076 86.5199 104.039 86.6506 103.992L86.8606 104.93C86.6739 104.995 86.4686 105.047 86.2446 105.084C86.0299 105.131 85.7732 105.154 85.4746 105.154C85.0639 105.154 84.7326 105.093 84.4806 104.972C84.2286 104.851 84.0279 104.678 83.8786 104.454C83.7292 104.23 83.6266 103.964 83.5706 103.656C83.5239 103.348 83.5006 103.012 83.5006 102.648V98.728ZM91.0793 97.762H92.2973V105H91.0793V97.762ZM91.0373 95.004H92.3393V96.418H91.0373V95.004ZM94.1958 97.762H95.3998V98.868C95.7545 98.392 96.1465 98.0513 96.5758 97.846C97.0051 97.6407 97.4578 97.538 97.9338 97.538C98.7551 97.538 99.3618 97.762 99.7538 98.21C100.155 98.658 100.356 99.316 100.356 100.184V105H99.1378V100.422C99.1378 99.75 99.0165 99.2787 98.7738 99.008C98.5311 98.728 98.1578 98.588 97.6538 98.588C97.3831 98.588 97.1125 98.6347 96.8418 98.728C96.5805 98.8213 96.3425 98.9707 96.1278 99.176C95.8945 99.3813 95.7171 99.6007 95.5958 99.834C95.4745 100.058 95.4138 100.352 95.4138 100.716V105H94.1958V97.762ZM101.231 97.762H102.645L104.801 103.642L106.999 97.762H108.343L105.431 105H104.129L101.231 97.762ZM115.493 102.97C115.372 103.67 115.059 104.221 114.555 104.622C114.06 105.023 113.346 105.224 112.413 105.224C111.312 105.224 110.467 104.893 109.879 104.23C109.291 103.558 108.997 102.625 108.997 101.43C108.997 100.805 109.081 100.249 109.249 99.764C109.417 99.2787 109.65 98.8727 109.949 98.546C110.257 98.2193 110.621 97.972 111.041 97.804C111.461 97.6267 111.918 97.538 112.413 97.538C112.973 97.538 113.454 97.6267 113.855 97.804C114.256 97.9813 114.583 98.2287 114.835 98.546C115.096 98.854 115.288 99.2227 115.409 99.652C115.54 100.081 115.605 100.553 115.605 101.066V101.682H110.229C110.229 102.046 110.276 102.387 110.369 102.704C110.472 103.012 110.612 103.283 110.789 103.516C110.976 103.74 111.204 103.917 111.475 104.048C111.746 104.179 112.058 104.244 112.413 104.244C113.02 104.244 113.463 104.132 113.743 103.908C114.023 103.675 114.214 103.362 114.317 102.97H115.493ZM114.387 100.772C114.387 100.427 114.35 100.114 114.275 99.834C114.2 99.554 114.084 99.316 113.925 99.12C113.766 98.9147 113.561 98.756 113.309 98.644C113.057 98.532 112.754 98.476 112.399 98.476C111.755 98.476 111.251 98.672 110.887 99.064C110.532 99.456 110.322 100.025 110.257 100.772H114.387ZM118.003 102.886C118.087 103.39 118.297 103.745 118.633 103.95C118.979 104.146 119.445 104.244 120.033 104.244C120.649 104.244 121.083 104.141 121.335 103.936C121.597 103.721 121.727 103.441 121.727 103.096C121.727 102.956 121.709 102.825 121.671 102.704C121.643 102.573 121.583 102.461 121.489 102.368C121.396 102.265 121.265 102.177 121.097 102.102C120.929 102.027 120.71 101.967 120.439 101.92L119.515 101.78C119.105 101.715 118.745 101.631 118.437 101.528C118.129 101.425 117.868 101.295 117.653 101.136C117.439 100.968 117.275 100.767 117.163 100.534C117.061 100.291 117.009 100.002 117.009 99.666C117.009 99.33 117.079 99.0313 117.219 98.77C117.369 98.5087 117.569 98.2893 117.821 98.112C118.083 97.9253 118.386 97.7853 118.731 97.692C119.086 97.5893 119.469 97.538 119.879 97.538C120.402 97.538 120.836 97.5893 121.181 97.692C121.536 97.7947 121.825 97.9347 122.049 98.112C122.273 98.2893 122.446 98.4993 122.567 98.742C122.689 98.9847 122.782 99.2413 122.847 99.512L121.741 99.694C121.676 99.498 121.601 99.3253 121.517 99.176C121.433 99.0267 121.321 98.9053 121.181 98.812C121.041 98.7093 120.869 98.6347 120.663 98.588C120.467 98.532 120.22 98.504 119.921 98.504C119.585 98.504 119.305 98.5367 119.081 98.602C118.857 98.658 118.675 98.7373 118.535 98.84C118.405 98.9427 118.311 99.0593 118.255 99.19C118.199 99.3113 118.171 99.442 118.171 99.582C118.171 99.7313 118.19 99.8667 118.227 99.988C118.265 100.1 118.335 100.203 118.437 100.296C118.54 100.38 118.68 100.455 118.857 100.52C119.035 100.585 119.263 100.641 119.543 100.688L120.593 100.856C121.443 100.996 122.049 101.239 122.413 101.584C122.787 101.929 122.973 102.433 122.973 103.096C122.973 103.404 122.913 103.689 122.791 103.95C122.67 104.202 122.488 104.426 122.245 104.622C122.003 104.809 121.699 104.953 121.335 105.056C120.971 105.168 120.547 105.224 120.061 105.224C119.623 105.224 119.212 105.182 118.829 105.098C118.456 105.014 118.125 104.883 117.835 104.706C117.546 104.519 117.313 104.277 117.135 103.978C116.958 103.679 116.855 103.315 116.827 102.886H118.003ZM124.954 98.728H123.834V97.762H124.954V95.788H126.172V97.762H128.09V98.728H126.172V102.97C126.172 103.325 126.251 103.609 126.41 103.824C126.568 104.039 126.811 104.146 127.138 104.146C127.343 104.146 127.52 104.132 127.67 104.104C127.828 104.076 127.973 104.039 128.104 103.992L128.314 104.93C128.127 104.995 127.922 105.047 127.698 105.084C127.483 105.131 127.226 105.154 126.928 105.154C126.517 105.154 126.186 105.093 125.934 104.972C125.682 104.851 125.481 104.678 125.332 104.454C125.182 104.23 125.08 103.964 125.024 103.656C124.977 103.348 124.954 103.012 124.954 102.648V98.728ZM129.415 97.762H130.633V105H129.415V97.762ZM129.373 95.004H130.675V96.418H129.373V95.004ZM132.532 97.762H133.736V98.868C134.09 98.392 134.482 98.0513 134.912 97.846C135.341 97.6407 135.794 97.538 136.27 97.538C137.091 97.538 137.698 97.762 138.09 98.21C138.491 98.658 138.692 99.316 138.692 100.184V105H137.474V100.422C137.474 99.75 137.352 99.2787 137.11 99.008C136.867 98.728 136.494 98.588 135.99 98.588C135.719 98.588 135.448 98.6347 135.178 98.728C134.916 98.8213 134.678 98.9707 134.464 99.176C134.23 99.3813 134.053 99.6007 133.932 99.834C133.81 100.058 133.75 100.352 133.75 100.716V105H132.532V97.762ZM141.748 105.672C141.851 106.111 142.047 106.423 142.336 106.61C142.635 106.797 143.097 106.89 143.722 106.89C144.487 106.89 145.015 106.675 145.304 106.246C145.603 105.826 145.752 105.21 145.752 104.398V103.628C145.472 104.02 145.131 104.323 144.73 104.538C144.338 104.753 143.876 104.86 143.344 104.86C142.821 104.86 142.364 104.767 141.972 104.58C141.589 104.384 141.272 104.123 141.02 103.796C140.768 103.46 140.577 103.073 140.446 102.634C140.325 102.195 140.264 101.724 140.264 101.22C140.264 100.669 140.339 100.17 140.488 99.722C140.637 99.2647 140.852 98.8773 141.132 98.56C141.412 98.2333 141.748 97.9813 142.14 97.804C142.541 97.6267 142.989 97.538 143.484 97.538C143.885 97.538 144.282 97.622 144.674 97.79C145.075 97.9487 145.439 98.2473 145.766 98.686V97.762H146.97V103.824C146.97 104.449 146.923 105.009 146.83 105.504C146.746 106.008 146.583 106.433 146.34 106.778C146.107 107.133 145.78 107.403 145.36 107.59C144.94 107.777 144.399 107.87 143.736 107.87C142.784 107.87 142.037 107.697 141.496 107.352C140.955 107.016 140.637 106.456 140.544 105.672H141.748ZM145.78 101.108C145.78 100.632 145.724 100.235 145.612 99.918C145.5 99.5913 145.346 99.3253 145.15 99.12C144.954 98.9147 144.725 98.77 144.464 98.686C144.212 98.5927 143.946 98.546 143.666 98.546C143.367 98.546 143.087 98.5973 142.826 98.7C142.574 98.7933 142.35 98.9473 142.154 99.162C141.967 99.3767 141.818 99.652 141.706 99.988C141.603 100.324 141.552 100.73 141.552 101.206C141.552 101.691 141.608 102.102 141.72 102.438C141.841 102.774 141.995 103.045 142.182 103.25C142.369 103.455 142.583 103.605 142.826 103.698C143.078 103.791 143.33 103.838 143.582 103.838C143.899 103.838 144.189 103.787 144.45 103.684C144.721 103.581 144.954 103.427 145.15 103.222C145.346 103.017 145.5 102.76 145.612 102.452C145.724 102.135 145.78 101.766 145.78 101.346V101.108ZM151.987 97.762H153.205V105H151.987V97.762ZM151.945 95.004H153.247V96.418H151.945V95.004ZM155.104 97.762H156.308V98.868C156.663 98.392 157.055 98.0513 157.484 97.846C157.913 97.6407 158.366 97.538 158.842 97.538C159.663 97.538 160.27 97.762 160.662 98.21C161.063 98.658 161.264 99.316 161.264 100.184V105H160.046V100.422C160.046 99.75 159.925 99.2787 159.682 99.008C159.439 98.728 159.066 98.588 158.562 98.588C158.291 98.588 158.021 98.6347 157.75 98.728C157.489 98.8213 157.251 98.9707 157.036 99.176C156.803 99.3813 156.625 99.6007 156.504 99.834C156.383 100.058 156.322 100.352 156.322 100.716V105H155.104V97.762ZM169.314 95.004H170.672L174.55 105H173.15L172.1 102.214H167.816L166.766 105H165.422L169.314 95.004ZM171.708 101.094L169.944 96.46L168.208 101.094H171.708ZM176.073 98.728H174.939V97.762H176.073V97.132C176.073 96.74 176.129 96.404 176.241 96.124C176.363 95.844 176.521 95.6153 176.717 95.438C176.923 95.2513 177.156 95.116 177.417 95.032C177.688 94.9387 177.973 94.892 178.271 94.892C178.486 94.892 178.691 94.906 178.887 94.934C179.083 94.9527 179.289 94.9947 179.503 95.06L179.307 96.012C179.158 95.9653 179.013 95.9373 178.873 95.928C178.743 95.9093 178.612 95.9 178.481 95.9C178.155 95.9 177.875 95.9887 177.641 96.166C177.408 96.334 177.291 96.6467 177.291 97.104V97.762H179.125V98.728H177.291V105H176.073V98.728ZM180.315 97.762H181.519V98.882C181.79 98.4807 182.107 98.1727 182.471 97.958C182.835 97.7433 183.222 97.636 183.633 97.636C183.885 97.636 184.1 97.6547 184.277 97.692L184.123 98.826C184.03 98.8073 183.936 98.7933 183.843 98.784C183.75 98.7653 183.647 98.756 183.535 98.756C183.311 98.756 183.082 98.798 182.849 98.882C182.616 98.9567 182.396 99.0873 182.191 99.274C181.986 99.4513 181.822 99.6567 181.701 99.89C181.589 100.123 181.533 100.394 181.533 100.702V105H180.315V97.762ZM185.47 97.762H186.688V105H185.47V97.762ZM185.428 95.004H186.73V96.418H185.428V95.004ZM194.858 102.55C194.737 103.381 194.42 104.034 193.906 104.51C193.393 104.986 192.67 105.224 191.736 105.224C191.186 105.224 190.696 105.135 190.266 104.958C189.846 104.781 189.492 104.529 189.202 104.202C188.922 103.866 188.708 103.465 188.558 102.998C188.418 102.522 188.348 101.99 188.348 101.402C188.348 100.823 188.428 100.296 188.586 99.82C188.745 99.344 188.974 98.938 189.272 98.602C189.571 98.266 189.935 98.0047 190.364 97.818C190.794 97.6313 191.279 97.538 191.82 97.538C192.688 97.538 193.36 97.7527 193.836 98.182C194.312 98.602 194.616 99.1853 194.746 99.932L193.528 100.156C193.482 99.9227 193.416 99.708 193.332 99.512C193.258 99.316 193.15 99.148 193.01 99.008C192.87 98.8587 192.698 98.7467 192.492 98.672C192.296 98.588 192.058 98.546 191.778 98.546C191.396 98.546 191.069 98.6207 190.798 98.77C190.528 98.91 190.304 99.1107 190.126 99.372C189.958 99.624 189.832 99.9227 189.748 100.268C189.674 100.613 189.636 100.982 189.636 101.374C189.636 101.766 189.674 102.135 189.748 102.48C189.823 102.825 189.944 103.129 190.112 103.39C190.28 103.642 190.5 103.843 190.77 103.992C191.041 104.141 191.372 104.216 191.764 104.216C192.352 104.216 192.786 104.067 193.066 103.768C193.356 103.469 193.542 103.063 193.626 102.55H194.858ZM200.915 104.006C200.653 104.323 200.322 104.599 199.921 104.832C199.519 105.056 199.02 105.168 198.423 105.168C198.059 105.168 197.723 105.121 197.415 105.028C197.116 104.944 196.855 104.813 196.631 104.636C196.416 104.449 196.248 104.221 196.127 103.95C196.005 103.679 195.945 103.362 195.945 102.998C195.945 102.503 196.047 102.102 196.253 101.794C196.467 101.486 196.747 101.243 197.093 101.066C197.447 100.889 197.844 100.763 198.283 100.688C198.721 100.613 199.174 100.567 199.641 100.548L200.887 100.506V100.226C200.887 99.61 200.756 99.1667 200.495 98.896C200.233 98.6253 199.809 98.49 199.221 98.49C198.642 98.49 198.217 98.588 197.947 98.784C197.676 98.9707 197.499 99.232 197.415 99.568L196.309 99.442C196.439 98.7793 196.752 98.2987 197.247 98C197.741 97.692 198.413 97.538 199.263 97.538C199.785 97.538 200.224 97.6033 200.579 97.734C200.943 97.8553 201.237 98.0327 201.461 98.266C201.685 98.4993 201.843 98.7887 201.937 99.134C202.039 99.4793 202.091 99.8667 202.091 100.296V105H200.915V104.006ZM200.887 101.374L199.725 101.416C199.23 101.435 198.819 101.481 198.493 101.556C198.166 101.631 197.905 101.733 197.709 101.864C197.522 101.985 197.387 102.139 197.303 102.326C197.228 102.513 197.191 102.727 197.191 102.97C197.191 103.334 197.298 103.628 197.513 103.852C197.737 104.067 198.101 104.174 198.605 104.174C199.323 104.174 199.883 103.997 200.285 103.642C200.686 103.287 200.887 102.802 200.887 102.186V101.374ZM51.358 122.728H50.238V121.762H51.358V119.788H52.576V121.762H54.494V122.728H52.576V126.97C52.576 127.325 52.6553 127.609 52.814 127.824C52.9727 128.039 53.2153 128.146 53.542 128.146C53.7473 128.146 53.9247 128.132 54.074 128.104C54.2327 128.076 54.3773 128.039 54.508 127.992L54.718 128.93C54.5313 128.995 54.326 129.047 54.102 129.084C53.8873 129.131 53.6307 129.154 53.332 129.154C52.9213 129.154 52.59 129.093 52.338 128.972C52.086 128.851 51.8853 128.678 51.736 128.454C51.5867 128.23 51.484 127.964 51.428 127.656C51.3813 127.348 51.358 127.012 51.358 126.648V122.728ZM55.7915 119.004H57.0095V122.84C57.3642 122.383 57.7515 122.051 58.1715 121.846C58.6008 121.641 59.0535 121.538 59.5295 121.538C60.3508 121.538 60.9575 121.762 61.3495 122.21C61.7508 122.658 61.9515 123.316 61.9515 124.184V129H60.7195V124.422C60.7195 123.75 60.5982 123.279 60.3555 123.008C60.1222 122.728 59.7535 122.588 59.2495 122.588C58.9788 122.588 58.7082 122.635 58.4375 122.728C58.1762 122.821 57.9382 122.971 57.7235 123.176C57.4902 123.381 57.3128 123.601 57.1915 123.834C57.0702 124.058 57.0095 124.352 57.0095 124.716V129H55.7915V119.004ZM70.0339 126.97C69.9126 127.67 69.5999 128.221 69.0959 128.622C68.6012 129.023 67.8872 129.224 66.9539 129.224C65.8526 129.224 65.0079 128.893 64.4199 128.23C63.8319 127.558 63.5379 126.625 63.5379 125.43C63.5379 124.805 63.6219 124.249 63.7899 123.764C63.9579 123.279 64.1912 122.873 64.4899 122.546C64.7979 122.219 65.1619 121.972 65.5819 121.804C66.0019 121.627 66.4592 121.538 66.9539 121.538C67.5139 121.538 67.9946 121.627 68.3959 121.804C68.7972 121.981 69.1239 122.229 69.3759 122.546C69.6372 122.854 69.8286 123.223 69.9499 123.652C70.0806 124.081 70.1459 124.553 70.1459 125.066V125.682H64.7699C64.7699 126.046 64.8166 126.387 64.9099 126.704C65.0126 127.012 65.1526 127.283 65.3299 127.516C65.5166 127.74 65.7452 127.917 66.0159 128.048C66.2866 128.179 66.5992 128.244 66.9539 128.244C67.5606 128.244 68.0039 128.132 68.2839 127.908C68.5639 127.675 68.7552 127.362 68.8579 126.97H70.0339ZM68.9279 124.772C68.9279 124.427 68.8906 124.114 68.8159 123.834C68.7412 123.554 68.6246 123.316 68.4659 123.12C68.3072 122.915 68.1019 122.756 67.8499 122.644C67.5979 122.532 67.2946 122.476 66.9399 122.476C66.2959 122.476 65.7919 122.672 65.4279 123.064C65.0732 123.456 64.8632 124.025 64.7979 124.772H68.9279ZM71.7603 121.762H72.9643V122.868C73.2909 122.42 73.6503 122.089 74.0423 121.874C74.4343 121.65 74.8356 121.538 75.2463 121.538C75.7876 121.538 76.2216 121.655 76.5483 121.888C76.8843 122.121 77.1316 122.457 77.2903 122.896C77.6169 122.448 77.9903 122.112 78.4103 121.888C78.8303 121.655 79.2783 121.538 79.7543 121.538C80.4636 121.538 81.0096 121.734 81.3923 122.126C81.7843 122.509 81.9803 123.129 81.9803 123.988V129H80.7623V124.268C80.7623 123.941 80.7343 123.671 80.6783 123.456C80.6223 123.232 80.5383 123.059 80.4263 122.938C80.3236 122.807 80.1929 122.719 80.0343 122.672C79.8756 122.616 79.6936 122.588 79.4883 122.588C79.2736 122.588 79.0496 122.625 78.8163 122.7C78.5829 122.775 78.3543 122.905 78.1303 123.092C77.9436 123.251 77.7896 123.442 77.6683 123.666C77.5469 123.89 77.4863 124.147 77.4863 124.436V129H76.2683V124.282C76.2683 123.647 76.1563 123.209 75.9323 122.966C75.7176 122.714 75.4049 122.588 74.9943 122.588C74.5183 122.588 74.0703 122.784 73.6503 123.176C73.4916 123.325 73.3376 123.517 73.1883 123.75C73.0483 123.983 72.9783 124.296 72.9783 124.688V129H71.7603V121.762ZM84.6029 126.886C84.6869 127.39 84.8969 127.745 85.2329 127.95C85.5782 128.146 86.0449 128.244 86.6329 128.244C87.2489 128.244 87.6829 128.141 87.9349 127.936C88.1962 127.721 88.3269 127.441 88.3269 127.096C88.3269 126.956 88.3082 126.825 88.2709 126.704C88.2429 126.573 88.1822 126.461 88.0889 126.368C87.9955 126.265 87.8649 126.177 87.6969 126.102C87.5289 126.027 87.3095 125.967 87.0389 125.92L86.1149 125.78C85.7042 125.715 85.3449 125.631 85.0369 125.528C84.7289 125.425 84.4675 125.295 84.2529 125.136C84.0382 124.968 83.8749 124.767 83.7629 124.534C83.6602 124.291 83.6089 124.002 83.6089 123.666C83.6089 123.33 83.6789 123.031 83.8189 122.77C83.9682 122.509 84.1689 122.289 84.4209 122.112C84.6822 121.925 84.9855 121.785 85.3309 121.692C85.6855 121.589 86.0682 121.538 86.4789 121.538C87.0015 121.538 87.4355 121.589 87.7809 121.692C88.1355 121.795 88.4249 121.935 88.6489 122.112C88.8729 122.289 89.0455 122.499 89.1669 122.742C89.2882 122.985 89.3815 123.241 89.4469 123.512L88.3409 123.694C88.2755 123.498 88.2009 123.325 88.1169 123.176C88.0329 123.027 87.9209 122.905 87.7809 122.812C87.6409 122.709 87.4682 122.635 87.2629 122.588C87.0669 122.532 86.8195 122.504 86.5209 122.504C86.1849 122.504 85.9049 122.537 85.6809 122.602C85.4569 122.658 85.2749 122.737 85.1349 122.84C85.0042 122.943 84.9109 123.059 84.8549 123.19C84.7989 123.311 84.7709 123.442 84.7709 123.582C84.7709 123.731 84.7895 123.867 84.8269 123.988C84.8642 124.1 84.9342 124.203 85.0369 124.296C85.1395 124.38 85.2795 124.455 85.4569 124.52C85.6342 124.585 85.8629 124.641 86.1429 124.688L87.1929 124.856C88.0422 124.996 88.6489 125.239 89.0129 125.584C89.3862 125.929 89.5729 126.433 89.5729 127.096C89.5729 127.404 89.5122 127.689 89.3909 127.95C89.2695 128.202 89.0875 128.426 88.8449 128.622C88.6022 128.809 88.2989 128.953 87.9349 129.056C87.5709 129.168 87.1462 129.224 86.6609 129.224C86.2222 129.224 85.8115 129.182 85.4289 129.098C85.0555 129.014 84.7242 128.883 84.4349 128.706C84.1455 128.519 83.9122 128.277 83.7349 127.978C83.5575 127.679 83.4549 127.315 83.4269 126.886H84.6029ZM97.3913 126.97C97.27 127.67 96.9573 128.221 96.4533 128.622C95.9586 129.023 95.2446 129.224 94.3113 129.224C93.21 129.224 92.3653 128.893 91.7773 128.23C91.1893 127.558 90.8953 126.625 90.8953 125.43C90.8953 124.805 90.9793 124.249 91.1473 123.764C91.3153 123.279 91.5486 122.873 91.8473 122.546C92.1553 122.219 92.5193 121.972 92.9393 121.804C93.3593 121.627 93.8166 121.538 94.3113 121.538C94.8713 121.538 95.352 121.627 95.7533 121.804C96.1546 121.981 96.4813 122.229 96.7333 122.546C96.9946 122.854 97.186 123.223 97.3073 123.652C97.438 124.081 97.5033 124.553 97.5033 125.066V125.682H92.1273C92.1273 126.046 92.174 126.387 92.2673 126.704C92.37 127.012 92.51 127.283 92.6873 127.516C92.874 127.74 93.1026 127.917 93.3733 128.048C93.644 128.179 93.9566 128.244 94.3113 128.244C94.918 128.244 95.3613 128.132 95.6413 127.908C95.9213 127.675 96.1126 127.362 96.2153 126.97H97.3913ZM96.2853 124.772C96.2853 124.427 96.248 124.114 96.1733 123.834C96.0986 123.554 95.982 123.316 95.8233 123.12C95.6646 122.915 95.4593 122.756 95.2073 122.644C94.9553 122.532 94.652 122.476 94.2973 122.476C93.6533 122.476 93.1493 122.672 92.7853 123.064C92.4306 123.456 92.2206 124.025 92.1553 124.772H96.2853ZM99.1457 119.004H100.364V129H99.1457V119.004ZM101.422 121.762H102.836L104.992 127.642L107.19 121.762H108.534L105.622 129H104.32L101.422 121.762ZM115.684 126.97C115.563 127.67 115.25 128.221 114.746 128.622C114.252 129.023 113.538 129.224 112.604 129.224C111.503 129.224 110.658 128.893 110.07 128.23C109.482 127.558 109.188 126.625 109.188 125.43C109.188 124.805 109.272 124.249 109.44 123.764C109.608 123.279 109.842 122.873 110.14 122.546C110.448 122.219 110.812 121.972 111.232 121.804C111.652 121.627 112.11 121.538 112.604 121.538C113.164 121.538 113.645 121.627 114.046 121.804C114.448 121.981 114.774 122.229 115.026 122.546C115.288 122.854 115.479 123.223 115.6 123.652C115.731 124.081 115.796 124.553 115.796 125.066V125.682H110.42C110.42 126.046 110.467 126.387 110.56 126.704C110.663 127.012 110.803 127.283 110.98 127.516C111.167 127.74 111.396 127.917 111.666 128.048C111.937 128.179 112.25 128.244 112.604 128.244C113.211 128.244 113.654 128.132 113.934 127.908C114.214 127.675 114.406 127.362 114.508 126.97H115.684ZM114.578 124.772C114.578 124.427 114.541 124.114 114.466 123.834C114.392 123.554 114.275 123.316 114.116 123.12C113.958 122.915 113.752 122.756 113.5 122.644C113.248 122.532 112.945 122.476 112.59 122.476C111.946 122.476 111.442 122.672 111.078 123.064C110.724 123.456 110.514 124.025 110.448 124.772H114.578ZM118.195 126.886C118.279 127.39 118.489 127.745 118.825 127.95C119.17 128.146 119.637 128.244 120.225 128.244C120.841 128.244 121.275 128.141 121.527 127.936C121.788 127.721 121.919 127.441 121.919 127.096C121.919 126.956 121.9 126.825 121.863 126.704C121.835 126.573 121.774 126.461 121.681 126.368C121.587 126.265 121.457 126.177 121.289 126.102C121.121 126.027 120.901 125.967 120.631 125.92L119.707 125.78C119.296 125.715 118.937 125.631 118.629 125.528C118.321 125.425 118.059 125.295 117.845 125.136C117.63 124.968 117.467 124.767 117.355 124.534C117.252 124.291 117.201 124.002 117.201 123.666C117.201 123.33 117.271 123.031 117.411 122.77C117.56 122.509 117.761 122.289 118.013 122.112C118.274 121.925 118.577 121.785 118.923 121.692C119.277 121.589 119.66 121.538 120.071 121.538C120.593 121.538 121.027 121.589 121.373 121.692C121.727 121.795 122.017 121.935 122.241 122.112C122.465 122.289 122.637 122.499 122.759 122.742C122.88 122.985 122.973 123.241 123.039 123.512L121.933 123.694C121.867 123.498 121.793 123.325 121.709 123.176C121.625 123.027 121.513 122.905 121.373 122.812C121.233 122.709 121.06 122.635 120.855 122.588C120.659 122.532 120.411 122.504 120.113 122.504C119.777 122.504 119.497 122.537 119.273 122.602C119.049 122.658 118.867 122.737 118.727 122.84C118.596 122.943 118.503 123.059 118.447 123.19C118.391 123.311 118.363 123.442 118.363 123.582C118.363 123.731 118.381 123.867 118.419 123.988C118.456 124.1 118.526 124.203 118.629 124.296C118.731 124.38 118.871 124.455 119.049 124.52C119.226 124.585 119.455 124.641 119.735 124.688L120.785 124.856C121.634 124.996 122.241 125.239 122.605 125.584C122.978 125.929 123.165 126.433 123.165 127.096C123.165 127.404 123.104 127.689 122.983 127.95C122.861 128.202 122.679 128.426 122.437 128.622C122.194 128.809 121.891 128.953 121.527 129.056C121.163 129.168 120.738 129.224 120.253 129.224C119.814 129.224 119.403 129.182 119.021 129.098C118.647 129.014 118.316 128.883 118.027 128.706C117.737 128.519 117.504 128.277 117.327 127.978C117.149 127.679 117.047 127.315 117.019 126.886H118.195ZM127.856 119.004H129.158L128.416 122.014H127.45L127.856 119.004ZM130.096 119.004H131.398L130.656 122.014H129.69L130.096 119.004Z" fill="#333333"/>
<rect width="220" height="21.8557" transform="matrix(1 0 0 -1 30 177.855)" fill="#E3F1FB"/>
<path d="M270 156H250V177.856L270 156Z" fill="#959595"/>
</g>
<defs>
<filter id="filter0_d_4216_15975" x="0" y="0" width="300" height="218" filterUnits="userSpaceOnUse" color-interpolation-filters="sRGB">
<feFlood flood-opacity="0" result="BackgroundImageFix"/>
<feColorMatrix in="SourceAlpha" type="matrix" values="0 0 0 0 0 0 0 0 0 0 0 0 0 0 0 0 0 0 127 0" result="hardAlpha"/>
<feOffset dy="10"/>
<feGaussianBlur stdDeviation="15"/>
<feColorMatrix type="matrix" values="0 0 0 0 0.770833 0 0 0 0 0.639852 0 0 0 0 0.481771 0 0 0 0.3 0"/>
<feBlend mode="normal" in2="BackgroundImageFix" result="effect1_dropShadow_4216_15975"/>
<feBlend mode="normal" in="SourceGraphic" in2="effect1_dropShadow_4216_15975" result="shape"/>
</filter>
</defs>
</svg>
