<svg width="300" height="218" viewBox="0 0 300 218" fill="none" xmlns="http://www.w3.org/2000/svg">
<g filter="url(#filter0_d_4216_15974)">
<rect width="240" height="136" transform="translate(30 20)" fill="#E3F1FB"/>
<path d="M51.4 47.004H52.366L51.96 50.014H50.658L51.4 47.004ZM53.64 47.004H54.606L54.2 50.014H52.898L53.64 47.004ZM56.2603 47.004H57.5483V57H56.2603V47.004ZM62.7095 47.004H63.9275V50.84C64.2822 50.3827 64.6695 50.0513 65.0895 49.846C65.5188 49.6407 65.9715 49.538 66.4475 49.538C67.2688 49.538 67.8755 49.762 68.2675 50.21C68.6688 50.658 68.8695 51.316 68.8695 52.184V57H67.6375V52.422C67.6375 51.75 67.5162 51.2787 67.2735 51.008C67.0402 50.728 66.6715 50.588 66.1675 50.588C65.8968 50.588 65.6262 50.6347 65.3555 50.728C65.0942 50.8213 64.8562 50.9707 64.6415 51.176C64.4082 51.3813 64.2308 51.6007 64.1095 51.834C63.9882 52.058 63.9275 52.352 63.9275 52.716V57H62.7095V47.004ZM75.2019 56.006C74.9405 56.3233 74.6092 56.5987 74.2079 56.832C73.8065 57.056 73.3072 57.168 72.7099 57.168C72.3459 57.168 72.0099 57.1213 71.7019 57.028C71.4032 56.944 71.1419 56.8133 70.9179 56.636C70.7032 56.4493 70.5352 56.2207 70.4139 55.95C70.2925 55.6793 70.2319 55.362 70.2319 54.998C70.2319 54.5033 70.3345 54.102 70.5399 53.794C70.7545 53.486 71.0345 53.2433 71.3799 53.066C71.7345 52.8887 72.1312 52.7627 72.5699 52.688C73.0085 52.6133 73.4612 52.5667 73.9279 52.548L75.1739 52.506V52.226C75.1739 51.61 75.0432 51.1667 74.7819 50.896C74.5205 50.6253 74.0959 50.49 73.5079 50.49C72.9292 50.49 72.5045 50.588 72.2339 50.784C71.9632 50.9707 71.7859 51.232 71.7019 51.568L70.5959 51.442C70.7265 50.7793 71.0392 50.2987 71.5339 50C72.0285 49.692 72.7005 49.538 73.5499 49.538C74.0725 49.538 74.5112 49.6033 74.8659 49.734C75.2299 49.8553 75.5239 50.0327 75.7479 50.266C75.9719 50.4993 76.1305 50.7887 76.2239 51.134C76.3265 51.4793 76.3779 51.8667 76.3779 52.296V57H75.2019V56.006ZM75.1739 53.374L74.0119 53.416C73.5172 53.4347 73.1065 53.4813 72.7799 53.556C72.4532 53.6307 72.1919 53.7333 71.9959 53.864C71.8092 53.9853 71.6739 54.1393 71.5899 54.326C71.5152 54.5127 71.4779 54.7273 71.4779 54.97C71.4779 55.334 71.5852 55.628 71.7999 55.852C72.0239 56.0667 72.3879 56.174 72.8919 56.174C73.6105 56.174 74.1705 55.9967 74.5719 55.642C74.9732 55.2873 75.1739 54.802 75.1739 54.186V53.374ZM77.3871 49.762H78.8011L80.9571 55.642L83.1551 49.762H84.4991L81.5871 57H80.2851L77.3871 49.762ZM91.6491 54.97C91.5278 55.67 91.2151 56.2207 90.7111 56.622C90.2165 57.0233 89.5025 57.224 88.5691 57.224C87.4678 57.224 86.6231 56.8927 86.0351 56.23C85.4471 55.558 85.1531 54.6247 85.1531 53.43C85.1531 52.8047 85.2371 52.2493 85.4051 51.764C85.5731 51.2787 85.8065 50.8727 86.1051 50.546C86.4131 50.2193 86.7771 49.972 87.1971 49.804C87.6171 49.6267 88.0745 49.538 88.5691 49.538C89.1291 49.538 89.6098 49.6267 90.0111 49.804C90.4125 49.9813 90.7391 50.2287 90.9911 50.546C91.2525 50.854 91.4438 51.2227 91.5651 51.652C91.6958 52.0813 91.7611 52.5527 91.7611 53.066V53.682H86.3851C86.3851 54.046 86.4318 54.3867 86.5251 54.704C86.6278 55.012 86.7678 55.2827 86.9451 55.516C87.1318 55.74 87.3605 55.9173 87.6311 56.048C87.9018 56.1787 88.2145 56.244 88.5691 56.244C89.1758 56.244 89.6191 56.132 89.8991 55.908C90.1791 55.6747 90.3705 55.362 90.4731 54.97H91.6491ZM90.5431 52.772C90.5431 52.4267 90.5058 52.114 90.4311 51.834C90.3565 51.554 90.2398 51.316 90.0811 51.12C89.9225 50.9147 89.7171 50.756 89.4651 50.644C89.2131 50.532 88.9098 50.476 88.5551 50.476C87.9111 50.476 87.4071 50.672 87.0431 51.064C86.6885 51.456 86.4785 52.0253 86.4131 52.772H90.5431ZM97.2767 54.886C97.3607 55.39 97.5707 55.7447 97.9067 55.95C98.252 56.146 98.7187 56.244 99.3067 56.244C99.9227 56.244 100.357 56.1413 100.609 55.936C100.87 55.7213 101.001 55.4413 101.001 55.096C101.001 54.956 100.982 54.8253 100.945 54.704C100.917 54.5733 100.856 54.4613 100.763 54.368C100.669 54.2653 100.539 54.1767 100.371 54.102C100.203 54.0273 99.9834 53.9667 99.7127 53.92L98.7887 53.78C98.378 53.7147 98.0187 53.6307 97.7107 53.528C97.4027 53.4253 97.1414 53.2947 96.9267 53.136C96.712 52.968 96.5487 52.7673 96.4367 52.534C96.334 52.2913 96.2827 52.002 96.2827 51.666C96.2827 51.33 96.3527 51.0313 96.4927 50.77C96.642 50.5087 96.8427 50.2893 97.0947 50.112C97.356 49.9253 97.6594 49.7853 98.0047 49.692C98.3594 49.5893 98.742 49.538 99.1527 49.538C99.6754 49.538 100.109 49.5893 100.455 49.692C100.809 49.7947 101.099 49.9347 101.323 50.112C101.547 50.2893 101.719 50.4993 101.841 50.742C101.962 50.9847 102.055 51.2413 102.121 51.512L101.015 51.694C100.949 51.498 100.875 51.3253 100.791 51.176C100.707 51.0267 100.595 50.9053 100.455 50.812C100.315 50.7093 100.142 50.6347 99.9367 50.588C99.7407 50.532 99.4934 50.504 99.1947 50.504C98.8587 50.504 98.5787 50.5367 98.3547 50.602C98.1307 50.658 97.9487 50.7373 97.8087 50.84C97.678 50.9427 97.5847 51.0593 97.5287 51.19C97.4727 51.3113 97.4447 51.442 97.4447 51.582C97.4447 51.7313 97.4634 51.8667 97.5007 51.988C97.538 52.1 97.608 52.2027 97.7107 52.296C97.8134 52.38 97.9534 52.4547 98.1307 52.52C98.308 52.5853 98.5367 52.6413 98.8167 52.688L99.8667 52.856C100.716 52.996 101.323 53.2387 101.687 53.584C102.06 53.9293 102.247 54.4333 102.247 55.096C102.247 55.404 102.186 55.6887 102.065 55.95C101.943 56.202 101.761 56.426 101.519 56.622C101.276 56.8087 100.973 56.9533 100.609 57.056C100.245 57.168 99.82 57.224 99.3347 57.224C98.896 57.224 98.4854 57.182 98.1027 57.098C97.7294 57.014 97.398 56.8833 97.1087 56.706C96.8194 56.5193 96.586 56.2767 96.4087 55.978C96.2314 55.6793 96.1287 55.3153 96.1007 54.886H97.2767ZM107.055 57.224C106.504 57.224 106.014 57.1353 105.585 56.958C105.156 56.7807 104.792 56.5287 104.493 56.202C104.194 55.8753 103.966 55.474 103.807 54.998C103.648 54.522 103.569 53.99 103.569 53.402C103.569 52.814 103.653 52.282 103.821 51.806C103.989 51.33 104.227 50.924 104.535 50.588C104.843 50.252 105.212 49.9953 105.641 49.818C106.08 49.6313 106.565 49.538 107.097 49.538C107.638 49.538 108.124 49.6267 108.553 49.804C108.982 49.9813 109.346 50.238 109.645 50.574C109.953 50.9007 110.186 51.2973 110.345 51.764C110.504 52.2307 110.583 52.758 110.583 53.346C110.583 53.9433 110.499 54.48 110.331 54.956C110.172 55.432 109.939 55.838 109.631 56.174C109.332 56.51 108.964 56.7713 108.525 56.958C108.086 57.1353 107.596 57.224 107.055 57.224ZM107.069 56.216C107.461 56.216 107.797 56.146 108.077 56.006C108.357 55.866 108.586 55.67 108.763 55.418C108.95 55.166 109.085 54.8673 109.169 54.522C109.253 54.1673 109.295 53.78 109.295 53.36C109.295 52.9493 109.253 52.5713 109.169 52.226C109.085 51.8807 108.95 51.5867 108.763 51.344C108.586 51.092 108.357 50.896 108.077 50.756C107.797 50.616 107.461 50.546 107.069 50.546C106.677 50.546 106.341 50.616 106.061 50.756C105.79 50.896 105.562 51.092 105.375 51.344C105.198 51.5867 105.067 51.8807 104.983 52.226C104.899 52.5713 104.857 52.954 104.857 53.374C104.857 53.794 104.899 54.1767 104.983 54.522C105.067 54.8673 105.198 55.166 105.375 55.418C105.552 55.67 105.781 55.866 106.061 56.006C106.341 56.146 106.677 56.216 107.069 56.216ZM112.215 49.762H113.419V50.868C113.746 50.42 114.105 50.0887 114.497 49.874C114.889 49.65 115.291 49.538 115.701 49.538C116.243 49.538 116.677 49.6547 117.003 49.888C117.339 50.1213 117.587 50.4573 117.745 50.896C118.072 50.448 118.445 50.112 118.865 49.888C119.285 49.6547 119.733 49.538 120.209 49.538C120.919 49.538 121.465 49.734 121.847 50.126C122.239 50.5087 122.435 51.1293 122.435 51.988V57H121.217V52.268C121.217 51.9413 121.189 51.6707 121.133 51.456C121.077 51.232 120.993 51.0593 120.881 50.938C120.779 50.8073 120.648 50.7187 120.489 50.672C120.331 50.616 120.149 50.588 119.943 50.588C119.729 50.588 119.505 50.6253 119.271 50.7C119.038 50.7747 118.809 50.9053 118.585 51.092C118.399 51.2507 118.245 51.442 118.123 51.666C118.002 51.89 117.941 52.1467 117.941 52.436V57H116.723V52.282C116.723 51.6473 116.611 51.2087 116.387 50.966C116.173 50.714 115.86 50.588 115.449 50.588C114.973 50.588 114.525 50.784 114.105 51.176C113.947 51.3253 113.793 51.5167 113.643 51.75C113.503 51.9833 113.433 52.296 113.433 52.688V57H112.215V49.762ZM130.532 54.97C130.411 55.67 130.098 56.2207 129.594 56.622C129.099 57.0233 128.385 57.224 127.452 57.224C126.351 57.224 125.506 56.8927 124.918 56.23C124.33 55.558 124.036 54.6247 124.036 53.43C124.036 52.8047 124.12 52.2493 124.288 51.764C124.456 51.2787 124.689 50.8727 124.988 50.546C125.296 50.2193 125.66 49.972 126.08 49.804C126.5 49.6267 126.957 49.538 127.452 49.538C128.012 49.538 128.493 49.6267 128.894 49.804C129.295 49.9813 129.622 50.2287 129.874 50.546C130.135 50.854 130.327 51.2227 130.448 51.652C130.579 52.0813 130.644 52.5527 130.644 53.066V53.682H125.268C125.268 54.046 125.315 54.3867 125.408 54.704C125.511 55.012 125.651 55.2827 125.828 55.516C126.015 55.74 126.243 55.9173 126.514 56.048C126.785 56.1787 127.097 56.244 127.452 56.244C128.059 56.244 128.502 56.132 128.782 55.908C129.062 55.6747 129.253 55.362 129.356 54.97H130.532ZM129.426 52.772C129.426 52.4267 129.389 52.114 129.314 51.834C129.239 51.554 129.123 51.316 128.964 51.12C128.805 50.9147 128.6 50.756 128.348 50.644C128.096 50.532 127.793 50.476 127.438 50.476C126.794 50.476 126.29 50.672 125.926 51.064C125.571 51.456 125.361 52.0253 125.296 52.772H129.426ZM135.404 49.762H136.622V57H135.404V49.762ZM135.361 47.004H136.664V48.418H135.361V47.004ZM138.52 49.762H139.724V50.868C140.079 50.392 140.471 50.0513 140.9 49.846C141.329 49.6407 141.782 49.538 142.258 49.538C143.079 49.538 143.686 49.762 144.078 50.21C144.479 50.658 144.68 51.316 144.68 52.184V57H143.462V52.422C143.462 51.75 143.341 51.2787 143.098 51.008C142.855 50.728 142.482 50.588 141.978 50.588C141.707 50.588 141.437 50.6347 141.166 50.728C140.905 50.8213 140.667 50.9707 140.452 51.176C140.219 51.3813 140.041 51.6007 139.92 51.834C139.799 52.058 139.738 52.352 139.738 52.716V57H138.52V49.762ZM145.555 49.762H146.969L149.125 55.642L151.323 49.762H152.667L149.755 57H148.453L145.555 49.762ZM159.817 54.97C159.696 55.67 159.383 56.2207 158.879 56.622C158.384 57.0233 157.67 57.224 156.737 57.224C155.636 57.224 154.791 56.8927 154.203 56.23C153.615 55.558 153.321 54.6247 153.321 53.43C153.321 52.8047 153.405 52.2493 153.573 51.764C153.741 51.2787 153.974 50.8727 154.273 50.546C154.581 50.2193 154.945 49.972 155.365 49.804C155.785 49.6267 156.242 49.538 156.737 49.538C157.297 49.538 157.778 49.6267 158.179 49.804C158.58 49.9813 158.907 50.2287 159.159 50.546C159.42 50.854 159.612 51.2227 159.733 51.652C159.864 52.0813 159.929 52.5527 159.929 53.066V53.682H154.553C154.553 54.046 154.6 54.3867 154.693 54.704C154.796 55.012 154.936 55.2827 155.113 55.516C155.3 55.74 155.528 55.9173 155.799 56.048C156.07 56.1787 156.382 56.244 156.737 56.244C157.344 56.244 157.787 56.132 158.067 55.908C158.347 55.6747 158.538 55.362 158.641 54.97H159.817ZM158.711 52.772C158.711 52.4267 158.674 52.114 158.599 51.834C158.524 51.554 158.408 51.316 158.249 51.12C158.09 50.9147 157.885 50.756 157.633 50.644C157.381 50.532 157.078 50.476 156.723 50.476C156.079 50.476 155.575 50.672 155.211 51.064C154.856 51.456 154.646 52.0253 154.581 52.772H158.711ZM162.327 54.886C162.411 55.39 162.621 55.7447 162.957 55.95C163.303 56.146 163.769 56.244 164.357 56.244C164.973 56.244 165.407 56.1413 165.659 55.936C165.921 55.7213 166.051 55.4413 166.051 55.096C166.051 54.956 166.033 54.8253 165.995 54.704C165.967 54.5733 165.907 54.4613 165.813 54.368C165.72 54.2653 165.589 54.1767 165.421 54.102C165.253 54.0273 165.034 53.9667 164.763 53.92L163.839 53.78C163.429 53.7147 163.069 53.6307 162.761 53.528C162.453 53.4253 162.192 53.2947 161.977 53.136C161.763 52.968 161.599 52.7673 161.487 52.534C161.385 52.2913 161.333 52.002 161.333 51.666C161.333 51.33 161.403 51.0313 161.543 50.77C161.693 50.5087 161.893 50.2893 162.145 50.112C162.407 49.9253 162.71 49.7853 163.055 49.692C163.41 49.5893 163.793 49.538 164.203 49.538C164.726 49.538 165.16 49.5893 165.505 49.692C165.86 49.7947 166.149 49.9347 166.373 50.112C166.597 50.2893 166.77 50.4993 166.891 50.742C167.013 50.9847 167.106 51.2413 167.171 51.512L166.065 51.694C166 51.498 165.925 51.3253 165.841 51.176C165.757 51.0267 165.645 50.9053 165.505 50.812C165.365 50.7093 165.193 50.6347 164.987 50.588C164.791 50.532 164.544 50.504 164.245 50.504C163.909 50.504 163.629 50.5367 163.405 50.602C163.181 50.658 162.999 50.7373 162.859 50.84C162.729 50.9427 162.635 51.0593 162.579 51.19C162.523 51.3113 162.495 51.442 162.495 51.582C162.495 51.7313 162.514 51.8667 162.551 51.988C162.589 52.1 162.659 52.2027 162.761 52.296C162.864 52.38 163.004 52.4547 163.181 52.52C163.359 52.5853 163.587 52.6413 163.867 52.688L164.917 52.856C165.767 52.996 166.373 53.2387 166.737 53.584C167.111 53.9293 167.297 54.4333 167.297 55.096C167.297 55.404 167.237 55.6887 167.115 55.95C166.994 56.202 166.812 56.426 166.569 56.622C166.327 56.8087 166.023 56.9533 165.659 57.056C165.295 57.168 164.871 57.224 164.385 57.224C163.947 57.224 163.536 57.182 163.153 57.098C162.78 57.014 162.449 56.8833 162.159 56.706C161.87 56.5193 161.637 56.2767 161.459 55.978C161.282 55.6793 161.179 55.3153 161.151 54.886H162.327ZM169.278 50.728H168.158V49.762H169.278V47.788H170.496V49.762H172.414V50.728H170.496V54.97C170.496 55.3247 170.575 55.6093 170.734 55.824C170.893 56.0387 171.135 56.146 171.462 56.146C171.667 56.146 171.845 56.132 171.994 56.104C172.153 56.076 172.297 56.0387 172.428 55.992L172.638 56.93C172.451 56.9953 172.246 57.0467 172.022 57.084C171.807 57.1307 171.551 57.154 171.252 57.154C170.841 57.154 170.51 57.0933 170.258 56.972C170.006 56.8507 169.805 56.678 169.656 56.454C169.507 56.23 169.404 55.964 169.348 55.656C169.301 55.348 169.278 55.012 169.278 54.648V50.728ZM173.711 49.762H174.915V50.868C175.242 50.42 175.601 50.0887 175.993 49.874C176.385 49.65 176.787 49.538 177.197 49.538C177.739 49.538 178.173 49.6547 178.499 49.888C178.835 50.1213 179.083 50.4573 179.241 50.896C179.568 50.448 179.941 50.112 180.361 49.888C180.781 49.6547 181.229 49.538 181.705 49.538C182.415 49.538 182.961 49.734 183.343 50.126C183.735 50.5087 183.931 51.1293 183.931 51.988V57H182.713V52.268C182.713 51.9413 182.685 51.6707 182.629 51.456C182.573 51.232 182.489 51.0593 182.377 50.938C182.275 50.8073 182.144 50.7187 181.985 50.672C181.827 50.616 181.645 50.588 181.439 50.588C181.225 50.588 181.001 50.6253 180.767 50.7C180.534 50.7747 180.305 50.9053 180.081 51.092C179.895 51.2507 179.741 51.442 179.619 51.666C179.498 51.89 179.437 52.1467 179.437 52.436V57H178.219V52.282C178.219 51.6473 178.107 51.2087 177.883 50.966C177.669 50.714 177.356 50.588 176.945 50.588C176.469 50.588 176.021 50.784 175.601 51.176C175.443 51.3253 175.289 51.5167 175.139 51.75C174.999 51.9833 174.929 52.296 174.929 52.688V57H173.711V49.762ZM192.028 54.97C191.907 55.67 191.594 56.2207 191.09 56.622C190.595 57.0233 189.881 57.224 188.948 57.224C187.847 57.224 187.002 56.8927 186.414 56.23C185.826 55.558 185.532 54.6247 185.532 53.43C185.532 52.8047 185.616 52.2493 185.784 51.764C185.952 51.2787 186.185 50.8727 186.484 50.546C186.792 50.2193 187.156 49.972 187.576 49.804C187.996 49.6267 188.453 49.538 188.948 49.538C189.508 49.538 189.989 49.6267 190.39 49.804C190.791 49.9813 191.118 50.2287 191.37 50.546C191.631 50.854 191.823 51.2227 191.944 51.652C192.075 52.0813 192.14 52.5527 192.14 53.066V53.682H186.764C186.764 54.046 186.811 54.3867 186.904 54.704C187.007 55.012 187.147 55.2827 187.324 55.516C187.511 55.74 187.739 55.9173 188.01 56.048C188.281 56.1787 188.593 56.244 188.948 56.244C189.555 56.244 189.998 56.132 190.278 55.908C190.558 55.6747 190.749 55.362 190.852 54.97H192.028ZM190.922 52.772C190.922 52.4267 190.885 52.114 190.81 51.834C190.735 51.554 190.619 51.316 190.46 51.12C190.301 50.9147 190.096 50.756 189.844 50.644C189.592 50.532 189.289 50.476 188.934 50.476C188.29 50.476 187.786 50.672 187.422 51.064C187.067 51.456 186.857 52.0253 186.792 52.772H190.922ZM193.754 49.762H194.958V50.868C195.313 50.392 195.705 50.0513 196.134 49.846C196.564 49.6407 197.016 49.538 197.492 49.538C198.314 49.538 198.92 49.762 199.312 50.21C199.714 50.658 199.914 51.316 199.914 52.184V57H198.696V52.422C198.696 51.75 198.575 51.2787 198.332 51.008C198.09 50.728 197.716 50.588 197.212 50.588C196.942 50.588 196.671 50.6347 196.4 50.728C196.139 50.8213 195.901 50.9707 195.686 51.176C195.453 51.3813 195.276 51.6007 195.154 51.834C195.033 52.058 194.972 52.352 194.972 52.716V57H193.754V49.762ZM202.159 50.728H201.039V49.762H202.159V47.788H203.377V49.762H205.295V50.728H203.377V54.97C203.377 55.3247 203.456 55.6093 203.615 55.824C203.773 56.0387 204.016 56.146 204.343 56.146C204.548 56.146 204.725 56.132 204.875 56.104C205.033 56.076 205.178 56.0387 205.309 55.992L205.519 56.93C205.332 56.9953 205.127 57.0467 204.903 57.084C204.688 57.1307 204.431 57.154 204.133 57.154C203.722 57.154 203.391 57.0933 203.139 56.972C202.887 56.8507 202.686 56.678 202.537 56.454C202.387 56.23 202.285 55.964 202.229 55.656C202.182 55.348 202.159 55.012 202.159 54.648V50.728ZM207.376 54.886C207.46 55.39 207.67 55.7447 208.006 55.95C208.352 56.146 208.818 56.244 209.406 56.244C210.022 56.244 210.456 56.1413 210.708 55.936C210.97 55.7213 211.1 55.4413 211.1 55.096C211.1 54.956 211.082 54.8253 211.044 54.704C211.016 54.5733 210.956 54.4613 210.862 54.368C210.769 54.2653 210.638 54.1767 210.47 54.102C210.302 54.0273 210.083 53.9667 209.812 53.92L208.888 53.78C208.478 53.7147 208.118 53.6307 207.81 53.528C207.502 53.4253 207.241 53.2947 207.026 53.136C206.812 52.968 206.648 52.7673 206.536 52.534C206.434 52.2913 206.382 52.002 206.382 51.666C206.382 51.33 206.452 51.0313 206.592 50.77C206.742 50.5087 206.942 50.2893 207.194 50.112C207.456 49.9253 207.759 49.7853 208.104 49.692C208.459 49.5893 208.842 49.538 209.252 49.538C209.775 49.538 210.209 49.5893 210.554 49.692C210.909 49.7947 211.198 49.9347 211.422 50.112C211.646 50.2893 211.819 50.4993 211.94 50.742C212.062 50.9847 212.155 51.2413 212.22 51.512L211.114 51.694C211.049 51.498 210.974 51.3253 210.89 51.176C210.806 51.0267 210.694 50.9053 210.554 50.812C210.414 50.7093 210.242 50.6347 210.036 50.588C209.84 50.532 209.593 50.504 209.294 50.504C208.958 50.504 208.678 50.5367 208.454 50.602C208.23 50.658 208.048 50.7373 207.908 50.84C207.778 50.9427 207.684 51.0593 207.628 51.19C207.572 51.3113 207.544 51.442 207.544 51.582C207.544 51.7313 207.563 51.8667 207.6 51.988C207.638 52.1 207.708 52.2027 207.81 52.296C207.913 52.38 208.053 52.4547 208.23 52.52C208.408 52.5853 208.636 52.6413 208.916 52.688L209.966 52.856C210.816 52.996 211.422 53.2387 211.786 53.584C212.16 53.9293 212.346 54.4333 212.346 55.096C212.346 55.404 212.286 55.6887 212.164 55.95C212.043 56.202 211.861 56.426 211.618 56.622C211.376 56.8087 211.072 56.9533 210.708 57.056C210.344 57.168 209.92 57.224 209.434 57.224C208.996 57.224 208.585 57.182 208.202 57.098C207.829 57.014 207.498 56.8833 207.208 56.706C206.919 56.5193 206.686 56.2767 206.508 55.978C206.331 55.6793 206.228 55.3153 206.2 54.886H207.376ZM217.052 49.762H218.27V57H217.052V49.762ZM217.01 47.004H218.312V48.418H217.01V47.004ZM220.168 49.762H221.372V50.868C221.727 50.392 222.119 50.0513 222.548 49.846C222.978 49.6407 223.43 49.538 223.906 49.538C224.728 49.538 225.334 49.762 225.726 50.21C226.128 50.658 226.328 51.316 226.328 52.184V57H225.11V52.422C225.11 51.75 224.989 51.2787 224.746 51.008C224.504 50.728 224.13 50.588 223.626 50.588C223.356 50.588 223.085 50.6347 222.814 50.728C222.553 50.8213 222.315 50.9707 222.1 51.176C221.867 51.3813 221.69 51.6007 221.568 51.834C221.447 52.058 221.386 52.352 221.386 52.716V57H220.168V49.762ZM51.722 78.886C51.806 79.39 52.016 79.7447 52.352 79.95C52.6973 80.146 53.164 80.244 53.752 80.244C54.368 80.244 54.802 80.1413 55.054 79.936C55.3153 79.7213 55.446 79.4413 55.446 79.096C55.446 78.956 55.4273 78.8253 55.39 78.704C55.362 78.5733 55.3013 78.4613 55.208 78.368C55.1147 78.2653 54.984 78.1767 54.816 78.102C54.648 78.0273 54.4287 77.9667 54.158 77.92L53.234 77.78C52.8233 77.7147 52.464 77.6307 52.156 77.528C51.848 77.4253 51.5867 77.2947 51.372 77.136C51.1573 76.968 50.994 76.7673 50.882 76.534C50.7793 76.2913 50.728 76.002 50.728 75.666C50.728 75.33 50.798 75.0313 50.938 74.77C51.0873 74.5087 51.288 74.2893 51.54 74.112C51.8013 73.9253 52.1047 73.7853 52.45 73.692C52.8047 73.5893 53.1873 73.538 53.598 73.538C54.1207 73.538 54.5547 73.5893 54.9 73.692C55.2547 73.7947 55.544 73.9347 55.768 74.112C55.992 74.2893 56.1647 74.4993 56.286 74.742C56.4073 74.9847 56.5007 75.2413 56.566 75.512L55.46 75.694C55.3947 75.498 55.32 75.3253 55.236 75.176C55.152 75.0267 55.04 74.9053 54.9 74.812C54.76 74.7093 54.5873 74.6347 54.382 74.588C54.186 74.532 53.9387 74.504 53.64 74.504C53.304 74.504 53.024 74.5367 52.8 74.602C52.576 74.658 52.394 74.7373 52.254 74.84C52.1233 74.9427 52.03 75.0593 51.974 75.19C51.918 75.3113 51.89 75.442 51.89 75.582C51.89 75.7313 51.9087 75.8667 51.946 75.988C51.9833 76.1 52.0533 76.2027 52.156 76.296C52.2587 76.38 52.3987 76.4547 52.576 76.52C52.7533 76.5853 52.982 76.6413 53.262 76.688L54.312 76.856C55.1613 76.996 55.768 77.2387 56.132 77.584C56.5053 77.9293 56.692 78.4333 56.692 79.096C56.692 79.404 56.6313 79.6887 56.51 79.95C56.3887 80.202 56.2067 80.426 55.964 80.622C55.7213 80.8087 55.418 80.9533 55.054 81.056C54.69 81.168 54.2653 81.224 53.78 81.224C53.3413 81.224 52.9307 81.182 52.548 81.098C52.1747 81.014 51.8433 80.8833 51.554 80.706C51.2647 80.5193 51.0313 80.2767 50.854 79.978C50.6767 79.6793 50.574 79.3153 50.546 78.886H51.722ZM61.5005 81.224C60.9498 81.224 60.4598 81.1353 60.0305 80.958C59.6011 80.7807 59.2371 80.5287 58.9385 80.202C58.6398 79.8753 58.4111 79.474 58.2525 78.998C58.0938 78.522 58.0145 77.99 58.0145 77.402C58.0145 76.814 58.0985 76.282 58.2665 75.806C58.4345 75.33 58.6725 74.924 58.9805 74.588C59.2885 74.252 59.6571 73.9953 60.0865 73.818C60.5251 73.6313 61.0105 73.538 61.5425 73.538C62.0838 73.538 62.5691 73.6267 62.9985 73.804C63.4278 73.9813 63.7918 74.238 64.0905 74.574C64.3985 74.9007 64.6318 75.2973 64.7905 75.764C64.9491 76.2307 65.0285 76.758 65.0285 77.346C65.0285 77.9433 64.9445 78.48 64.7765 78.956C64.6178 79.432 64.3845 79.838 64.0765 80.174C63.7778 80.51 63.4091 80.7713 62.9705 80.958C62.5318 81.1353 62.0418 81.224 61.5005 81.224ZM61.5145 80.216C61.9065 80.216 62.2425 80.146 62.5225 80.006C62.8025 79.866 63.0311 79.67 63.2085 79.418C63.3951 79.166 63.5305 78.8673 63.6145 78.522C63.6985 78.1673 63.7405 77.78 63.7405 77.36C63.7405 76.9493 63.6985 76.5713 63.6145 76.226C63.5305 75.8807 63.3951 75.5867 63.2085 75.344C63.0311 75.092 62.8025 74.896 62.5225 74.756C62.2425 74.616 61.9065 74.546 61.5145 74.546C61.1225 74.546 60.7865 74.616 60.5065 74.756C60.2358 74.896 60.0071 75.092 59.8205 75.344C59.6431 75.5867 59.5125 75.8807 59.4285 76.226C59.3445 76.5713 59.3025 76.954 59.3025 77.374C59.3025 77.794 59.3445 78.1767 59.4285 78.522C59.5125 78.8673 59.6431 79.166 59.8205 79.418C59.9978 79.67 60.2265 79.866 60.5065 80.006C60.7865 80.146 61.1225 80.216 61.5145 80.216ZM66.6607 73.762H67.8647V74.868C68.1913 74.42 68.5507 74.0887 68.9427 73.874C69.3347 73.65 69.736 73.538 70.1467 73.538C70.688 73.538 71.122 73.6547 71.4487 73.888C71.7847 74.1213 72.032 74.4573 72.1907 74.896C72.5173 74.448 72.8907 74.112 73.3107 73.888C73.7307 73.6547 74.1787 73.538 74.6547 73.538C75.364 73.538 75.91 73.734 76.2927 74.126C76.6847 74.5087 76.8807 75.1293 76.8807 75.988V81H75.6627V76.268C75.6627 75.9413 75.6347 75.6707 75.5787 75.456C75.5227 75.232 75.4387 75.0593 75.3267 74.938C75.224 74.8073 75.0933 74.7187 74.9347 74.672C74.776 74.616 74.594 74.588 74.3887 74.588C74.174 74.588 73.95 74.6253 73.7167 74.7C73.4833 74.7747 73.2547 74.9053 73.0307 75.092C72.844 75.2507 72.69 75.442 72.5687 75.666C72.4473 75.89 72.3867 76.1467 72.3867 76.436V81H71.1687V76.282C71.1687 75.6473 71.0567 75.2087 70.8327 74.966C70.618 74.714 70.3053 74.588 69.8947 74.588C69.4187 74.588 68.9707 74.784 68.5507 75.176C68.392 75.3253 68.238 75.5167 68.0887 75.75C67.9487 75.9833 67.8787 76.296 67.8787 76.688V81H66.6607V73.762ZM84.9772 78.97C84.8559 79.67 84.5433 80.2207 84.0393 80.622C83.5446 81.0233 82.8306 81.224 81.8972 81.224C80.7959 81.224 79.9513 80.8927 79.3633 80.23C78.7753 79.558 78.4813 78.6247 78.4813 77.43C78.4813 76.8047 78.5653 76.2493 78.7333 75.764C78.9013 75.2787 79.1346 74.8727 79.4333 74.546C79.7413 74.2193 80.1053 73.972 80.5253 73.804C80.9453 73.6267 81.4026 73.538 81.8972 73.538C82.4573 73.538 82.9379 73.6267 83.3393 73.804C83.7406 73.9813 84.0673 74.2287 84.3193 74.546C84.5806 74.854 84.7719 75.2227 84.8933 75.652C85.0239 76.0813 85.0893 76.5527 85.0893 77.066V77.682H79.7133C79.7133 78.046 79.7599 78.3867 79.8533 78.704C79.9559 79.012 80.0959 79.2827 80.2733 79.516C80.4599 79.74 80.6886 79.9173 80.9593 80.048C81.2299 80.1787 81.5426 80.244 81.8972 80.244C82.5039 80.244 82.9473 80.132 83.2273 79.908C83.5073 79.6747 83.6986 79.362 83.8013 78.97H84.9772ZM83.8713 76.772C83.8713 76.4267 83.8339 76.114 83.7593 75.834C83.6846 75.554 83.5679 75.316 83.4093 75.12C83.2506 74.9147 83.0453 74.756 82.7933 74.644C82.5413 74.532 82.2379 74.476 81.8833 74.476C81.2393 74.476 80.7353 74.672 80.3713 75.064C80.0166 75.456 79.8066 76.0253 79.7413 76.772H83.8713ZM92.9288 71.004H94.2868L98.1648 81H96.7648L95.7148 78.214H91.4308L90.3808 81H89.0368L92.9288 71.004ZM95.3228 77.094L93.5588 72.46L91.8228 77.094H95.3228ZM99.6884 74.728H98.5544V73.762H99.6884V73.132C99.6884 72.74 99.7444 72.404 99.8564 72.124C99.9777 71.844 100.136 71.6153 100.332 71.438C100.538 71.2513 100.771 71.116 101.032 71.032C101.303 70.9387 101.588 70.892 101.886 70.892C102.101 70.892 102.306 70.906 102.502 70.934C102.698 70.9527 102.904 70.9947 103.118 71.06L102.922 72.012C102.773 71.9653 102.628 71.9373 102.488 71.928C102.358 71.9093 102.227 71.9 102.096 71.9C101.77 71.9 101.49 71.9887 101.256 72.166C101.023 72.334 100.906 72.6467 100.906 73.104V73.762H102.74V74.728H100.906V81H99.6884V74.728ZM103.93 73.762H105.134V74.882C105.405 74.4807 105.722 74.1727 106.086 73.958C106.45 73.7433 106.838 73.636 107.248 73.636C107.5 73.636 107.715 73.6547 107.892 73.692L107.738 74.826C107.645 74.8073 107.552 74.7933 107.458 74.784C107.365 74.7653 107.262 74.756 107.15 74.756C106.926 74.756 106.698 74.798 106.464 74.882C106.231 74.9567 106.012 75.0873 105.806 75.274C105.601 75.4513 105.438 75.6567 105.316 75.89C105.204 76.1233 105.148 76.394 105.148 76.702V81H103.93V73.762ZM109.085 73.762H110.303V81H109.085V73.762ZM109.043 71.004H110.345V72.418H109.043V71.004ZM118.474 78.55C118.352 79.3807 118.035 80.034 117.522 80.51C117.008 80.986 116.285 81.224 115.352 81.224C114.801 81.224 114.311 81.1353 113.882 80.958C113.462 80.7807 113.107 80.5287 112.818 80.202C112.538 79.866 112.323 79.4647 112.174 78.998C112.034 78.522 111.964 77.99 111.964 77.402C111.964 76.8233 112.043 76.296 112.202 75.82C112.36 75.344 112.589 74.938 112.888 74.602C113.186 74.266 113.55 74.0047 113.98 73.818C114.409 73.6313 114.894 73.538 115.436 73.538C116.304 73.538 116.976 73.7527 117.452 74.182C117.928 74.602 118.231 75.1853 118.362 75.932L117.144 76.156C117.097 75.9227 117.032 75.708 116.948 75.512C116.873 75.316 116.766 75.148 116.626 75.008C116.486 74.8587 116.313 74.7467 116.108 74.672C115.912 74.588 115.674 74.546 115.394 74.546C115.011 74.546 114.684 74.6207 114.414 74.77C114.143 74.91 113.919 75.1107 113.742 75.372C113.574 75.624 113.448 75.9227 113.364 76.268C113.289 76.6133 113.252 76.982 113.252 77.374C113.252 77.766 113.289 78.1347 113.364 78.48C113.438 78.8253 113.56 79.1287 113.728 79.39C113.896 79.642 114.115 79.8427 114.386 79.992C114.656 80.1413 114.988 80.216 115.38 80.216C115.968 80.216 116.402 80.0667 116.682 79.768C116.971 79.4693 117.158 79.0633 117.242 78.55H118.474ZM124.53 80.006C124.269 80.3233 123.937 80.5987 123.536 80.832C123.135 81.056 122.635 81.168 122.038 81.168C121.674 81.168 121.338 81.1213 121.03 81.028C120.731 80.944 120.47 80.8133 120.246 80.636C120.031 80.4493 119.863 80.2207 119.742 79.95C119.621 79.6793 119.56 79.362 119.56 78.998C119.56 78.5033 119.663 78.102 119.868 77.794C120.083 77.486 120.363 77.2433 120.708 77.066C121.063 76.8887 121.459 76.7627 121.898 76.688C122.337 76.6133 122.789 76.5667 123.256 76.548L124.502 76.506V76.226C124.502 75.61 124.371 75.1667 124.11 74.896C123.849 74.6253 123.424 74.49 122.836 74.49C122.257 74.49 121.833 74.588 121.562 74.784C121.291 74.9707 121.114 75.232 121.03 75.568L119.924 75.442C120.055 74.7793 120.367 74.2987 120.862 74C121.357 73.692 122.029 73.538 122.878 73.538C123.401 73.538 123.839 73.6033 124.194 73.734C124.558 73.8553 124.852 74.0327 125.076 74.266C125.3 74.4993 125.459 74.7887 125.552 75.134C125.655 75.4793 125.706 75.8667 125.706 76.296V81H124.53V80.006ZM124.502 77.374L123.34 77.416C122.845 77.4347 122.435 77.4813 122.108 77.556C121.781 77.6307 121.52 77.7333 121.324 77.864C121.137 77.9853 121.002 78.1393 120.918 78.326C120.843 78.5127 120.806 78.7273 120.806 78.97C120.806 79.334 120.913 79.628 121.128 79.852C121.352 80.0667 121.716 80.174 122.22 80.174C122.939 80.174 123.499 79.9967 123.9 79.642C124.301 79.2873 124.502 78.802 124.502 78.186V77.374ZM127.555 73.762H128.759V74.868C129.114 74.392 129.506 74.0513 129.935 73.846C130.365 73.6407 130.817 73.538 131.293 73.538C132.115 73.538 132.721 73.762 133.113 74.21C133.515 74.658 133.715 75.316 133.715 76.184V81H132.497V76.422C132.497 75.75 132.376 75.2787 132.133 75.008C131.891 74.728 131.517 74.588 131.013 74.588C130.743 74.588 130.472 74.6347 130.201 74.728C129.94 74.8213 129.702 74.9707 129.487 75.176C129.254 75.3813 129.077 75.6007 128.955 75.834C128.834 76.058 128.773 76.352 128.773 76.716V81H127.555V73.762ZM139.441 78.886C139.525 79.39 139.735 79.7447 140.071 79.95C140.416 80.146 140.883 80.244 141.471 80.244C142.087 80.244 142.521 80.1413 142.773 79.936C143.034 79.7213 143.165 79.4413 143.165 79.096C143.165 78.956 143.146 78.8253 143.109 78.704C143.081 78.5733 143.02 78.4613 142.927 78.368C142.833 78.2653 142.703 78.1767 142.535 78.102C142.367 78.0273 142.147 77.9667 141.877 77.92L140.953 77.78C140.542 77.7147 140.183 77.6307 139.875 77.528C139.567 77.4253 139.305 77.2947 139.091 77.136C138.876 76.968 138.713 76.7673 138.601 76.534C138.498 76.2913 138.447 76.002 138.447 75.666C138.447 75.33 138.517 75.0313 138.657 74.77C138.806 74.5087 139.007 74.2893 139.259 74.112C139.52 73.9253 139.823 73.7853 140.169 73.692C140.523 73.5893 140.906 73.538 141.317 73.538C141.839 73.538 142.273 73.5893 142.619 73.692C142.973 73.7947 143.263 73.9347 143.487 74.112C143.711 74.2893 143.883 74.4993 144.005 74.742C144.126 74.9847 144.219 75.2413 144.285 75.512L143.179 75.694C143.113 75.498 143.039 75.3253 142.955 75.176C142.871 75.0267 142.759 74.9053 142.619 74.812C142.479 74.7093 142.306 74.6347 142.101 74.588C141.905 74.532 141.657 74.504 141.359 74.504C141.023 74.504 140.743 74.5367 140.519 74.602C140.295 74.658 140.113 74.7373 139.973 74.84C139.842 74.9427 139.749 75.0593 139.693 75.19C139.637 75.3113 139.609 75.442 139.609 75.582C139.609 75.7313 139.627 75.8667 139.665 75.988C139.702 76.1 139.772 76.2027 139.875 76.296C139.977 76.38 140.117 76.4547 140.295 76.52C140.472 76.5853 140.701 76.6413 140.981 76.688L142.031 76.856C142.88 76.996 143.487 77.2387 143.851 77.584C144.224 77.9293 144.411 78.4333 144.411 79.096C144.411 79.404 144.35 79.6887 144.229 79.95C144.107 80.202 143.925 80.426 143.683 80.622C143.44 80.8087 143.137 80.9533 142.773 81.056C142.409 81.168 141.984 81.224 141.499 81.224C141.06 81.224 140.649 81.182 140.267 81.098C139.893 81.014 139.562 80.8833 139.273 80.706C138.983 80.5193 138.75 80.2767 138.573 79.978C138.395 79.6793 138.293 79.3153 138.265 78.886H139.441ZM146.391 74.728H145.271V73.762H146.391V71.788H147.609V73.762H149.527V74.728H147.609V78.97C147.609 79.3247 147.689 79.6093 147.847 79.824C148.006 80.0387 148.249 80.146 148.575 80.146C148.781 80.146 148.958 80.132 149.107 80.104C149.266 80.076 149.411 80.0387 149.541 79.992L149.751 80.93C149.565 80.9953 149.359 81.0467 149.135 81.084C148.921 81.1307 148.664 81.154 148.365 81.154C147.955 81.154 147.623 81.0933 147.371 80.972C147.119 80.8507 146.919 80.678 146.769 80.454C146.62 80.23 146.517 79.964 146.461 79.656C146.415 79.348 146.391 79.012 146.391 78.648V74.728ZM155.333 80.006C155.071 80.3233 154.74 80.5987 154.339 80.832C153.937 81.056 153.438 81.168 152.841 81.168C152.477 81.168 152.141 81.1213 151.833 81.028C151.534 80.944 151.273 80.8133 151.049 80.636C150.834 80.4493 150.666 80.2207 150.545 79.95C150.423 79.6793 150.363 79.362 150.363 78.998C150.363 78.5033 150.465 78.102 150.671 77.794C150.885 77.486 151.165 77.2433 151.511 77.066C151.865 76.8887 152.262 76.7627 152.701 76.688C153.139 76.6133 153.592 76.5667 154.059 76.548L155.305 76.506V76.226C155.305 75.61 155.174 75.1667 154.913 74.896C154.651 74.6253 154.227 74.49 153.639 74.49C153.06 74.49 152.635 74.588 152.365 74.784C152.094 74.9707 151.917 75.232 151.833 75.568L150.727 75.442C150.857 74.7793 151.17 74.2987 151.665 74C152.159 73.692 152.831 73.538 153.681 73.538C154.203 73.538 154.642 73.6033 154.997 73.734C155.361 73.8553 155.655 74.0327 155.879 74.266C156.103 74.4993 156.261 74.7887 156.355 75.134C156.457 75.4793 156.509 75.8667 156.509 76.296V81H155.333V80.006ZM155.305 77.374L154.143 77.416C153.648 77.4347 153.237 77.4813 152.911 77.556C152.584 77.6307 152.323 77.7333 152.127 77.864C151.94 77.9853 151.805 78.1393 151.721 78.326C151.646 78.5127 151.609 78.7273 151.609 78.97C151.609 79.334 151.716 79.628 151.931 79.852C152.155 80.0667 152.519 80.174 153.023 80.174C153.741 80.174 154.301 79.9967 154.703 79.642C155.104 79.2873 155.305 78.802 155.305 78.186V77.374ZM158.358 73.762H159.562V74.882C159.833 74.4807 160.15 74.1727 160.514 73.958C160.878 73.7433 161.265 73.636 161.676 73.636C161.928 73.636 162.143 73.6547 162.32 73.692L162.166 74.826C162.073 74.8073 161.979 74.7933 161.886 74.784C161.793 74.7653 161.69 74.756 161.578 74.756C161.354 74.756 161.125 74.798 160.892 74.882C160.659 74.9567 160.439 75.0873 160.234 75.274C160.029 75.4513 159.865 75.6567 159.744 75.89C159.632 76.1233 159.576 76.394 159.576 76.702V81H158.358V73.762ZM164.219 74.728H163.099V73.762H164.219V71.788H165.437V73.762H167.355V74.728H165.437V78.97C165.437 79.3247 165.517 79.6093 165.675 79.824C165.834 80.0387 166.077 80.146 166.403 80.146C166.609 80.146 166.786 80.132 166.935 80.104C167.094 80.076 167.239 80.0387 167.369 79.992L167.579 80.93C167.393 80.9953 167.187 81.0467 166.963 81.084C166.749 81.1307 166.492 81.154 166.193 81.154C165.783 81.154 165.451 81.0933 165.199 80.972C164.947 80.8507 164.747 80.678 164.597 80.454C164.448 80.23 164.345 79.964 164.289 79.656C164.243 79.348 164.219 79.012 164.219 78.648V74.728ZM168.501 73.762H169.719V78.326C169.719 78.998 169.827 79.474 170.041 79.754C170.265 80.034 170.625 80.174 171.119 80.174C171.661 80.174 172.151 79.978 172.589 79.586C172.823 79.3807 173 79.166 173.121 78.942C173.243 78.7087 173.303 78.41 173.303 78.046V73.762H174.521V81H173.317V79.88C172.963 80.3467 172.58 80.6873 172.169 80.902C171.759 81.1167 171.315 81.224 170.839 81.224C170.018 81.224 169.421 81.0047 169.047 80.566C168.683 80.118 168.501 79.4507 168.501 78.564V73.762ZM176.391 73.762H177.595V74.798C177.894 74.3873 178.239 74.0747 178.631 73.86C179.032 73.6453 179.499 73.538 180.031 73.538C180.544 73.538 180.992 73.6313 181.375 73.818C181.767 74.0047 182.089 74.266 182.341 74.602C182.602 74.938 182.794 75.3393 182.915 75.806C183.046 76.2633 183.111 76.772 183.111 77.332C183.111 77.9293 183.036 78.4707 182.887 78.956C182.738 79.432 182.523 79.838 182.243 80.174C181.963 80.51 181.622 80.7713 181.221 80.958C180.829 81.1353 180.386 81.224 179.891 81.224C179.48 81.224 179.074 81.1447 178.673 80.986C178.281 80.818 177.926 80.524 177.609 80.104V83.716H176.391V73.762ZM177.595 77.584C177.595 78.0507 177.646 78.452 177.749 78.788C177.861 79.1147 178.01 79.3853 178.197 79.6C178.384 79.8147 178.608 79.9733 178.869 80.076C179.13 80.1693 179.415 80.216 179.723 80.216C180.022 80.216 180.297 80.1647 180.549 80.062C180.81 79.9593 181.034 79.796 181.221 79.572C181.408 79.3387 181.552 79.04 181.655 78.676C181.767 78.312 181.823 77.8687 181.823 77.346C181.823 76.814 181.762 76.3707 181.641 76.016C181.529 75.652 181.38 75.3627 181.193 75.148C181.006 74.9333 180.792 74.7793 180.549 74.686C180.316 74.5927 180.073 74.546 179.821 74.546C179.504 74.546 179.21 74.602 178.939 74.714C178.668 74.8167 178.43 74.9753 178.225 75.19C178.029 75.3953 177.875 75.6613 177.763 75.988C177.651 76.3053 177.595 76.674 177.595 77.094V77.584ZM185.529 78.886C185.613 79.39 185.823 79.7447 186.159 79.95C186.504 80.146 186.971 80.244 187.559 80.244C188.175 80.244 188.609 80.1413 188.861 79.936C189.122 79.7213 189.253 79.4413 189.253 79.096C189.253 78.956 189.234 78.8253 189.197 78.704C189.169 78.5733 189.108 78.4613 189.015 78.368C188.921 78.2653 188.791 78.1767 188.623 78.102C188.455 78.0273 188.235 77.9667 187.965 77.92L187.041 77.78C186.63 77.7147 186.271 77.6307 185.963 77.528C185.655 77.4253 185.393 77.2947 185.179 77.136C184.964 76.968 184.801 76.7673 184.689 76.534C184.586 76.2913 184.535 76.002 184.535 75.666C184.535 75.33 184.605 75.0313 184.745 74.77C184.894 74.5087 185.095 74.2893 185.347 74.112C185.608 73.9253 185.911 73.7853 186.257 73.692C186.611 73.5893 186.994 73.538 187.405 73.538C187.927 73.538 188.361 73.5893 188.707 73.692C189.061 73.7947 189.351 73.9347 189.575 74.112C189.799 74.2893 189.971 74.4993 190.093 74.742C190.214 74.9847 190.307 75.2413 190.373 75.512L189.267 75.694C189.201 75.498 189.127 75.3253 189.043 75.176C188.959 75.0267 188.847 74.9053 188.707 74.812C188.567 74.7093 188.394 74.6347 188.189 74.588C187.993 74.532 187.745 74.504 187.447 74.504C187.111 74.504 186.831 74.5367 186.607 74.602C186.383 74.658 186.201 74.7373 186.061 74.84C185.93 74.9427 185.837 75.0593 185.781 75.19C185.725 75.3113 185.697 75.442 185.697 75.582C185.697 75.7313 185.715 75.8667 185.753 75.988C185.79 76.1 185.86 76.2027 185.963 76.296C186.065 76.38 186.205 76.4547 186.383 76.52C186.56 76.5853 186.789 76.6413 187.069 76.688L188.119 76.856C188.968 76.996 189.575 77.2387 189.939 77.584C190.312 77.9293 190.499 78.4333 190.499 79.096C190.499 79.404 190.438 79.6887 190.317 79.95C190.195 80.202 190.013 80.426 189.771 80.622C189.528 80.8087 189.225 80.9533 188.861 81.056C188.497 81.168 188.072 81.224 187.587 81.224C187.148 81.224 186.737 81.182 186.355 81.098C185.981 81.014 185.65 80.8833 185.361 80.706C185.071 80.5193 184.838 80.2767 184.661 79.978C184.483 79.6793 184.381 79.3153 184.353 78.886H185.529ZM191.993 79.334H193.281L192.553 82.358H191.573L191.993 79.334ZM198.144 73.762H199.362V81H198.144V73.762ZM198.102 71.004H199.404V72.418H198.102V71.004ZM201.68 74.728H200.56V73.762H201.68V71.788H202.898V73.762H204.816V74.728H202.898V78.97C202.898 79.3247 202.978 79.6093 203.136 79.824C203.295 80.0387 203.538 80.146 203.864 80.146C204.07 80.146 204.247 80.132 204.396 80.104C204.555 80.076 204.7 80.0387 204.83 79.992L205.04 80.93C204.854 80.9953 204.648 81.0467 204.424 81.084C204.21 81.1307 203.953 81.154 203.654 81.154C203.244 81.154 202.912 81.0933 202.66 80.972C202.408 80.8507 202.208 80.678 202.058 80.454C201.909 80.23 201.806 79.964 201.75 79.656C201.704 79.348 201.68 79.012 201.68 78.648V74.728ZM208.405 73.762H209.735L211.191 79.53L212.857 73.804H214.089L215.713 79.53L217.155 73.762H218.443L216.329 81H215.041L213.417 75.232L211.779 81H210.505L208.405 73.762ZM222.747 81.224C222.196 81.224 221.706 81.1353 221.277 80.958C220.847 80.7807 220.483 80.5287 220.185 80.202C219.886 79.8753 219.657 79.474 219.499 78.998C219.34 78.522 219.261 77.99 219.261 77.402C219.261 76.814 219.345 76.282 219.513 75.806C219.681 75.33 219.919 74.924 220.227 74.588C220.535 74.252 220.903 73.9953 221.333 73.818C221.771 73.6313 222.257 73.538 222.789 73.538C223.33 73.538 223.815 73.6267 224.245 73.804C224.674 73.9813 225.038 74.238 225.337 74.574C225.645 74.9007 225.878 75.2973 226.037 75.764C226.195 76.2307 226.275 76.758 226.275 77.346C226.275 77.9433 226.191 78.48 226.023 78.956C225.864 79.432 225.631 79.838 225.323 80.174C225.024 80.51 224.655 80.7713 224.217 80.958C223.778 81.1353 223.288 81.224 222.747 81.224ZM222.761 80.216C223.153 80.216 223.489 80.146 223.769 80.006C224.049 79.866 224.277 79.67 224.455 79.418C224.641 79.166 224.777 78.8673 224.861 78.522C224.945 78.1673 224.987 77.78 224.987 77.36C224.987 76.9493 224.945 76.5713 224.861 76.226C224.777 75.8807 224.641 75.5867 224.455 75.344C224.277 75.092 224.049 74.896 223.769 74.756C223.489 74.616 223.153 74.546 222.761 74.546C222.369 74.546 222.033 74.616 221.753 74.756C221.482 74.896 221.253 75.092 221.067 75.344C220.889 75.5867 220.759 75.8807 220.675 76.226C220.591 76.5713 220.549 76.954 220.549 77.374C220.549 77.794 220.591 78.1767 220.675 78.522C220.759 78.8673 220.889 79.166 221.067 79.418C221.244 79.67 221.473 79.866 221.753 80.006C222.033 80.146 222.369 80.216 222.761 80.216ZM227.865 73.762H229.083V78.326C229.083 78.998 229.19 79.474 229.405 79.754C229.629 80.034 229.988 80.174 230.483 80.174C231.024 80.174 231.514 79.978 231.953 79.586C232.186 79.3807 232.363 79.166 232.485 78.942C232.606 78.7087 232.667 78.41 232.667 78.046V73.762H233.885V81H232.681V79.88C232.326 80.3467 231.943 80.6873 231.533 80.902C231.122 81.1167 230.679 81.224 230.203 81.224C229.381 81.224 228.784 81.0047 228.411 80.566C228.047 80.118 227.865 79.4507 227.865 78.564V73.762ZM235.782 71.004H237V81H235.782V71.004ZM244.163 79.964C243.864 80.3653 243.519 80.678 243.127 80.902C242.735 81.1167 242.273 81.224 241.741 81.224C241.209 81.224 240.747 81.126 240.355 80.93C239.972 80.734 239.655 80.468 239.403 80.132C239.151 79.7867 238.964 79.3807 238.843 78.914C238.722 78.4473 238.661 77.948 238.661 77.416C238.661 76.8187 238.736 76.282 238.885 75.806C239.034 75.3207 239.244 74.91 239.515 74.574C239.795 74.238 240.131 73.9813 240.523 73.804C240.924 73.6267 241.377 73.538 241.881 73.538C242.264 73.538 242.651 73.6173 243.043 73.776C243.435 73.9253 243.799 74.2147 244.135 74.644V71.004H245.353V81H244.163V79.964ZM244.177 77.164C244.177 76.5853 244.112 76.1373 243.981 75.82C243.86 75.4933 243.654 75.218 243.365 74.994C243.16 74.826 242.95 74.7093 242.735 74.644C242.53 74.5787 242.301 74.546 242.049 74.546C241.75 74.546 241.47 74.5973 241.209 74.7C240.957 74.8027 240.733 74.9707 240.537 75.204C240.35 75.428 240.201 75.722 240.089 76.086C239.986 76.4407 239.935 76.8747 239.935 77.388C239.935 77.92 239.991 78.368 240.103 78.732C240.224 79.096 240.378 79.3853 240.565 79.6C240.761 79.8147 240.976 79.9687 241.209 80.062C241.452 80.1553 241.699 80.202 241.951 80.202C242.222 80.202 242.464 80.1693 242.679 80.104C242.894 80.0387 243.108 79.9267 243.323 79.768C243.603 79.544 243.813 79.264 243.953 78.928C244.102 78.592 244.177 78.1673 244.177 77.654V77.164ZM50.938 95.004H52.156V98.77C52.4547 98.378 52.8 98.0747 53.192 97.86C53.584 97.6453 54.046 97.538 54.578 97.538C55.0913 97.538 55.5393 97.6313 55.922 97.818C56.314 98.0047 56.636 98.266 56.888 98.602C57.1493 98.938 57.3407 99.3393 57.462 99.806C57.5927 100.263 57.658 100.772 57.658 101.332C57.658 101.929 57.5833 102.471 57.434 102.956C57.2847 103.432 57.07 103.838 56.79 104.174C56.51 104.51 56.1693 104.771 55.768 104.958C55.376 105.135 54.9327 105.224 54.438 105.224C54.018 105.224 53.6073 105.14 53.206 104.972C52.814 104.795 52.4593 104.496 52.142 104.076V105H50.938V95.004ZM52.142 101.584C52.142 102.051 52.1933 102.452 52.296 102.788C52.408 103.115 52.5573 103.385 52.744 103.6C52.9307 103.815 53.1547 103.973 53.416 104.076C53.6773 104.169 53.962 104.216 54.27 104.216C54.5687 104.216 54.844 104.165 55.096 104.062C55.3573 103.959 55.5813 103.796 55.768 103.572C55.9547 103.339 56.0993 103.04 56.202 102.676C56.314 102.312 56.37 101.869 56.37 101.346C56.37 100.814 56.3093 100.371 56.188 100.016C56.076 99.652 55.9267 99.3627 55.74 99.148C55.5533 98.9333 55.3387 98.7793 55.096 98.686C54.8627 98.5927 54.62 98.546 54.368 98.546C54.0507 98.546 53.7567 98.602 53.486 98.714C53.2153 98.8167 52.9773 98.9753 52.772 99.19C52.576 99.3953 52.422 99.6613 52.31 99.988C52.198 100.305 52.142 100.674 52.142 101.094V101.584ZM65.5495 102.97C65.4282 103.67 65.1155 104.221 64.6115 104.622C64.1168 105.023 63.4028 105.224 62.4695 105.224C61.3682 105.224 60.5235 104.893 59.9355 104.23C59.3475 103.558 59.0535 102.625 59.0535 101.43C59.0535 100.805 59.1375 100.249 59.3055 99.764C59.4735 99.2787 59.7068 98.8727 60.0055 98.546C60.3135 98.2193 60.6775 97.972 61.0975 97.804C61.5175 97.6267 61.9748 97.538 62.4695 97.538C63.0295 97.538 63.5102 97.6267 63.9115 97.804C64.3128 97.9813 64.6395 98.2287 64.8915 98.546C65.1528 98.854 65.3442 99.2227 65.4655 99.652C65.5962 100.081 65.6615 100.553 65.6615 101.066V101.682H60.2855C60.2855 102.046 60.3322 102.387 60.4255 102.704C60.5282 103.012 60.6682 103.283 60.8455 103.516C61.0322 103.74 61.2608 103.917 61.5315 104.048C61.8022 104.179 62.1148 104.244 62.4695 104.244C63.0762 104.244 63.5195 104.132 63.7995 103.908C64.0795 103.675 64.2708 103.362 64.3735 102.97H65.5495ZM64.4435 100.772C64.4435 100.427 64.4062 100.114 64.3315 99.834C64.2568 99.554 64.1402 99.316 63.9815 99.12C63.8228 98.9147 63.6175 98.756 63.3655 98.644C63.1135 98.532 62.8102 98.476 62.4555 98.476C61.8115 98.476 61.3075 98.672 60.9435 99.064C60.5888 99.456 60.3788 100.025 60.3135 100.772H64.4435ZM70.3931 97.762H71.5971V98.868C71.9517 98.392 72.3437 98.0513 72.7731 97.846C73.2024 97.6407 73.6551 97.538 74.1311 97.538C74.9524 97.538 75.5591 97.762 75.9511 98.21C76.3524 98.658 76.5531 99.316 76.5531 100.184V105H75.3351V100.422C75.3351 99.75 75.2137 99.2787 74.9711 99.008C74.7284 98.728 74.3551 98.588 73.8511 98.588C73.5804 98.588 73.3097 98.6347 73.0391 98.728C72.7777 98.8213 72.5397 98.9707 72.3251 99.176C72.0917 99.3813 71.9144 99.6007 71.7931 99.834C71.6717 100.058 71.6111 100.352 71.6111 100.716V105H70.3931V97.762ZM78.4055 97.762H79.6235V105H78.4055V97.762ZM78.3635 95.004H79.6655V96.418H78.3635V95.004ZM87.794 102.55C87.6727 103.381 87.3553 104.034 86.842 104.51C86.3287 104.986 85.6053 105.224 84.672 105.224C84.1213 105.224 83.6313 105.135 83.202 104.958C82.782 104.781 82.4273 104.529 82.138 104.202C81.858 103.866 81.6433 103.465 81.494 102.998C81.354 102.522 81.284 101.99 81.284 101.402C81.284 100.823 81.3633 100.296 81.522 99.82C81.6807 99.344 81.9093 98.938 82.208 98.602C82.5067 98.266 82.8707 98.0047 83.3 97.818C83.7293 97.6313 84.2147 97.538 84.756 97.538C85.624 97.538 86.296 97.7527 86.772 98.182C87.248 98.602 87.5513 99.1853 87.682 99.932L86.464 100.156C86.4173 99.9227 86.352 99.708 86.268 99.512C86.1933 99.316 86.086 99.148 85.946 99.008C85.806 98.8587 85.6333 98.7467 85.428 98.672C85.232 98.588 84.994 98.546 84.714 98.546C84.3313 98.546 84.0047 98.6207 83.734 98.77C83.4633 98.91 83.2393 99.1107 83.062 99.372C82.894 99.624 82.768 99.9227 82.684 100.268C82.6093 100.613 82.572 100.982 82.572 101.374C82.572 101.766 82.6093 102.135 82.684 102.48C82.7587 102.825 82.88 103.129 83.048 103.39C83.216 103.642 83.4353 103.843 83.706 103.992C83.9767 104.141 84.308 104.216 84.7 104.216C85.288 104.216 85.722 104.067 86.002 103.768C86.2913 103.469 86.478 103.063 86.562 102.55H87.794ZM95.4772 102.97C95.3559 103.67 95.0433 104.221 94.5393 104.622C94.0446 105.023 93.3306 105.224 92.3972 105.224C91.2959 105.224 90.4513 104.893 89.8633 104.23C89.2753 103.558 88.9813 102.625 88.9813 101.43C88.9813 100.805 89.0653 100.249 89.2333 99.764C89.4013 99.2787 89.6346 98.8727 89.9333 98.546C90.2413 98.2193 90.6053 97.972 91.0253 97.804C91.4453 97.6267 91.9026 97.538 92.3972 97.538C92.9573 97.538 93.4379 97.6267 93.8393 97.804C94.2406 97.9813 94.5673 98.2287 94.8193 98.546C95.0806 98.854 95.2719 99.2227 95.3933 99.652C95.5239 100.081 95.5893 100.553 95.5893 101.066V101.682H90.2133C90.2133 102.046 90.2599 102.387 90.3533 102.704C90.4559 103.012 90.5959 103.283 90.7733 103.516C90.9599 103.74 91.1886 103.917 91.4593 104.048C91.7299 104.179 92.0426 104.244 92.3972 104.244C93.0039 104.244 93.4473 104.132 93.7273 103.908C94.0073 103.675 94.1986 103.362 94.3013 102.97H95.4772ZM94.3713 100.772C94.3713 100.427 94.3339 100.114 94.2593 99.834C94.1846 99.554 94.0679 99.316 93.9093 99.12C93.7506 98.9147 93.5453 98.756 93.2933 98.644C93.0413 98.532 92.7379 98.476 92.3833 98.476C91.7393 98.476 91.2353 98.672 90.8713 99.064C90.5166 99.456 90.3066 100.025 90.2413 100.772H94.3713ZM100.741 98.728H99.6208V97.762H100.741V95.788H101.959V97.762H103.877V98.728H101.959V102.97C101.959 103.325 102.038 103.609 102.197 103.824C102.355 104.039 102.598 104.146 102.925 104.146C103.13 104.146 103.307 104.132 103.457 104.104C103.615 104.076 103.76 104.039 103.891 103.992L104.101 104.93C103.914 104.995 103.709 105.047 103.485 105.084C103.27 105.131 103.013 105.154 102.715 105.154C102.304 105.154 101.973 105.093 101.721 104.972C101.469 104.851 101.268 104.678 101.119 104.454C100.969 104.23 100.867 103.964 100.811 103.656C100.764 103.348 100.741 103.012 100.741 102.648V98.728ZM108.176 105.224C107.626 105.224 107.136 105.135 106.706 104.958C106.277 104.781 105.913 104.529 105.614 104.202C105.316 103.875 105.087 103.474 104.928 102.998C104.77 102.522 104.69 101.99 104.69 101.402C104.69 100.814 104.774 100.282 104.942 99.806C105.11 99.33 105.348 98.924 105.656 98.588C105.964 98.252 106.333 97.9953 106.762 97.818C107.201 97.6313 107.686 97.538 108.218 97.538C108.76 97.538 109.245 97.6267 109.674 97.804C110.104 97.9813 110.468 98.238 110.766 98.574C111.074 98.9007 111.308 99.2973 111.466 99.764C111.625 100.231 111.704 100.758 111.704 101.346C111.704 101.943 111.62 102.48 111.452 102.956C111.294 103.432 111.06 103.838 110.752 104.174C110.454 104.51 110.085 104.771 109.646 104.958C109.208 105.135 108.718 105.224 108.176 105.224ZM108.19 104.216C108.582 104.216 108.918 104.146 109.198 104.006C109.478 103.866 109.707 103.67 109.884 103.418C110.071 103.166 110.206 102.867 110.29 102.522C110.374 102.167 110.416 101.78 110.416 101.36C110.416 100.949 110.374 100.571 110.29 100.226C110.206 99.8807 110.071 99.5867 109.884 99.344C109.707 99.092 109.478 98.896 109.198 98.756C108.918 98.616 108.582 98.546 108.19 98.546C107.798 98.546 107.462 98.616 107.182 98.756C106.912 98.896 106.683 99.092 106.496 99.344C106.319 99.5867 106.188 99.8807 106.104 100.226C106.02 100.571 105.978 100.954 105.978 101.374C105.978 101.794 106.02 102.177 106.104 102.522C106.188 102.867 106.319 103.166 106.496 103.418C106.674 103.67 106.902 103.866 107.182 104.006C107.462 104.146 107.798 104.216 108.19 104.216ZM116.454 95.004H117.672V98.77C117.97 98.378 118.316 98.0747 118.708 97.86C119.1 97.6453 119.562 97.538 120.094 97.538C120.607 97.538 121.055 97.6313 121.438 97.818C121.83 98.0047 122.152 98.266 122.404 98.602C122.665 98.938 122.856 99.3393 122.978 99.806C123.108 100.263 123.174 100.772 123.174 101.332C123.174 101.929 123.099 102.471 122.95 102.956C122.8 103.432 122.586 103.838 122.306 104.174C122.026 104.51 121.685 104.771 121.284 104.958C120.892 105.135 120.448 105.224 119.954 105.224C119.534 105.224 119.123 105.14 118.722 104.972C118.33 104.795 117.975 104.496 117.658 104.076V105H116.454V95.004ZM117.658 101.584C117.658 102.051 117.709 102.452 117.812 102.788C117.924 103.115 118.073 103.385 118.26 103.6C118.446 103.815 118.67 103.973 118.932 104.076C119.193 104.169 119.478 104.216 119.786 104.216C120.084 104.216 120.36 104.165 120.612 104.062C120.873 103.959 121.097 103.796 121.284 103.572C121.47 103.339 121.615 103.04 121.718 102.676C121.83 102.312 121.886 101.869 121.886 101.346C121.886 100.814 121.825 100.371 121.704 100.016C121.592 99.652 121.442 99.3627 121.256 99.148C121.069 98.9333 120.854 98.7793 120.612 98.686C120.378 98.5927 120.136 98.546 119.884 98.546C119.566 98.546 119.272 98.602 119.002 98.714C118.731 98.8167 118.493 98.9753 118.288 99.19C118.092 99.3953 117.938 99.6613 117.826 99.988C117.714 100.305 117.658 100.674 117.658 101.094V101.584ZM131.065 102.97C130.944 103.67 130.631 104.221 130.127 104.622C129.632 105.023 128.918 105.224 127.985 105.224C126.884 105.224 126.039 104.893 125.451 104.23C124.863 103.558 124.569 102.625 124.569 101.43C124.569 100.805 124.653 100.249 124.821 99.764C124.989 99.2787 125.222 98.8727 125.521 98.546C125.829 98.2193 126.193 97.972 126.613 97.804C127.033 97.6267 127.49 97.538 127.985 97.538C128.545 97.538 129.026 97.6267 129.427 97.804C129.828 97.9813 130.155 98.2287 130.407 98.546C130.668 98.854 130.86 99.2227 130.981 99.652C131.112 100.081 131.177 100.553 131.177 101.066V101.682H125.801C125.801 102.046 125.848 102.387 125.941 102.704C126.044 103.012 126.184 103.283 126.361 103.516C126.548 103.74 126.776 103.917 127.047 104.048C127.318 104.179 127.63 104.244 127.985 104.244C128.592 104.244 129.035 104.132 129.315 103.908C129.595 103.675 129.786 103.362 129.889 102.97H131.065ZM129.959 100.772C129.959 100.427 129.922 100.114 129.847 99.834C129.772 99.554 129.656 99.316 129.497 99.12C129.338 98.9147 129.133 98.756 128.881 98.644C128.629 98.532 128.326 98.476 127.971 98.476C127.327 98.476 126.823 98.672 126.459 99.064C126.104 99.456 125.894 100.025 125.829 100.772H129.959ZM140.417 104.006C140.155 104.323 139.824 104.599 139.423 104.832C139.021 105.056 138.522 105.168 137.925 105.168C137.561 105.168 137.225 105.121 136.917 105.028C136.618 104.944 136.357 104.813 136.133 104.636C135.918 104.449 135.75 104.221 135.629 103.95C135.507 103.679 135.447 103.362 135.447 102.998C135.447 102.503 135.549 102.102 135.755 101.794C135.969 101.486 136.249 101.243 136.595 101.066C136.949 100.889 137.346 100.763 137.785 100.688C138.223 100.613 138.676 100.567 139.143 100.548L140.389 100.506V100.226C140.389 99.61 140.258 99.1667 139.997 98.896C139.735 98.6253 139.311 98.49 138.723 98.49C138.144 98.49 137.719 98.588 137.449 98.784C137.178 98.9707 137.001 99.232 136.917 99.568L135.811 99.442C135.941 98.7793 136.254 98.2987 136.749 98C137.243 97.692 137.915 97.538 138.765 97.538C139.287 97.538 139.726 97.6033 140.081 97.734C140.445 97.8553 140.739 98.0327 140.963 98.266C141.187 98.4993 141.345 98.7887 141.439 99.134C141.541 99.4793 141.593 99.8667 141.593 100.296V105H140.417V104.006ZM140.389 101.374L139.227 101.416C138.732 101.435 138.321 101.481 137.995 101.556C137.668 101.631 137.407 101.733 137.211 101.864C137.024 101.985 136.889 102.139 136.805 102.326C136.73 102.513 136.693 102.727 136.693 102.97C136.693 103.334 136.8 103.628 137.015 103.852C137.239 104.067 137.603 104.174 138.107 104.174C138.825 104.174 139.385 103.997 139.787 103.642C140.188 103.287 140.389 102.802 140.389 102.186V101.374ZM143.442 95.004H144.66V98.77C144.959 98.378 145.304 98.0747 145.696 97.86C146.088 97.6453 146.55 97.538 147.082 97.538C147.595 97.538 148.043 97.6313 148.426 97.818C148.818 98.0047 149.14 98.266 149.392 98.602C149.653 98.938 149.845 99.3393 149.966 99.806C150.097 100.263 150.162 100.772 150.162 101.332C150.162 101.929 150.087 102.471 149.938 102.956C149.789 103.432 149.574 103.838 149.294 104.174C149.014 104.51 148.673 104.771 148.272 104.958C147.88 105.135 147.437 105.224 146.942 105.224C146.522 105.224 146.111 105.14 145.71 104.972C145.318 104.795 144.963 104.496 144.646 104.076V105H143.442V95.004ZM144.646 101.584C144.646 102.051 144.697 102.452 144.8 102.788C144.912 103.115 145.061 103.385 145.248 103.6C145.435 103.815 145.659 103.973 145.92 104.076C146.181 104.169 146.466 104.216 146.774 104.216C147.073 104.216 147.348 104.165 147.6 104.062C147.861 103.959 148.085 103.796 148.272 103.572C148.459 103.339 148.603 103.04 148.706 102.676C148.818 102.312 148.874 101.869 148.874 101.346C148.874 100.814 148.813 100.371 148.692 100.016C148.58 99.652 148.431 99.3627 148.244 99.148C148.057 98.9333 147.843 98.7793 147.6 98.686C147.367 98.5927 147.124 98.546 146.872 98.546C146.555 98.546 146.261 98.602 145.99 98.714C145.719 98.8167 145.481 98.9753 145.276 99.19C145.08 99.3953 144.926 99.6613 144.814 99.988C144.702 100.305 144.646 100.674 144.646 101.094V101.584ZM151.823 95.004H153.041V105H151.823V95.004ZM161.198 102.97C161.077 103.67 160.764 104.221 160.26 104.622C159.765 105.023 159.051 105.224 158.118 105.224C157.017 105.224 156.172 104.893 155.584 104.23C154.996 103.558 154.702 102.625 154.702 101.43C154.702 100.805 154.786 100.249 154.954 99.764C155.122 99.2787 155.355 98.8727 155.654 98.546C155.962 98.2193 156.326 97.972 156.746 97.804C157.166 97.6267 157.623 97.538 158.118 97.538C158.678 97.538 159.159 97.6267 159.56 97.804C159.961 97.9813 160.288 98.2287 160.54 98.546C160.801 98.854 160.993 99.2227 161.114 99.652C161.245 100.081 161.31 100.553 161.31 101.066V101.682H155.934C155.934 102.046 155.981 102.387 156.074 102.704C156.177 103.012 156.317 103.283 156.494 103.516C156.681 103.74 156.909 103.917 157.18 104.048C157.451 104.179 157.763 104.244 158.118 104.244C158.725 104.244 159.168 104.132 159.448 103.908C159.728 103.675 159.919 103.362 160.022 102.97H161.198ZM160.092 100.772C160.092 100.427 160.055 100.114 159.98 99.834C159.905 99.554 159.789 99.316 159.63 99.12C159.471 98.9147 159.266 98.756 159.014 98.644C158.762 98.532 158.459 98.476 158.104 98.476C157.46 98.476 156.956 98.672 156.592 99.064C156.237 99.456 156.027 100.025 155.962 100.772H160.092ZM166.462 98.728H165.342V97.762H166.462V95.788H167.68V97.762H169.598V98.728H167.68V102.97C167.68 103.325 167.759 103.609 167.918 103.824C168.076 104.039 168.319 104.146 168.646 104.146C168.851 104.146 169.028 104.132 169.178 104.104C169.336 104.076 169.481 104.039 169.612 103.992L169.822 104.93C169.635 104.995 169.43 105.047 169.206 105.084C168.991 105.131 168.734 105.154 168.436 105.154C168.025 105.154 167.694 105.093 167.442 104.972C167.19 104.851 166.989 104.678 166.84 104.454C166.69 104.23 166.588 103.964 166.532 103.656C166.485 103.348 166.462 103.012 166.462 102.648V98.728ZM173.897 105.224C173.346 105.224 172.856 105.135 172.427 104.958C171.998 104.781 171.634 104.529 171.335 104.202C171.036 103.875 170.808 103.474 170.649 102.998C170.49 102.522 170.411 101.99 170.411 101.402C170.411 100.814 170.495 100.282 170.663 99.806C170.831 99.33 171.069 98.924 171.377 98.588C171.685 98.252 172.054 97.9953 172.483 97.818C172.922 97.6313 173.407 97.538 173.939 97.538C174.48 97.538 174.966 97.6267 175.395 97.804C175.824 97.9813 176.188 98.238 176.487 98.574C176.795 98.9007 177.028 99.2973 177.187 99.764C177.346 100.231 177.425 100.758 177.425 101.346C177.425 101.943 177.341 102.48 177.173 102.956C177.014 103.432 176.781 103.838 176.473 104.174C176.174 104.51 175.806 104.771 175.367 104.958C174.928 105.135 174.438 105.224 173.897 105.224ZM173.911 104.216C174.303 104.216 174.639 104.146 174.919 104.006C175.199 103.866 175.428 103.67 175.605 103.418C175.792 103.166 175.927 102.867 176.011 102.522C176.095 102.167 176.137 101.78 176.137 101.36C176.137 100.949 176.095 100.571 176.011 100.226C175.927 99.8807 175.792 99.5867 175.605 99.344C175.428 99.092 175.199 98.896 174.919 98.756C174.639 98.616 174.303 98.546 173.911 98.546C173.519 98.546 173.183 98.616 172.903 98.756C172.632 98.896 172.404 99.092 172.217 99.344C172.04 99.5867 171.909 99.8807 171.825 100.226C171.741 100.571 171.699 100.954 171.699 101.374C171.699 101.794 171.741 102.177 171.825 102.522C171.909 102.867 172.04 103.166 172.217 103.418C172.394 103.67 172.623 103.866 172.903 104.006C173.183 104.146 173.519 104.216 173.911 104.216ZM182.594 98.728H181.474V97.762H182.594V95.788H183.812V97.762H185.73V98.728H183.812V102.97C183.812 103.325 183.892 103.609 184.05 103.824C184.209 104.039 184.452 104.146 184.778 104.146C184.984 104.146 185.161 104.132 185.31 104.104C185.469 104.076 185.614 104.039 185.744 103.992L185.954 104.93C185.768 104.995 185.562 105.047 185.338 105.084C185.124 105.131 184.867 105.154 184.568 105.154C184.158 105.154 183.826 105.093 183.574 104.972C183.322 104.851 183.122 104.678 182.972 104.454C182.823 104.23 182.72 103.964 182.664 103.656C182.618 103.348 182.594 103.012 182.594 102.648V98.728ZM187.028 97.762H188.232V98.882C188.503 98.4807 188.82 98.1727 189.184 97.958C189.548 97.7433 189.935 97.636 190.346 97.636C190.598 97.636 190.813 97.6547 190.99 97.692L190.836 98.826C190.743 98.8073 190.649 98.7933 190.556 98.784C190.463 98.7653 190.36 98.756 190.248 98.756C190.024 98.756 189.795 98.798 189.562 98.882C189.329 98.9567 189.109 99.0873 188.904 99.274C188.699 99.4513 188.535 99.6567 188.414 99.89C188.302 100.123 188.246 100.394 188.246 100.702V105H187.028V97.762ZM196.54 104.006C196.278 104.323 195.947 104.599 195.546 104.832C195.144 105.056 194.645 105.168 194.048 105.168C193.684 105.168 193.348 105.121 193.04 105.028C192.741 104.944 192.48 104.813 192.256 104.636C192.041 104.449 191.873 104.221 191.752 103.95C191.63 103.679 191.57 103.362 191.57 102.998C191.57 102.503 191.672 102.102 191.878 101.794C192.092 101.486 192.372 101.243 192.718 101.066C193.072 100.889 193.469 100.763 193.908 100.688C194.346 100.613 194.799 100.567 195.266 100.548L196.512 100.506V100.226C196.512 99.61 196.381 99.1667 196.12 98.896C195.858 98.6253 195.434 98.49 194.846 98.49C194.267 98.49 193.842 98.588 193.572 98.784C193.301 98.9707 193.124 99.232 193.04 99.568L191.934 99.442C192.064 98.7793 192.377 98.2987 192.872 98C193.366 97.692 194.038 97.538 194.888 97.538C195.41 97.538 195.849 97.6033 196.204 97.734C196.568 97.8553 196.862 98.0327 197.086 98.266C197.31 98.4993 197.468 98.7887 197.562 99.134C197.664 99.4793 197.716 99.8667 197.716 100.296V105H196.54V104.006ZM196.512 101.374L195.35 101.416C194.855 101.435 194.444 101.481 194.118 101.556C193.791 101.631 193.53 101.733 193.334 101.864C193.147 101.985 193.012 102.139 192.928 102.326C192.853 102.513 192.816 102.727 192.816 102.97C192.816 103.334 192.923 103.628 193.138 103.852C193.362 104.067 193.726 104.174 194.23 104.174C194.948 104.174 195.508 103.997 195.91 103.642C196.311 103.287 196.512 102.802 196.512 102.186V101.374ZM205.837 102.55C205.716 103.381 205.398 104.034 204.885 104.51C204.372 104.986 203.648 105.224 202.715 105.224C202.164 105.224 201.674 105.135 201.245 104.958C200.825 104.781 200.47 104.529 200.181 104.202C199.901 103.866 199.686 103.465 199.537 102.998C199.397 102.522 199.327 101.99 199.327 101.402C199.327 100.823 199.406 100.296 199.565 99.82C199.724 99.344 199.952 98.938 200.251 98.602C200.55 98.266 200.914 98.0047 201.343 97.818C201.772 97.6313 202.258 97.538 202.799 97.538C203.667 97.538 204.339 97.7527 204.815 98.182C205.291 98.602 205.594 99.1853 205.725 99.932L204.507 100.156C204.46 99.9227 204.395 99.708 204.311 99.512C204.236 99.316 204.129 99.148 203.989 99.008C203.849 98.8587 203.676 98.7467 203.471 98.672C203.275 98.588 203.037 98.546 202.757 98.546C202.374 98.546 202.048 98.6207 201.777 98.77C201.506 98.91 201.282 99.1107 201.105 99.372C200.937 99.624 200.811 99.9227 200.727 100.268C200.652 100.613 200.615 100.982 200.615 101.374C200.615 101.766 200.652 102.135 200.727 102.48C200.802 102.825 200.923 103.129 201.091 103.39C201.259 103.642 201.478 103.843 201.749 103.992C202.02 104.141 202.351 104.216 202.743 104.216C203.331 104.216 203.765 104.067 204.045 103.768C204.334 103.469 204.521 103.063 204.605 102.55H205.837ZM207.385 95.004H208.589V100.828L211.977 97.762H213.447L210.857 100.184L213.727 105H212.341L209.947 100.898L208.589 102.116V105H207.385V95.004ZM218.251 98.728H217.131V97.762H218.251V95.788H219.469V97.762H221.387V98.728H219.469V102.97C219.469 103.325 219.548 103.609 219.707 103.824C219.865 104.039 220.108 104.146 220.435 104.146C220.64 104.146 220.817 104.132 220.967 104.104C221.125 104.076 221.27 104.039 221.401 103.992L221.611 104.93C221.424 104.995 221.219 105.047 220.995 105.084C220.78 105.131 220.523 105.154 220.225 105.154C219.814 105.154 219.483 105.093 219.231 104.972C218.979 104.851 218.778 104.678 218.629 104.454C218.479 104.23 218.377 103.964 218.321 103.656C218.274 103.348 218.251 103.012 218.251 102.648V98.728ZM222.684 95.004H223.902V98.84C224.257 98.3827 224.644 98.0513 225.064 97.846C225.493 97.6407 225.946 97.538 226.422 97.538C227.243 97.538 227.85 97.762 228.242 98.21C228.643 98.658 228.844 99.316 228.844 100.184V105H227.612V100.422C227.612 99.75 227.491 99.2787 227.248 99.008C227.015 98.728 226.646 98.588 226.142 98.588C225.871 98.588 225.601 98.6347 225.33 98.728C225.069 98.8213 224.831 98.9707 224.616 99.176C224.383 99.3813 224.205 99.6007 224.084 99.834C223.963 100.058 223.902 100.352 223.902 100.716V105H222.684V95.004ZM236.926 102.97C236.805 103.67 236.492 104.221 235.988 104.622C235.494 105.023 234.78 105.224 233.846 105.224C232.745 105.224 231.9 104.893 231.312 104.23C230.724 103.558 230.43 102.625 230.43 101.43C230.43 100.805 230.514 100.249 230.682 99.764C230.85 99.2787 231.084 98.8727 231.382 98.546C231.69 98.2193 232.054 97.972 232.474 97.804C232.894 97.6267 233.352 97.538 233.846 97.538C234.406 97.538 234.887 97.6267 235.288 97.804C235.69 97.9813 236.016 98.2287 236.268 98.546C236.53 98.854 236.721 99.2227 236.842 99.652C236.973 100.081 237.038 100.553 237.038 101.066V101.682H231.662C231.662 102.046 231.709 102.387 231.802 102.704C231.905 103.012 232.045 103.283 232.222 103.516C232.409 103.74 232.638 103.917 232.908 104.048C233.179 104.179 233.492 104.244 233.846 104.244C234.453 104.244 234.896 104.132 235.176 103.908C235.456 103.675 235.648 103.362 235.75 102.97H236.926ZM235.82 100.772C235.82 100.427 235.783 100.114 235.708 99.834C235.634 99.554 235.517 99.316 235.358 99.12C235.2 98.9147 234.994 98.756 234.742 98.644C234.49 98.532 234.187 98.476 233.832 98.476C233.188 98.476 232.684 98.672 232.32 99.064C231.966 99.456 231.756 100.025 231.69 100.772H235.82ZM238.653 97.762H239.857V98.868C240.184 98.42 240.543 98.0887 240.935 97.874C241.327 97.65 241.728 97.538 242.139 97.538C242.68 97.538 243.114 97.6547 243.441 97.888C243.777 98.1213 244.024 98.4573 244.183 98.896C244.51 98.448 244.883 98.112 245.303 97.888C245.723 97.6547 246.171 97.538 246.647 97.538C247.356 97.538 247.902 97.734 248.285 98.126C248.677 98.5087 248.873 99.1293 248.873 99.988V105H247.655V100.268C247.655 99.9413 247.627 99.6707 247.571 99.456C247.515 99.232 247.431 99.0593 247.319 98.938C247.216 98.8073 247.086 98.7187 246.927 98.672C246.768 98.616 246.586 98.588 246.381 98.588C246.166 98.588 245.942 98.6253 245.709 98.7C245.476 98.7747 245.247 98.9053 245.023 99.092C244.836 99.2507 244.682 99.442 244.561 99.666C244.44 99.89 244.379 100.147 244.379 100.436V105H243.161V100.282C243.161 99.6473 243.049 99.2087 242.825 98.966C242.61 98.714 242.298 98.588 241.887 98.588C241.411 98.588 240.963 98.784 240.543 99.176C240.384 99.3253 240.23 99.5167 240.081 99.75C239.941 99.9833 239.871 100.296 239.871 100.688V105H238.653V97.762ZM50.112 121.762H51.442L52.898 127.53L54.564 121.804H55.796L57.42 127.53L58.862 121.762H60.15L58.036 129H56.748L55.124 123.232L53.486 129H52.212L50.112 121.762ZM61.2336 121.762H62.4516V129H61.2336V121.762ZM61.1916 119.004H62.4936V120.418H61.1916V119.004ZM64.7701 122.728H63.6501V121.762H64.7701V119.788H65.9881V121.762H67.9061V122.728H65.9881V126.97C65.9881 127.325 66.0674 127.609 66.2261 127.824C66.3848 128.039 66.6274 128.146 66.9541 128.146C67.1594 128.146 67.3368 128.132 67.4861 128.104C67.6448 128.076 67.7894 128.039 67.9201 127.992L68.1301 128.93C67.9434 128.995 67.7381 129.047 67.5141 129.084C67.2994 129.131 67.0428 129.154 66.7441 129.154C66.3334 129.154 66.0021 129.093 65.7501 128.972C65.4981 128.851 65.2974 128.678 65.1481 128.454C64.9988 128.23 64.8961 127.964 64.8401 127.656C64.7934 127.348 64.7701 127.012 64.7701 126.648V122.728ZM69.2036 119.004H70.4216V122.84C70.7763 122.383 71.1636 122.051 71.5836 121.846C72.013 121.641 72.4656 121.538 72.9416 121.538C73.763 121.538 74.3696 121.762 74.7616 122.21C75.163 122.658 75.3636 123.316 75.3636 124.184V129H74.1316V124.422C74.1316 123.75 74.0103 123.279 73.7676 123.008C73.5343 122.728 73.1656 122.588 72.6616 122.588C72.391 122.588 72.1203 122.635 71.8496 122.728C71.5883 122.821 71.3503 122.971 71.1356 123.176C70.9023 123.381 70.725 123.601 70.6036 123.834C70.4823 124.058 70.4216 124.352 70.4216 124.716V129H69.2036V119.004ZM80.0995 130.54C80.3608 130.633 80.6221 130.68 80.8835 130.68C81.1821 130.68 81.4108 130.601 81.5695 130.442C81.7375 130.293 81.9008 130.008 82.0595 129.588L82.3535 128.818L79.2875 121.762H80.7015L82.9835 127.446L85.0695 121.762H86.4135L83.2495 129.686C83.1188 130.013 82.9881 130.297 82.8575 130.54C82.7268 130.792 82.5821 131.007 82.4235 131.184C82.2648 131.361 82.0735 131.492 81.8495 131.576C81.6348 131.669 81.3688 131.716 81.0515 131.716C80.8275 131.716 80.6268 131.702 80.4495 131.674C80.2721 131.646 80.0761 131.595 79.8615 131.52L80.0995 130.54ZM90.5669 129.224C90.0162 129.224 89.5262 129.135 89.0969 128.958C88.6675 128.781 88.3035 128.529 88.0049 128.202C87.7062 127.875 87.4775 127.474 87.3189 126.998C87.1602 126.522 87.0809 125.99 87.0809 125.402C87.0809 124.814 87.1649 124.282 87.3329 123.806C87.5009 123.33 87.7389 122.924 88.0469 122.588C88.3549 122.252 88.7235 121.995 89.1529 121.818C89.5915 121.631 90.0769 121.538 90.6089 121.538C91.1502 121.538 91.6355 121.627 92.0649 121.804C92.4942 121.981 92.8582 122.238 93.1569 122.574C93.4649 122.901 93.6982 123.297 93.8569 123.764C94.0155 124.231 94.0949 124.758 94.0949 125.346C94.0949 125.943 94.0109 126.48 93.8429 126.956C93.6842 127.432 93.4509 127.838 93.1429 128.174C92.8442 128.51 92.4755 128.771 92.0369 128.958C91.5982 129.135 91.1082 129.224 90.5669 129.224ZM90.5809 128.216C90.9729 128.216 91.3089 128.146 91.5889 128.006C91.8689 127.866 92.0975 127.67 92.2749 127.418C92.4615 127.166 92.5969 126.867 92.6809 126.522C92.7649 126.167 92.8069 125.78 92.8069 125.36C92.8069 124.949 92.7649 124.571 92.6809 124.226C92.5969 123.881 92.4615 123.587 92.2749 123.344C92.0975 123.092 91.8689 122.896 91.5889 122.756C91.3089 122.616 90.9729 122.546 90.5809 122.546C90.1889 122.546 89.8529 122.616 89.5729 122.756C89.3022 122.896 89.0735 123.092 88.8869 123.344C88.7095 123.587 88.5789 123.881 88.4949 124.226C88.4109 124.571 88.3689 124.954 88.3689 125.374C88.3689 125.794 88.4109 126.177 88.4949 126.522C88.5789 126.867 88.7095 127.166 88.8869 127.418C89.0642 127.67 89.2929 127.866 89.5729 128.006C89.8529 128.146 90.1889 128.216 90.5809 128.216ZM95.6851 121.762H96.9031V126.326C96.9031 126.998 97.0104 127.474 97.2251 127.754C97.4491 128.034 97.8084 128.174 98.3031 128.174C98.8444 128.174 99.3344 127.978 99.7731 127.586C100.006 127.381 100.184 127.166 100.305 126.942C100.426 126.709 100.487 126.41 100.487 126.046V121.762H101.705V129H100.501V127.88C100.146 128.347 99.7637 128.687 99.3531 128.902C98.9424 129.117 98.4991 129.224 98.0231 129.224C97.2017 129.224 96.6044 129.005 96.2311 128.566C95.8671 128.118 95.6851 127.451 95.6851 126.564V121.762ZM103.575 121.762H104.779V122.882C105.049 122.481 105.367 122.173 105.731 121.958C106.095 121.743 106.482 121.636 106.893 121.636C107.145 121.636 107.359 121.655 107.537 121.692L107.383 122.826C107.289 122.807 107.196 122.793 107.103 122.784C107.009 122.765 106.907 122.756 106.795 122.756C106.571 122.756 106.342 122.798 106.109 122.882C105.875 122.957 105.656 123.087 105.451 123.274C105.245 123.451 105.082 123.657 104.961 123.89C104.849 124.123 104.793 124.394 104.793 124.702V129H103.575V121.762ZM111.819 121.762H113.023V122.798C113.322 122.387 113.667 122.075 114.059 121.86C114.46 121.645 114.927 121.538 115.459 121.538C115.972 121.538 116.42 121.631 116.803 121.818C117.195 122.005 117.517 122.266 117.769 122.602C118.03 122.938 118.222 123.339 118.343 123.806C118.474 124.263 118.539 124.772 118.539 125.332C118.539 125.929 118.464 126.471 118.315 126.956C118.166 127.432 117.951 127.838 117.671 128.174C117.391 128.51 117.05 128.771 116.649 128.958C116.257 129.135 115.814 129.224 115.319 129.224C114.908 129.224 114.502 129.145 114.101 128.986C113.709 128.818 113.354 128.524 113.037 128.104V131.716H111.819V121.762ZM113.023 125.584C113.023 126.051 113.074 126.452 113.177 126.788C113.289 127.115 113.438 127.385 113.625 127.6C113.812 127.815 114.036 127.973 114.297 128.076C114.558 128.169 114.843 128.216 115.151 128.216C115.45 128.216 115.725 128.165 115.977 128.062C116.238 127.959 116.462 127.796 116.649 127.572C116.836 127.339 116.98 127.04 117.083 126.676C117.195 126.312 117.251 125.869 117.251 125.346C117.251 124.814 117.19 124.371 117.069 124.016C116.957 123.652 116.808 123.363 116.621 123.148C116.434 122.933 116.22 122.779 115.977 122.686C115.744 122.593 115.501 122.546 115.249 122.546C114.932 122.546 114.638 122.602 114.367 122.714C114.096 122.817 113.858 122.975 113.653 123.19C113.457 123.395 113.303 123.661 113.191 123.988C113.079 124.305 113.023 124.674 113.023 125.094V125.584ZM120.2 119.004H121.418V129H120.2V119.004ZM127.825 128.006C127.564 128.323 127.232 128.599 126.831 128.832C126.43 129.056 125.93 129.168 125.333 129.168C124.969 129.168 124.633 129.121 124.325 129.028C124.026 128.944 123.765 128.813 123.541 128.636C123.326 128.449 123.158 128.221 123.037 127.95C122.916 127.679 122.855 127.362 122.855 126.998C122.855 126.503 122.958 126.102 123.163 125.794C123.378 125.486 123.658 125.243 124.003 125.066C124.358 124.889 124.754 124.763 125.193 124.688C125.632 124.613 126.084 124.567 126.551 124.548L127.797 124.506V124.226C127.797 123.61 127.666 123.167 127.405 122.896C127.144 122.625 126.719 122.49 126.131 122.49C125.552 122.49 125.128 122.588 124.857 122.784C124.586 122.971 124.409 123.232 124.325 123.568L123.219 123.442C123.35 122.779 123.662 122.299 124.157 122C124.652 121.692 125.324 121.538 126.173 121.538C126.696 121.538 127.134 121.603 127.489 121.734C127.853 121.855 128.147 122.033 128.371 122.266C128.595 122.499 128.754 122.789 128.847 123.134C128.95 123.479 129.001 123.867 129.001 124.296V129H127.825V128.006ZM127.797 125.374L126.635 125.416C126.14 125.435 125.73 125.481 125.403 125.556C125.076 125.631 124.815 125.733 124.619 125.864C124.432 125.985 124.297 126.139 124.213 126.326C124.138 126.513 124.101 126.727 124.101 126.97C124.101 127.334 124.208 127.628 124.423 127.852C124.647 128.067 125.011 128.174 125.515 128.174C126.234 128.174 126.794 127.997 127.195 127.642C127.596 127.287 127.797 126.802 127.797 126.186V125.374ZM131.27 122.728H130.15V121.762H131.27V119.788H132.488V121.762H134.406V122.728H132.488V126.97C132.488 127.325 132.567 127.609 132.726 127.824C132.885 128.039 133.127 128.146 133.454 128.146C133.659 128.146 133.837 128.132 133.986 128.104C134.145 128.076 134.289 128.039 134.42 127.992L134.63 128.93C134.443 128.995 134.238 129.047 134.014 129.084C133.799 129.131 133.543 129.154 133.244 129.154C132.833 129.154 132.502 129.093 132.25 128.972C131.998 128.851 131.797 128.678 131.648 128.454C131.499 128.23 131.396 127.964 131.34 127.656C131.293 127.348 131.27 127.012 131.27 126.648V122.728ZM136.411 122.728H135.277V121.762H136.411V121.132C136.411 120.74 136.467 120.404 136.579 120.124C136.7 119.844 136.859 119.615 137.055 119.438C137.26 119.251 137.494 119.116 137.755 119.032C138.026 118.939 138.31 118.892 138.609 118.892C138.824 118.892 139.029 118.906 139.225 118.934C139.421 118.953 139.626 118.995 139.841 119.06L139.645 120.012C139.496 119.965 139.351 119.937 139.211 119.928C139.08 119.909 138.95 119.9 138.819 119.9C138.492 119.9 138.212 119.989 137.979 120.166C137.746 120.334 137.629 120.647 137.629 121.104V121.762H139.463V122.728H137.629V129H136.411V122.728ZM143.586 129.224C143.036 129.224 142.546 129.135 142.116 128.958C141.687 128.781 141.323 128.529 141.024 128.202C140.726 127.875 140.497 127.474 140.338 126.998C140.18 126.522 140.1 125.99 140.1 125.402C140.1 124.814 140.184 124.282 140.352 123.806C140.52 123.33 140.758 122.924 141.066 122.588C141.374 122.252 141.743 121.995 142.172 121.818C142.611 121.631 143.096 121.538 143.628 121.538C144.17 121.538 144.655 121.627 145.084 121.804C145.514 121.981 145.878 122.238 146.176 122.574C146.484 122.901 146.718 123.297 146.876 123.764C147.035 124.231 147.114 124.758 147.114 125.346C147.114 125.943 147.03 126.48 146.862 126.956C146.704 127.432 146.47 127.838 146.162 128.174C145.864 128.51 145.495 128.771 145.056 128.958C144.618 129.135 144.128 129.224 143.586 129.224ZM143.6 128.216C143.992 128.216 144.328 128.146 144.608 128.006C144.888 127.866 145.117 127.67 145.294 127.418C145.481 127.166 145.616 126.867 145.7 126.522C145.784 126.167 145.826 125.78 145.826 125.36C145.826 124.949 145.784 124.571 145.7 124.226C145.616 123.881 145.481 123.587 145.294 123.344C145.117 123.092 144.888 122.896 144.608 122.756C144.328 122.616 143.992 122.546 143.6 122.546C143.208 122.546 142.872 122.616 142.592 122.756C142.322 122.896 142.093 123.092 141.906 123.344C141.729 123.587 141.598 123.881 141.514 124.226C141.43 124.571 141.388 124.954 141.388 125.374C141.388 125.794 141.43 126.177 141.514 126.522C141.598 126.867 141.729 127.166 141.906 127.418C142.084 127.67 142.312 127.866 142.592 128.006C142.872 128.146 143.208 128.216 143.6 128.216ZM148.747 121.762H149.951V122.882C150.221 122.481 150.539 122.173 150.903 121.958C151.267 121.743 151.654 121.636 152.065 121.636C152.317 121.636 152.531 121.655 152.709 121.692L152.555 122.826C152.461 122.807 152.368 122.793 152.275 122.784C152.181 122.765 152.079 122.756 151.967 122.756C151.743 122.756 151.514 122.798 151.281 122.882C151.047 122.957 150.828 123.087 150.623 123.274C150.417 123.451 150.254 123.657 150.133 123.89C150.021 124.123 149.965 124.394 149.965 124.702V129H148.747V121.762ZM153.874 121.762H155.078V122.868C155.404 122.42 155.764 122.089 156.156 121.874C156.548 121.65 156.949 121.538 157.36 121.538C157.901 121.538 158.335 121.655 158.662 121.888C158.998 122.121 159.245 122.457 159.404 122.896C159.73 122.448 160.104 122.112 160.524 121.888C160.944 121.655 161.392 121.538 161.868 121.538C162.577 121.538 163.123 121.734 163.506 122.126C163.898 122.509 164.094 123.129 164.094 123.988V129H162.876V124.268C162.876 123.941 162.848 123.671 162.792 123.456C162.736 123.232 162.652 123.059 162.54 122.938C162.437 122.807 162.306 122.719 162.148 122.672C161.989 122.616 161.807 122.588 161.602 122.588C161.387 122.588 161.163 122.625 160.93 122.7C160.696 122.775 160.468 122.905 160.244 123.092C160.057 123.251 159.903 123.442 159.782 123.666C159.66 123.89 159.6 124.147 159.6 124.436V129H158.382V124.282C158.382 123.647 158.27 123.209 158.046 122.966C157.831 122.714 157.518 122.588 157.108 122.588C156.632 122.588 156.184 122.784 155.764 123.176C155.605 123.325 155.451 123.517 155.302 123.75C155.162 123.983 155.092 124.296 155.092 124.688V129H153.874V121.762ZM165.7 119.004H167.002L166.26 122.014H165.294L165.7 119.004ZM167.94 119.004H169.242L168.5 122.014H167.534L167.94 119.004Z" fill="#333333"/>
<rect width="220" height="21.8557" transform="matrix(1 0 0 -1 30 177.855)" fill="#E3F1FB"/>
<path d="M270 156H250V177.856L270 156Z" fill="#959595"/>
</g>
<defs>
<filter id="filter0_d_4216_15974" x="0" y="0" width="300" height="218" filterUnits="userSpaceOnUse" color-interpolation-filters="sRGB">
<feFlood flood-opacity="0" result="BackgroundImageFix"/>
<feColorMatrix in="SourceAlpha" type="matrix" values="0 0 0 0 0 0 0 0 0 0 0 0 0 0 0 0 0 0 127 0" result="hardAlpha"/>
<feOffset dy="10"/>
<feGaussianBlur stdDeviation="15"/>
<feColorMatrix type="matrix" values="0 0 0 0 0.770833 0 0 0 0 0.639852 0 0 0 0 0.481771 0 0 0 0.3 0"/>
<feBlend mode="normal" in2="BackgroundImageFix" result="effect1_dropShadow_4216_15974"/>
<feBlend mode="normal" in="SourceGraphic" in2="effect1_dropShadow_4216_15974" result="shape"/>
</filter>
</defs>
</svg>
