<svg width="300" height="194" viewBox="0 0 300 194" fill="none" xmlns="http://www.w3.org/2000/svg">
<g filter="url(#filter0_d_4216_15977)">
<rect width="240" height="112" transform="translate(30 20)" fill="#E3F1FB"/>
<path d="M51.4 47.004H52.366L51.96 50.014H50.658L51.4 47.004ZM53.64 47.004H54.606L54.2 50.014H52.898L53.64 47.004ZM56.2603 47.004H57.5483V57H56.2603V47.004ZM61.8835 49.762H63.2135L64.6695 55.53L66.3355 49.804H67.5675L69.1915 55.53L70.6335 49.762H71.9215L69.8075 57H68.5195L66.8955 51.232L65.2575 57H63.9835L61.8835 49.762ZM76.2251 57.224C75.6744 57.224 75.1844 57.1353 74.7551 56.958C74.3257 56.7807 73.9617 56.5287 73.6631 56.202C73.3644 55.8753 73.1357 55.474 72.9771 54.998C72.8184 54.522 72.7391 53.99 72.7391 53.402C72.7391 52.814 72.8231 52.282 72.9911 51.806C73.1591 51.33 73.3971 50.924 73.7051 50.588C74.0131 50.252 74.3817 49.9953 74.8111 49.818C75.2497 49.6313 75.7351 49.538 76.2671 49.538C76.8084 49.538 77.2937 49.6267 77.7231 49.804C78.1524 49.9813 78.5164 50.238 78.8151 50.574C79.1231 50.9007 79.3564 51.2973 79.5151 51.764C79.6737 52.2307 79.7531 52.758 79.7531 53.346C79.7531 53.9433 79.6691 54.48 79.5011 54.956C79.3424 55.432 79.1091 55.838 78.8011 56.174C78.5024 56.51 78.1337 56.7713 77.6951 56.958C77.2564 57.1353 76.7664 57.224 76.2251 57.224ZM76.2391 56.216C76.6311 56.216 76.9671 56.146 77.2471 56.006C77.5271 55.866 77.7557 55.67 77.9331 55.418C78.1197 55.166 78.2551 54.8673 78.3391 54.522C78.4231 54.1673 78.4651 53.78 78.4651 53.36C78.4651 52.9493 78.4231 52.5713 78.3391 52.226C78.2551 51.8807 78.1197 51.5867 77.9331 51.344C77.7557 51.092 77.5271 50.896 77.2471 50.756C76.9671 50.616 76.6311 50.546 76.2391 50.546C75.8471 50.546 75.5111 50.616 75.2311 50.756C74.9604 50.896 74.7317 51.092 74.5451 51.344C74.3677 51.5867 74.2371 51.8807 74.1531 52.226C74.0691 52.5713 74.0271 52.954 74.0271 53.374C74.0271 53.794 74.0691 54.1767 74.1531 54.522C74.2371 54.8673 74.3677 55.166 74.5451 55.418C74.7224 55.67 74.9511 55.866 75.2311 56.006C75.5111 56.146 75.8471 56.216 76.2391 56.216ZM81.3433 49.762H82.5613V54.326C82.5613 54.998 82.6686 55.474 82.8833 55.754C83.1073 56.034 83.4666 56.174 83.9613 56.174C84.5026 56.174 84.9926 55.978 85.4313 55.586C85.6646 55.3807 85.8419 55.166 85.9633 54.942C86.0846 54.7087 86.1453 54.41 86.1453 54.046V49.762H87.3633V57H86.1593V55.88C85.8046 56.3467 85.4219 56.6873 85.0113 56.902C84.6006 57.1167 84.1573 57.224 83.6813 57.224C82.8599 57.224 82.2626 57.0047 81.8893 56.566C81.5253 56.118 81.3433 55.4507 81.3433 54.564V49.762ZM89.2609 47.004H90.4789V57H89.2609V47.004ZM97.6415 55.964C97.3428 56.3653 96.9975 56.678 96.6055 56.902C96.2135 57.1167 95.7515 57.224 95.2195 57.224C94.6875 57.224 94.2255 57.126 93.8335 56.93C93.4508 56.734 93.1335 56.468 92.8815 56.132C92.6295 55.7867 92.4428 55.3807 92.3215 54.914C92.2001 54.4473 92.1395 53.948 92.1395 53.416C92.1395 52.8187 92.2141 52.282 92.3635 51.806C92.5128 51.3207 92.7228 50.91 92.9935 50.574C93.2735 50.238 93.6095 49.9813 94.0015 49.804C94.4028 49.6267 94.8555 49.538 95.3595 49.538C95.7421 49.538 96.1295 49.6173 96.5215 49.776C96.9135 49.9253 97.2775 50.2147 97.6135 50.644V47.004H98.8315V57H97.6415V55.964ZM97.6555 53.164C97.6555 52.5853 97.5901 52.1373 97.4595 51.82C97.3381 51.4933 97.1328 51.218 96.8435 50.994C96.6381 50.826 96.4281 50.7093 96.2135 50.644C96.0081 50.5787 95.7795 50.546 95.5275 50.546C95.2288 50.546 94.9488 50.5973 94.6875 50.7C94.4355 50.8027 94.2115 50.9707 94.0155 51.204C93.8288 51.428 93.6795 51.722 93.5675 52.086C93.4648 52.4407 93.4135 52.8747 93.4135 53.388C93.4135 53.92 93.4695 54.368 93.5815 54.732C93.7028 55.096 93.8568 55.3853 94.0435 55.6C94.2395 55.8147 94.4541 55.9687 94.6875 56.062C94.9301 56.1553 95.1775 56.202 95.4295 56.202C95.7001 56.202 95.9428 56.1693 96.1575 56.104C96.3721 56.0387 96.5868 55.9267 96.8015 55.768C97.0815 55.544 97.2915 55.264 97.4315 54.928C97.5808 54.592 97.6555 54.1673 97.6555 53.654V53.164ZM103.862 47.004H105.08V57H103.862V47.004ZM110.227 57.224C109.676 57.224 109.186 57.1353 108.757 56.958C108.328 56.7807 107.964 56.5287 107.665 56.202C107.366 55.8753 107.138 55.474 106.979 54.998C106.82 54.522 106.741 53.99 106.741 53.402C106.741 52.814 106.825 52.282 106.993 51.806C107.161 51.33 107.399 50.924 107.707 50.588C108.015 50.252 108.384 49.9953 108.813 49.818C109.252 49.6313 109.737 49.538 110.269 49.538C110.81 49.538 111.296 49.6267 111.725 49.804C112.154 49.9813 112.518 50.238 112.817 50.574C113.125 50.9007 113.358 51.2973 113.517 51.764C113.676 52.2307 113.755 52.758 113.755 53.346C113.755 53.9433 113.671 54.48 113.503 54.956C113.344 55.432 113.111 55.838 112.803 56.174C112.504 56.51 112.136 56.7713 111.697 56.958C111.258 57.1353 110.768 57.224 110.227 57.224ZM110.241 56.216C110.633 56.216 110.969 56.146 111.249 56.006C111.529 55.866 111.758 55.67 111.935 55.418C112.122 55.166 112.257 54.8673 112.341 54.522C112.425 54.1673 112.467 53.78 112.467 53.36C112.467 52.9493 112.425 52.5713 112.341 52.226C112.257 51.8807 112.122 51.5867 111.935 51.344C111.758 51.092 111.529 50.896 111.249 50.756C110.969 50.616 110.633 50.546 110.241 50.546C109.849 50.546 109.513 50.616 109.233 50.756C108.962 50.896 108.734 51.092 108.547 51.344C108.37 51.5867 108.239 51.8807 108.155 52.226C108.071 52.5713 108.029 52.954 108.029 53.374C108.029 53.794 108.071 54.1767 108.155 54.522C108.239 54.8673 108.37 55.166 108.547 55.418C108.724 55.67 108.953 55.866 109.233 56.006C109.513 56.146 109.849 56.216 110.241 56.216ZM114.424 49.762H115.838L117.994 55.642L120.192 49.762H121.536L118.624 57H117.322L114.424 49.762ZM128.686 54.97C128.565 55.67 128.252 56.2207 127.748 56.622C127.254 57.0233 126.54 57.224 125.606 57.224C124.505 57.224 123.66 56.8927 123.072 56.23C122.484 55.558 122.19 54.6247 122.19 53.43C122.19 52.8047 122.274 52.2493 122.442 51.764C122.61 51.2787 122.844 50.8727 123.142 50.546C123.45 50.2193 123.814 49.972 124.234 49.804C124.654 49.6267 125.112 49.538 125.606 49.538C126.166 49.538 126.647 49.6267 127.048 49.804C127.45 49.9813 127.776 50.2287 128.028 50.546C128.29 50.854 128.481 51.2227 128.602 51.652C128.733 52.0813 128.798 52.5527 128.798 53.066V53.682H123.422C123.422 54.046 123.469 54.3867 123.562 54.704C123.665 55.012 123.805 55.2827 123.982 55.516C124.169 55.74 124.398 55.9173 124.668 56.048C124.939 56.1787 125.252 56.244 125.606 56.244C126.213 56.244 126.656 56.132 126.936 55.908C127.216 55.6747 127.408 55.362 127.51 54.97H128.686ZM127.58 52.772C127.58 52.4267 127.543 52.114 127.468 51.834C127.394 51.554 127.277 51.316 127.118 51.12C126.96 50.9147 126.754 50.756 126.502 50.644C126.25 50.532 125.947 50.476 125.592 50.476C124.948 50.476 124.444 50.672 124.08 51.064C123.726 51.456 123.516 52.0253 123.45 52.772H127.58ZM133.95 50.728H132.83V49.762H133.95V47.788H135.168V49.762H137.086V50.728H135.168V54.97C135.168 55.3247 135.247 55.6093 135.406 55.824C135.564 56.0387 135.807 56.146 136.134 56.146C136.339 56.146 136.516 56.132 136.666 56.104C136.824 56.076 136.969 56.0387 137.1 55.992L137.31 56.93C137.123 56.9953 136.918 57.0467 136.694 57.084C136.479 57.1307 136.222 57.154 135.924 57.154C135.513 57.154 135.182 57.0933 134.93 56.972C134.678 56.8507 134.477 56.678 134.328 56.454C134.178 56.23 134.076 55.964 134.02 55.656C133.973 55.348 133.95 55.012 133.95 54.648V50.728ZM141.385 57.224C140.835 57.224 140.345 57.1353 139.915 56.958C139.486 56.7807 139.122 56.5287 138.823 56.202C138.525 55.8753 138.296 55.474 138.137 54.998C137.979 54.522 137.899 53.99 137.899 53.402C137.899 52.814 137.983 52.282 138.151 51.806C138.319 51.33 138.557 50.924 138.865 50.588C139.173 50.252 139.542 49.9953 139.971 49.818C140.41 49.6313 140.895 49.538 141.427 49.538C141.969 49.538 142.454 49.6267 142.883 49.804C143.313 49.9813 143.677 50.238 143.975 50.574C144.283 50.9007 144.517 51.2973 144.675 51.764C144.834 52.2307 144.913 52.758 144.913 53.346C144.913 53.9433 144.829 54.48 144.661 54.956C144.503 55.432 144.269 55.838 143.961 56.174C143.663 56.51 143.294 56.7713 142.855 56.958C142.417 57.1353 141.927 57.224 141.385 57.224ZM141.399 56.216C141.791 56.216 142.127 56.146 142.407 56.006C142.687 55.866 142.916 55.67 143.093 55.418C143.28 55.166 143.415 54.8673 143.499 54.522C143.583 54.1673 143.625 53.78 143.625 53.36C143.625 52.9493 143.583 52.5713 143.499 52.226C143.415 51.8807 143.28 51.5867 143.093 51.344C142.916 51.092 142.687 50.896 142.407 50.756C142.127 50.616 141.791 50.546 141.399 50.546C141.007 50.546 140.671 50.616 140.391 50.756C140.121 50.896 139.892 51.092 139.705 51.344C139.528 51.5867 139.397 51.8807 139.313 52.226C139.229 52.5713 139.187 52.954 139.187 53.374C139.187 53.794 139.229 54.1767 139.313 54.522C139.397 54.8673 139.528 55.166 139.705 55.418C139.883 55.67 140.111 55.866 140.391 56.006C140.671 56.146 141.007 56.216 141.399 56.216ZM149.691 49.762H150.909V57H149.691V49.762ZM149.649 47.004H150.951V48.418H149.649V47.004ZM152.807 49.762H154.011V50.868C154.366 50.392 154.758 50.0513 155.187 49.846C155.616 49.6407 156.069 49.538 156.545 49.538C157.366 49.538 157.973 49.762 158.365 50.21C158.766 50.658 158.967 51.316 158.967 52.184V57H157.749V52.422C157.749 51.75 157.628 51.2787 157.385 51.008C157.142 50.728 156.769 50.588 156.265 50.588C155.994 50.588 155.724 50.6347 155.453 50.728C155.192 50.8213 154.954 50.9707 154.739 51.176C154.506 51.3813 154.328 51.6007 154.207 51.834C154.086 52.058 154.025 52.352 154.025 52.716V57H152.807V49.762ZM159.842 49.762H161.256L163.412 55.642L165.61 49.762H166.954L164.042 57H162.74L159.842 49.762ZM174.104 54.97C173.983 55.67 173.67 56.2207 173.166 56.622C172.672 57.0233 171.958 57.224 171.024 57.224C169.923 57.224 169.078 56.8927 168.49 56.23C167.902 55.558 167.608 54.6247 167.608 53.43C167.608 52.8047 167.692 52.2493 167.86 51.764C168.028 51.2787 168.262 50.8727 168.56 50.546C168.868 50.2193 169.232 49.972 169.652 49.804C170.072 49.6267 170.53 49.538 171.024 49.538C171.584 49.538 172.065 49.6267 172.466 49.804C172.868 49.9813 173.194 50.2287 173.446 50.546C173.708 50.854 173.899 51.2227 174.02 51.652C174.151 52.0813 174.216 52.5527 174.216 53.066V53.682H168.84C168.84 54.046 168.887 54.3867 168.98 54.704C169.083 55.012 169.223 55.2827 169.4 55.516C169.587 55.74 169.816 55.9173 170.086 56.048C170.357 56.1787 170.67 56.244 171.024 56.244C171.631 56.244 172.074 56.132 172.354 55.908C172.634 55.6747 172.826 55.362 172.928 54.97H174.104ZM172.998 52.772C172.998 52.4267 172.961 52.114 172.886 51.834C172.812 51.554 172.695 51.316 172.536 51.12C172.378 50.9147 172.172 50.756 171.92 50.644C171.668 50.532 171.365 50.476 171.01 50.476C170.366 50.476 169.862 50.672 169.498 51.064C169.144 51.456 168.934 52.0253 168.868 52.772H172.998ZM176.615 54.886C176.699 55.39 176.909 55.7447 177.245 55.95C177.59 56.146 178.057 56.244 178.645 56.244C179.261 56.244 179.695 56.1413 179.947 55.936C180.208 55.7213 180.339 55.4413 180.339 55.096C180.339 54.956 180.32 54.8253 180.283 54.704C180.255 54.5733 180.194 54.4613 180.101 54.368C180.007 54.2653 179.877 54.1767 179.709 54.102C179.541 54.0273 179.321 53.9667 179.051 53.92L178.127 53.78C177.716 53.7147 177.357 53.6307 177.049 53.528C176.741 53.4253 176.479 53.2947 176.265 53.136C176.05 52.968 175.887 52.7673 175.775 52.534C175.672 52.2913 175.621 52.002 175.621 51.666C175.621 51.33 175.691 51.0313 175.831 50.77C175.98 50.5087 176.181 50.2893 176.433 50.112C176.694 49.9253 176.997 49.7853 177.343 49.692C177.697 49.5893 178.08 49.538 178.491 49.538C179.013 49.538 179.447 49.5893 179.793 49.692C180.147 49.7947 180.437 49.9347 180.661 50.112C180.885 50.2893 181.057 50.4993 181.179 50.742C181.3 50.9847 181.393 51.2413 181.459 51.512L180.353 51.694C180.287 51.498 180.213 51.3253 180.129 51.176C180.045 51.0267 179.933 50.9053 179.793 50.812C179.653 50.7093 179.48 50.6347 179.275 50.588C179.079 50.532 178.831 50.504 178.533 50.504C178.197 50.504 177.917 50.5367 177.693 50.602C177.469 50.658 177.287 50.7373 177.147 50.84C177.016 50.9427 176.923 51.0593 176.867 51.19C176.811 51.3113 176.783 51.442 176.783 51.582C176.783 51.7313 176.801 51.8667 176.839 51.988C176.876 52.1 176.946 52.2027 177.049 52.296C177.151 52.38 177.291 52.4547 177.469 52.52C177.646 52.5853 177.875 52.6413 178.155 52.688L179.205 52.856C180.054 52.996 180.661 53.2387 181.025 53.584C181.398 53.9293 181.585 54.4333 181.585 55.096C181.585 55.404 181.524 55.6887 181.403 55.95C181.281 56.202 181.099 56.426 180.857 56.622C180.614 56.8087 180.311 56.9533 179.947 57.056C179.583 57.168 179.158 57.224 178.673 57.224C178.234 57.224 177.823 57.182 177.441 57.098C177.067 57.014 176.736 56.8833 176.447 56.706C176.157 56.5193 175.924 56.2767 175.747 55.978C175.569 55.6793 175.467 55.3153 175.439 54.886H176.615ZM183.565 50.728H182.445V49.762H183.565V47.788H184.783V49.762H186.701V50.728H184.783V54.97C184.783 55.3247 184.862 55.6093 185.021 55.824C185.18 56.0387 185.422 56.146 185.749 56.146C185.954 56.146 186.132 56.132 186.281 56.104C186.44 56.076 186.584 56.0387 186.715 55.992L186.925 56.93C186.738 56.9953 186.533 57.0467 186.309 57.084C186.094 57.1307 185.838 57.154 185.539 57.154C185.128 57.154 184.797 57.0933 184.545 56.972C184.293 56.8507 184.092 56.678 183.943 56.454C183.794 56.23 183.691 55.964 183.635 55.656C183.588 55.348 183.565 55.012 183.565 54.648V50.728ZM191.144 49.762H192.362V57H191.144V49.762ZM191.102 47.004H192.404V48.418H191.102V47.004ZM194.26 49.762H195.464V50.868C195.819 50.392 196.211 50.0513 196.64 49.846C197.07 49.6407 197.522 49.538 197.998 49.538C198.82 49.538 199.426 49.762 199.818 50.21C200.22 50.658 200.42 51.316 200.42 52.184V57H199.202V52.422C199.202 51.75 199.081 51.2787 198.838 51.008C198.596 50.728 198.222 50.588 197.718 50.588C197.448 50.588 197.177 50.6347 196.906 50.728C196.645 50.8213 196.407 50.9707 196.192 51.176C195.959 51.3813 195.782 51.6007 195.66 51.834C195.539 52.058 195.478 52.352 195.478 52.716V57H194.26V49.762ZM208.47 47.004H209.828L213.706 57H212.306L211.256 54.214H206.972L205.922 57H204.578L208.47 47.004ZM210.864 53.094L209.1 48.46L207.364 53.094H210.864ZM214.963 47.004H221.165V48.138H216.251V51.414H220.857V52.576H216.251V57H214.963V47.004ZM222.698 49.762H223.902V50.882C224.172 50.4807 224.49 50.1727 224.854 49.958C225.218 49.7433 225.605 49.636 226.016 49.636C226.268 49.636 226.482 49.6547 226.66 49.692L226.506 50.826C226.412 50.8073 226.319 50.7933 226.226 50.784C226.132 50.7653 226.03 50.756 225.918 50.756C225.694 50.756 225.465 50.798 225.232 50.882C224.998 50.9567 224.779 51.0873 224.574 51.274C224.368 51.4513 224.205 51.6567 224.084 51.89C223.972 52.1233 223.916 52.394 223.916 52.702V57H222.698V49.762ZM227.853 49.762H229.071V57H227.853V49.762ZM227.811 47.004H229.113V48.418H227.811V47.004ZM237.241 54.55C237.12 55.3807 236.803 56.034 236.289 56.51C235.776 56.986 235.053 57.224 234.119 57.224C233.569 57.224 233.079 57.1353 232.649 56.958C232.229 56.7807 231.875 56.5287 231.585 56.202C231.305 55.866 231.091 55.4647 230.941 54.998C230.801 54.522 230.731 53.99 230.731 53.402C230.731 52.8233 230.811 52.296 230.969 51.82C231.128 51.344 231.357 50.938 231.655 50.602C231.954 50.266 232.318 50.0047 232.747 49.818C233.177 49.6313 233.662 49.538 234.203 49.538C235.071 49.538 235.743 49.7527 236.219 50.182C236.695 50.602 236.999 51.1853 237.129 51.932L235.911 52.156C235.865 51.9227 235.799 51.708 235.715 51.512C235.641 51.316 235.533 51.148 235.393 51.008C235.253 50.8587 235.081 50.7467 234.875 50.672C234.679 50.588 234.441 50.546 234.161 50.546C233.779 50.546 233.452 50.6207 233.181 50.77C232.911 50.91 232.687 51.1107 232.509 51.372C232.341 51.624 232.215 51.9227 232.131 52.268C232.057 52.6133 232.019 52.982 232.019 53.374C232.019 53.766 232.057 54.1347 232.131 54.48C232.206 54.8253 232.327 55.1287 232.495 55.39C232.663 55.642 232.883 55.8427 233.153 55.992C233.424 56.1413 233.755 56.216 234.147 56.216C234.735 56.216 235.169 56.0667 235.449 55.768C235.739 55.4693 235.925 55.0633 236.009 54.55H237.241ZM243.298 56.006C243.036 56.3233 242.705 56.5987 242.304 56.832C241.902 57.056 241.403 57.168 240.806 57.168C240.442 57.168 240.106 57.1213 239.798 57.028C239.499 56.944 239.238 56.8133 239.014 56.636C238.799 56.4493 238.631 56.2207 238.51 55.95C238.388 55.6793 238.328 55.362 238.328 54.998C238.328 54.5033 238.43 54.102 238.636 53.794C238.85 53.486 239.13 53.2433 239.476 53.066C239.83 52.8887 240.227 52.7627 240.666 52.688C241.104 52.6133 241.557 52.5667 242.024 52.548L243.27 52.506V52.226C243.27 51.61 243.139 51.1667 242.878 50.896C242.616 50.6253 242.192 50.49 241.604 50.49C241.025 50.49 240.6 50.588 240.33 50.784C240.059 50.9707 239.882 51.232 239.798 51.568L238.692 51.442C238.822 50.7793 239.135 50.2987 239.63 50C240.124 49.692 240.796 49.538 241.646 49.538C242.168 49.538 242.607 49.6033 242.962 49.734C243.326 49.8553 243.62 50.0327 243.844 50.266C244.068 50.4993 244.226 50.7887 244.32 51.134C244.422 51.4793 244.474 51.8667 244.474 52.296V57H243.298V56.006ZM243.27 53.374L242.108 53.416C241.613 53.4347 241.202 53.4813 240.876 53.556C240.549 53.6307 240.288 53.7333 240.092 53.864C239.905 53.9853 239.77 54.1393 239.686 54.326C239.611 54.5127 239.574 54.7273 239.574 54.97C239.574 55.334 239.681 55.628 239.896 55.852C240.12 56.0667 240.484 56.174 240.988 56.174C241.706 56.174 242.266 55.9967 242.668 55.642C243.069 55.2873 243.27 54.802 243.27 54.186V53.374ZM50.938 71.004H52.156V74.77C52.4547 74.378 52.8 74.0747 53.192 73.86C53.584 73.6453 54.046 73.538 54.578 73.538C55.0913 73.538 55.5393 73.6313 55.922 73.818C56.314 74.0047 56.636 74.266 56.888 74.602C57.1493 74.938 57.3407 75.3393 57.462 75.806C57.5927 76.2633 57.658 76.772 57.658 77.332C57.658 77.9293 57.5833 78.4707 57.434 78.956C57.2847 79.432 57.07 79.838 56.79 80.174C56.51 80.51 56.1693 80.7713 55.768 80.958C55.376 81.1353 54.9327 81.224 54.438 81.224C54.018 81.224 53.6073 81.14 53.206 80.972C52.814 80.7947 52.4593 80.496 52.142 80.076V81H50.938V71.004ZM52.142 77.584C52.142 78.0507 52.1933 78.452 52.296 78.788C52.408 79.1147 52.5573 79.3853 52.744 79.6C52.9307 79.8147 53.1547 79.9733 53.416 80.076C53.6773 80.1693 53.962 80.216 54.27 80.216C54.5687 80.216 54.844 80.1647 55.096 80.062C55.3573 79.9593 55.5813 79.796 55.768 79.572C55.9547 79.3387 56.0993 79.04 56.202 78.676C56.314 78.312 56.37 77.8687 56.37 77.346C56.37 76.814 56.3093 76.3707 56.188 76.016C56.076 75.652 55.9267 75.3627 55.74 75.148C55.5533 74.9333 55.3387 74.7793 55.096 74.686C54.8627 74.5927 54.62 74.546 54.368 74.546C54.0507 74.546 53.7567 74.602 53.486 74.714C53.2153 74.8167 52.9773 74.9753 52.772 75.19C52.576 75.3953 52.422 75.6613 52.31 75.988C52.198 76.3053 52.142 76.674 52.142 77.094V77.584ZM59.2495 73.762H60.4675V78.326C60.4675 78.998 60.5748 79.474 60.7895 79.754C61.0135 80.034 61.3728 80.174 61.8675 80.174C62.4088 80.174 62.8988 79.978 63.3375 79.586C63.5708 79.3807 63.7482 79.166 63.8695 78.942C63.9908 78.7087 64.0515 78.41 64.0515 78.046V73.762H65.2695V81H64.0655V79.88C63.7108 80.3467 63.3282 80.6873 62.9175 80.902C62.5068 81.1167 62.0635 81.224 61.5875 81.224C60.7662 81.224 60.1688 81.0047 59.7955 80.566C59.4315 80.118 59.2495 79.4507 59.2495 78.564V73.762ZM67.5592 74.728H66.4392V73.762H67.5592V71.788H68.7772V73.762H70.6952V74.728H68.7772V78.97C68.7772 79.3247 68.8565 79.6093 69.0152 79.824C69.1738 80.0387 69.4165 80.146 69.7432 80.146C69.9485 80.146 70.1258 80.132 70.2752 80.104C70.4338 80.076 70.5785 80.0387 70.7092 79.992L70.9192 80.93C70.7325 80.9953 70.5272 81.0467 70.3032 81.084C70.0885 81.1307 69.8318 81.154 69.5332 81.154C69.1225 81.154 68.7912 81.0933 68.5392 80.972C68.2872 80.8507 68.0865 80.678 67.9372 80.454C67.7878 80.23 67.6852 79.964 67.6292 79.656C67.5825 79.348 67.5592 79.012 67.5592 78.648V74.728ZM75.1379 73.762H76.3559V81H75.1379V73.762ZM75.0959 71.004H76.3979V72.418H75.0959V71.004ZM86.6356 79.964C86.3369 80.3653 85.9916 80.678 85.5996 80.902C85.2076 81.1167 84.7456 81.224 84.2136 81.224C83.6816 81.224 83.2196 81.126 82.8276 80.93C82.4449 80.734 82.1276 80.468 81.8756 80.132C81.6236 79.7867 81.4369 79.3807 81.3156 78.914C81.1943 78.4473 81.1336 77.948 81.1336 77.416C81.1336 76.8187 81.2083 76.282 81.3576 75.806C81.5069 75.3207 81.7169 74.91 81.9876 74.574C82.2676 74.238 82.6036 73.9813 82.9956 73.804C83.3969 73.6267 83.8496 73.538 84.3536 73.538C84.7363 73.538 85.1236 73.6173 85.5156 73.776C85.9076 73.9253 86.2716 74.2147 86.6076 74.644V71.004H87.8256V81H86.6356V79.964ZM86.6496 77.164C86.6496 76.5853 86.5843 76.1373 86.4536 75.82C86.3323 75.4933 86.1269 75.218 85.8376 74.994C85.6323 74.826 85.4223 74.7093 85.2076 74.644C85.0023 74.5787 84.7736 74.546 84.5216 74.546C84.2229 74.546 83.9429 74.5973 83.6816 74.7C83.4296 74.8027 83.2056 74.9707 83.0096 75.204C82.8229 75.428 82.6736 75.722 82.5616 76.086C82.4589 76.4407 82.4076 76.8747 82.4076 77.388C82.4076 77.92 82.4636 78.368 82.5756 78.732C82.6969 79.096 82.8509 79.3853 83.0376 79.6C83.2336 79.8147 83.4483 79.9687 83.6816 80.062C83.9243 80.1553 84.1716 80.202 84.4236 80.202C84.6943 80.202 84.9369 80.1693 85.1516 80.104C85.3663 80.0387 85.5809 79.9267 85.7956 79.768C86.0756 79.544 86.2856 79.264 86.4256 78.928C86.5749 78.592 86.6496 78.1673 86.6496 77.654V77.164ZM92.9594 81.224C92.4088 81.224 91.9188 81.1353 91.4894 80.958C91.0601 80.7807 90.6961 80.5287 90.3974 80.202C90.0988 79.8753 89.8701 79.474 89.7114 78.998C89.5528 78.522 89.4734 77.99 89.4734 77.402C89.4734 76.814 89.5574 76.282 89.7254 75.806C89.8934 75.33 90.1314 74.924 90.4394 74.588C90.7474 74.252 91.1161 73.9953 91.5454 73.818C91.9841 73.6313 92.4694 73.538 93.0014 73.538C93.5428 73.538 94.0281 73.6267 94.4574 73.804C94.8868 73.9813 95.2508 74.238 95.5494 74.574C95.8574 74.9007 96.0908 75.2973 96.2494 75.764C96.4081 76.2307 96.4874 76.758 96.4874 77.346C96.4874 77.9433 96.4034 78.48 96.2354 78.956C96.0768 79.432 95.8434 79.838 95.5354 80.174C95.2368 80.51 94.8681 80.7713 94.4294 80.958C93.9908 81.1353 93.5008 81.224 92.9594 81.224ZM92.9734 80.216C93.3654 80.216 93.7014 80.146 93.9814 80.006C94.2614 79.866 94.4901 79.67 94.6674 79.418C94.8541 79.166 94.9894 78.8673 95.0734 78.522C95.1574 78.1673 95.1994 77.78 95.1994 77.36C95.1994 76.9493 95.1574 76.5713 95.0734 76.226C94.9894 75.8807 94.8541 75.5867 94.6674 75.344C94.4901 75.092 94.2614 74.896 93.9814 74.756C93.7014 74.616 93.3654 74.546 92.9734 74.546C92.5814 74.546 92.2454 74.616 91.9654 74.756C91.6948 74.896 91.4661 75.092 91.2794 75.344C91.1021 75.5867 90.9714 75.8807 90.8874 76.226C90.8034 76.5713 90.7614 76.954 90.7614 77.374C90.7614 77.794 90.8034 78.1767 90.8874 78.522C90.9714 78.8673 91.1021 79.166 91.2794 79.418C91.4568 79.67 91.6854 79.866 91.9654 80.006C92.2454 80.146 92.5814 80.216 92.9734 80.216ZM98.1196 73.762H99.3236V74.868C99.6783 74.392 100.07 74.0513 100.5 73.846C100.929 73.6407 101.382 73.538 101.858 73.538C102.679 73.538 103.286 73.762 103.678 74.21C104.079 74.658 104.28 75.316 104.28 76.184V81H103.062V76.422C103.062 75.75 102.94 75.2787 102.698 75.008C102.455 74.728 102.082 74.588 101.578 74.588C101.307 74.588 101.036 74.6347 100.766 74.728C100.504 74.8213 100.266 74.9707 100.052 75.176C99.8183 75.3813 99.641 75.6007 99.5196 75.834C99.3983 76.058 99.3376 76.352 99.3376 76.716V81H98.1196V73.762ZM106.524 74.728H105.404V73.762H106.524V71.788H107.742V73.762H109.66V74.728H107.742V78.97C107.742 79.3247 107.821 79.6093 107.98 79.824C108.139 80.0387 108.381 80.146 108.708 80.146C108.913 80.146 109.091 80.132 109.24 80.104C109.399 80.076 109.543 80.0387 109.674 79.992L109.884 80.93C109.697 80.9953 109.492 81.0467 109.268 81.084C109.053 81.1307 108.797 81.154 108.498 81.154C108.087 81.154 107.756 81.0933 107.504 80.972C107.252 80.8507 107.051 80.678 106.902 80.454C106.753 80.23 106.65 79.964 106.594 79.656C106.547 79.348 106.524 79.012 106.524 78.648V74.728ZM114.075 71.004H115.279V76.828L118.667 73.762H120.137L117.547 76.184L120.417 81H119.031L116.637 76.898L115.279 78.116V81H114.075V71.004ZM121.403 73.762H122.607V74.868C122.962 74.392 123.354 74.0513 123.783 73.846C124.212 73.6407 124.665 73.538 125.141 73.538C125.962 73.538 126.569 73.762 126.961 74.21C127.362 74.658 127.563 75.316 127.563 76.184V81H126.345V76.422C126.345 75.75 126.224 75.2787 125.981 75.008C125.738 74.728 125.365 74.588 124.861 74.588C124.59 74.588 124.32 74.6347 124.049 74.728C123.788 74.8213 123.55 74.9707 123.335 75.176C123.102 75.3813 122.924 75.6007 122.803 75.834C122.682 76.058 122.621 76.352 122.621 76.716V81H121.403V73.762ZM132.635 81.224C132.085 81.224 131.595 81.1353 131.165 80.958C130.736 80.7807 130.372 80.5287 130.073 80.202C129.775 79.8753 129.546 79.474 129.387 78.998C129.229 78.522 129.149 77.99 129.149 77.402C129.149 76.814 129.233 76.282 129.401 75.806C129.569 75.33 129.807 74.924 130.115 74.588C130.423 74.252 130.792 73.9953 131.221 73.818C131.66 73.6313 132.145 73.538 132.677 73.538C133.219 73.538 133.704 73.6267 134.133 73.804C134.563 73.9813 134.927 74.238 135.225 74.574C135.533 74.9007 135.767 75.2973 135.925 75.764C136.084 76.2307 136.163 76.758 136.163 77.346C136.163 77.9433 136.079 78.48 135.911 78.956C135.753 79.432 135.519 79.838 135.211 80.174C134.913 80.51 134.544 80.7713 134.105 80.958C133.667 81.1353 133.177 81.224 132.635 81.224ZM132.649 80.216C133.041 80.216 133.377 80.146 133.657 80.006C133.937 79.866 134.166 79.67 134.343 79.418C134.53 79.166 134.665 78.8673 134.749 78.522C134.833 78.1673 134.875 77.78 134.875 77.36C134.875 76.9493 134.833 76.5713 134.749 76.226C134.665 75.8807 134.53 75.5867 134.343 75.344C134.166 75.092 133.937 74.896 133.657 74.756C133.377 74.616 133.041 74.546 132.649 74.546C132.257 74.546 131.921 74.616 131.641 74.756C131.371 74.896 131.142 75.092 130.955 75.344C130.778 75.5867 130.647 75.8807 130.563 76.226C130.479 76.5713 130.437 76.954 130.437 77.374C130.437 77.794 130.479 78.1767 130.563 78.522C130.647 78.8673 130.778 79.166 130.955 79.418C131.133 79.67 131.361 79.866 131.641 80.006C131.921 80.146 132.257 80.216 132.649 80.216ZM136.969 73.762H138.299L139.755 79.53L141.421 73.804H142.653L144.277 79.53L145.719 73.762H147.007L144.893 81H143.605L141.981 75.232L140.343 81H139.069L136.969 73.762ZM151.18 71.004H152.398V74.84C152.753 74.3827 153.14 74.0513 153.56 73.846C153.99 73.6407 154.442 73.538 154.918 73.538C155.74 73.538 156.346 73.762 156.738 74.21C157.14 74.658 157.34 75.316 157.34 76.184V81H156.108V76.422C156.108 75.75 155.987 75.2787 155.744 75.008C155.511 74.728 155.142 74.588 154.638 74.588C154.368 74.588 154.097 74.6347 153.826 74.728C153.565 74.8213 153.327 74.9707 153.112 75.176C152.879 75.3813 152.702 75.6007 152.58 75.834C152.459 76.058 152.398 76.352 152.398 76.716V81H151.18V71.004ZM162.413 81.224C161.862 81.224 161.372 81.1353 160.943 80.958C160.513 80.7807 160.149 80.5287 159.851 80.202C159.552 79.8753 159.323 79.474 159.165 78.998C159.006 78.522 158.927 77.99 158.927 77.402C158.927 76.814 159.011 76.282 159.179 75.806C159.347 75.33 159.585 74.924 159.893 74.588C160.201 74.252 160.569 73.9953 160.999 73.818C161.437 73.6313 161.923 73.538 162.455 73.538C162.996 73.538 163.481 73.6267 163.911 73.804C164.34 73.9813 164.704 74.238 165.003 74.574C165.311 74.9007 165.544 75.2973 165.703 75.764C165.861 76.2307 165.941 76.758 165.941 77.346C165.941 77.9433 165.857 78.48 165.689 78.956C165.53 79.432 165.297 79.838 164.989 80.174C164.69 80.51 164.321 80.7713 163.883 80.958C163.444 81.1353 162.954 81.224 162.413 81.224ZM162.427 80.216C162.819 80.216 163.155 80.146 163.435 80.006C163.715 79.866 163.943 79.67 164.121 79.418C164.307 79.166 164.443 78.8673 164.527 78.522C164.611 78.1673 164.653 77.78 164.653 77.36C164.653 76.9493 164.611 76.5713 164.527 76.226C164.443 75.8807 164.307 75.5867 164.121 75.344C163.943 75.092 163.715 74.896 163.435 74.756C163.155 74.616 162.819 74.546 162.427 74.546C162.035 74.546 161.699 74.616 161.419 74.756C161.148 74.896 160.919 75.092 160.733 75.344C160.555 75.5867 160.425 75.8807 160.341 76.226C160.257 76.5713 160.215 76.954 160.215 77.374C160.215 77.794 160.257 78.1767 160.341 78.522C160.425 78.8673 160.555 79.166 160.733 79.418C160.91 79.67 161.139 79.866 161.419 80.006C161.699 80.146 162.035 80.216 162.427 80.216ZM166.747 73.762H168.077L169.533 79.53L171.199 73.804H172.431L174.055 79.53L175.497 73.762H176.785L174.671 81H173.383L171.759 75.232L170.121 81H168.847L166.747 73.762ZM181.378 74.728H180.258V73.762H181.378V71.788H182.596V73.762H184.514V74.728H182.596V78.97C182.596 79.3247 182.675 79.6093 182.834 79.824C182.992 80.0387 183.235 80.146 183.562 80.146C183.767 80.146 183.944 80.132 184.094 80.104C184.252 80.076 184.397 80.0387 184.528 79.992L184.738 80.93C184.551 80.9953 184.346 81.0467 184.122 81.084C183.907 81.1307 183.65 81.154 183.352 81.154C182.941 81.154 182.61 81.0933 182.358 80.972C182.106 80.8507 181.905 80.678 181.756 80.454C181.606 80.23 181.504 79.964 181.448 79.656C181.401 79.348 181.378 79.012 181.378 78.648V74.728ZM188.813 81.224C188.262 81.224 187.772 81.1353 187.343 80.958C186.914 80.7807 186.55 80.5287 186.251 80.202C185.952 79.8753 185.724 79.474 185.565 78.998C185.406 78.522 185.327 77.99 185.327 77.402C185.327 76.814 185.411 76.282 185.579 75.806C185.747 75.33 185.985 74.924 186.293 74.588C186.601 74.252 186.97 73.9953 187.399 73.818C187.838 73.6313 188.323 73.538 188.855 73.538C189.396 73.538 189.882 73.6267 190.311 73.804C190.74 73.9813 191.104 74.238 191.403 74.574C191.711 74.9007 191.944 75.2973 192.103 75.764C192.262 76.2307 192.341 76.758 192.341 77.346C192.341 77.9433 192.257 78.48 192.089 78.956C191.93 79.432 191.697 79.838 191.389 80.174C191.09 80.51 190.722 80.7713 190.283 80.958C189.844 81.1353 189.354 81.224 188.813 81.224ZM188.827 80.216C189.219 80.216 189.555 80.146 189.835 80.006C190.115 79.866 190.344 79.67 190.521 79.418C190.708 79.166 190.843 78.8673 190.927 78.522C191.011 78.1673 191.053 77.78 191.053 77.36C191.053 76.9493 191.011 76.5713 190.927 76.226C190.843 75.8807 190.708 75.5867 190.521 75.344C190.344 75.092 190.115 74.896 189.835 74.756C189.555 74.616 189.219 74.546 188.827 74.546C188.435 74.546 188.099 74.616 187.819 74.756C187.548 74.896 187.32 75.092 187.133 75.344C186.956 75.5867 186.825 75.8807 186.741 76.226C186.657 76.5713 186.615 76.954 186.615 77.374C186.615 77.794 186.657 78.1767 186.741 78.522C186.825 78.8673 186.956 79.166 187.133 79.418C187.31 79.67 187.539 79.866 187.819 80.006C188.099 80.146 188.435 80.216 188.827 80.216ZM198.322 81.672C198.425 82.1107 198.621 82.4233 198.91 82.61C199.209 82.7967 199.671 82.89 200.296 82.89C201.062 82.89 201.589 82.6753 201.878 82.246C202.177 81.826 202.326 81.21 202.326 80.398V79.628C202.046 80.02 201.706 80.3233 201.304 80.538C200.912 80.7527 200.45 80.86 199.918 80.86C199.396 80.86 198.938 80.7667 198.546 80.58C198.164 80.384 197.846 80.1227 197.594 79.796C197.342 79.46 197.151 79.0727 197.02 78.634C196.899 78.1953 196.838 77.724 196.838 77.22C196.838 76.6693 196.913 76.17 197.062 75.722C197.212 75.2647 197.426 74.8773 197.706 74.56C197.986 74.2333 198.322 73.9813 198.714 73.804C199.116 73.6267 199.564 73.538 200.058 73.538C200.46 73.538 200.856 73.622 201.248 73.79C201.65 73.9487 202.014 74.2473 202.34 74.686V73.762H203.544V79.824C203.544 80.4493 203.498 81.0093 203.404 81.504C203.32 82.008 203.157 82.4327 202.914 82.778C202.681 83.1327 202.354 83.4033 201.934 83.59C201.514 83.7767 200.973 83.87 200.31 83.87C199.358 83.87 198.612 83.6973 198.07 83.352C197.529 83.016 197.212 82.456 197.118 81.672H198.322ZM202.354 77.108C202.354 76.632 202.298 76.2353 202.186 75.918C202.074 75.5913 201.92 75.3253 201.724 75.12C201.528 74.9147 201.3 74.77 201.038 74.686C200.786 74.5927 200.52 74.546 200.24 74.546C199.942 74.546 199.662 74.5973 199.4 74.7C199.148 74.7933 198.924 74.9473 198.728 75.162C198.542 75.3767 198.392 75.652 198.28 75.988C198.178 76.324 198.126 76.73 198.126 77.206C198.126 77.6913 198.182 78.102 198.294 78.438C198.416 78.774 198.57 79.0447 198.756 79.25C198.943 79.4553 199.158 79.6047 199.4 79.698C199.652 79.7913 199.904 79.838 200.156 79.838C200.474 79.838 200.763 79.7867 201.024 79.684C201.295 79.5813 201.528 79.4273 201.724 79.222C201.92 79.0167 202.074 78.76 202.186 78.452C202.298 78.1347 202.354 77.766 202.354 77.346V77.108ZM208.665 81.224C208.114 81.224 207.624 81.1353 207.195 80.958C206.765 80.7807 206.401 80.5287 206.103 80.202C205.804 79.8753 205.575 79.474 205.417 78.998C205.258 78.522 205.179 77.99 205.179 77.402C205.179 76.814 205.263 76.282 205.431 75.806C205.599 75.33 205.837 74.924 206.145 74.588C206.453 74.252 206.821 73.9953 207.251 73.818C207.689 73.6313 208.175 73.538 208.707 73.538C209.248 73.538 209.733 73.6267 210.163 73.804C210.592 73.9813 210.956 74.238 211.255 74.574C211.563 74.9007 211.796 75.2973 211.955 75.764C212.113 76.2307 212.193 76.758 212.193 77.346C212.193 77.9433 212.109 78.48 211.941 78.956C211.782 79.432 211.549 79.838 211.241 80.174C210.942 80.51 210.573 80.7713 210.135 80.958C209.696 81.1353 209.206 81.224 208.665 81.224ZM208.679 80.216C209.071 80.216 209.407 80.146 209.687 80.006C209.967 79.866 210.195 79.67 210.373 79.418C210.559 79.166 210.695 78.8673 210.779 78.522C210.863 78.1673 210.905 77.78 210.905 77.36C210.905 76.9493 210.863 76.5713 210.779 76.226C210.695 75.8807 210.559 75.5867 210.373 75.344C210.195 75.092 209.967 74.896 209.687 74.756C209.407 74.616 209.071 74.546 208.679 74.546C208.287 74.546 207.951 74.616 207.671 74.756C207.4 74.896 207.171 75.092 206.985 75.344C206.807 75.5867 206.677 75.8807 206.593 76.226C206.509 76.5713 206.467 76.954 206.467 77.374C206.467 77.794 206.509 78.1767 206.593 78.522C206.677 78.8673 206.807 79.166 206.985 79.418C207.162 79.67 207.391 79.866 207.671 80.006C207.951 80.146 208.287 80.216 208.679 80.216ZM55.446 104.006C55.1847 104.323 54.8533 104.599 54.452 104.832C54.0507 105.056 53.5513 105.168 52.954 105.168C52.59 105.168 52.254 105.121 51.946 105.028C51.6473 104.944 51.386 104.813 51.162 104.636C50.9473 104.449 50.7793 104.221 50.658 103.95C50.5367 103.679 50.476 103.362 50.476 102.998C50.476 102.503 50.5787 102.102 50.784 101.794C50.9987 101.486 51.2787 101.243 51.624 101.066C51.9787 100.889 52.3753 100.763 52.814 100.688C53.2527 100.613 53.7053 100.567 54.172 100.548L55.418 100.506V100.226C55.418 99.61 55.2873 99.1667 55.026 98.896C54.7647 98.6253 54.34 98.49 53.752 98.49C53.1733 98.49 52.7487 98.588 52.478 98.784C52.2073 98.9707 52.03 99.232 51.946 99.568L50.84 99.442C50.9707 98.7793 51.2833 98.2987 51.778 98C52.2727 97.692 52.9447 97.538 53.794 97.538C54.3167 97.538 54.7553 97.6033 55.11 97.734C55.474 97.8553 55.768 98.0327 55.992 98.266C56.216 98.4993 56.3747 98.7887 56.468 99.134C56.5707 99.4793 56.622 99.8667 56.622 100.296V105H55.446V104.006ZM55.418 101.374L54.256 101.416C53.7613 101.435 53.3507 101.481 53.024 101.556C52.6973 101.631 52.436 101.733 52.24 101.864C52.0533 101.985 51.918 102.139 51.834 102.326C51.7593 102.513 51.722 102.727 51.722 102.97C51.722 103.334 51.8293 103.628 52.044 103.852C52.268 104.067 52.632 104.174 53.136 104.174C53.8547 104.174 54.4147 103.997 54.816 103.642C55.2173 103.287 55.418 102.802 55.418 102.186V101.374ZM58.4712 95.004H59.6892V98.77C59.9879 98.378 60.3332 98.0747 60.7252 97.86C61.1172 97.6453 61.5792 97.538 62.1112 97.538C62.6245 97.538 63.0725 97.6313 63.4552 97.818C63.8472 98.0047 64.1692 98.266 64.4212 98.602C64.6825 98.938 64.8739 99.3393 64.9952 99.806C65.1259 100.263 65.1912 100.772 65.1912 101.332C65.1912 101.929 65.1165 102.471 64.9672 102.956C64.8179 103.432 64.6032 103.838 64.3232 104.174C64.0432 104.51 63.7025 104.771 63.3012 104.958C62.9092 105.135 62.4659 105.224 61.9712 105.224C61.5512 105.224 61.1405 105.14 60.7392 104.972C60.3472 104.795 59.9925 104.496 59.6752 104.076V105H58.4712V95.004ZM59.6752 101.584C59.6752 102.051 59.7265 102.452 59.8292 102.788C59.9412 103.115 60.0905 103.385 60.2772 103.6C60.4639 103.815 60.6879 103.973 60.9492 104.076C61.2105 104.169 61.4952 104.216 61.8032 104.216C62.1019 104.216 62.3772 104.165 62.6292 104.062C62.8905 103.959 63.1145 103.796 63.3012 103.572C63.4879 103.339 63.6325 103.04 63.7352 102.676C63.8472 102.312 63.9032 101.869 63.9032 101.346C63.9032 100.814 63.8425 100.371 63.7212 100.016C63.6092 99.652 63.4599 99.3627 63.2732 99.148C63.0865 98.9333 62.8719 98.7793 62.6292 98.686C62.3959 98.5927 62.1532 98.546 61.9012 98.546C61.5839 98.546 61.2899 98.602 61.0192 98.714C60.7485 98.8167 60.5105 98.9753 60.3052 99.19C60.1092 99.3953 59.9552 99.6613 59.8432 99.988C59.7312 100.305 59.6752 100.674 59.6752 101.094V101.584ZM70.0727 105.224C69.5221 105.224 69.0321 105.135 68.6027 104.958C68.1734 104.781 67.8094 104.529 67.5107 104.202C67.2121 103.875 66.9834 103.474 66.8247 102.998C66.6661 102.522 66.5867 101.99 66.5867 101.402C66.5867 100.814 66.6707 100.282 66.8387 99.806C67.0067 99.33 67.2447 98.924 67.5527 98.588C67.8607 98.252 68.2294 97.9953 68.6587 97.818C69.0974 97.6313 69.5827 97.538 70.1147 97.538C70.6561 97.538 71.1414 97.6267 71.5707 97.804C72.0001 97.9813 72.3641 98.238 72.6627 98.574C72.9707 98.9007 73.2041 99.2973 73.3627 99.764C73.5214 100.231 73.6007 100.758 73.6007 101.346C73.6007 101.943 73.5167 102.48 73.3487 102.956C73.1901 103.432 72.9567 103.838 72.6487 104.174C72.3501 104.51 71.9814 104.771 71.5427 104.958C71.1041 105.135 70.6141 105.224 70.0727 105.224ZM70.0867 104.216C70.4787 104.216 70.8147 104.146 71.0947 104.006C71.3747 103.866 71.6034 103.67 71.7807 103.418C71.9674 103.166 72.1027 102.867 72.1867 102.522C72.2707 102.167 72.3127 101.78 72.3127 101.36C72.3127 100.949 72.2707 100.571 72.1867 100.226C72.1027 99.8807 71.9674 99.5867 71.7807 99.344C71.6034 99.092 71.3747 98.896 71.0947 98.756C70.8147 98.616 70.4787 98.546 70.0867 98.546C69.6947 98.546 69.3587 98.616 69.0787 98.756C68.8081 98.896 68.5794 99.092 68.3927 99.344C68.2154 99.5867 68.0847 99.8807 68.0007 100.226C67.9167 100.571 67.8747 100.954 67.8747 101.374C67.8747 101.794 67.9167 102.177 68.0007 102.522C68.0847 102.867 68.2154 103.166 68.3927 103.418C68.5701 103.67 68.7987 103.866 69.0787 104.006C69.3587 104.146 69.6947 104.216 70.0867 104.216ZM75.1909 97.762H76.4089V102.326C76.4089 102.998 76.5163 103.474 76.7309 103.754C76.9549 104.034 77.3143 104.174 77.8089 104.174C78.3503 104.174 78.8403 103.978 79.2789 103.586C79.5123 103.381 79.6896 103.166 79.8109 102.942C79.9323 102.709 79.9929 102.41 79.9929 102.046V97.762H81.2109V105H80.0069V103.88C79.6523 104.347 79.2696 104.687 78.8589 104.902C78.4483 105.117 78.0049 105.224 77.5289 105.224C76.7076 105.224 76.1103 105.005 75.7369 104.566C75.3729 104.118 75.1909 103.451 75.1909 102.564V97.762ZM83.5006 98.728H82.3806V97.762H83.5006V95.788H84.7186V97.762H86.6366V98.728H84.7186V102.97C84.7186 103.325 84.7979 103.609 84.9566 103.824C85.1152 104.039 85.3579 104.146 85.6846 104.146C85.8899 104.146 86.0672 104.132 86.2166 104.104C86.3752 104.076 86.5199 104.039 86.6506 103.992L86.8606 104.93C86.6739 104.995 86.4686 105.047 86.2446 105.084C86.0299 105.131 85.7732 105.154 85.4746 105.154C85.0639 105.154 84.7326 105.093 84.4806 104.972C84.2286 104.851 84.0279 104.678 83.8786 104.454C83.7292 104.23 83.6266 103.964 83.5706 103.656C83.5239 103.348 83.5006 103.012 83.5006 102.648V98.728ZM91.0793 97.762H92.2973V105H91.0793V97.762ZM91.0373 95.004H92.3393V96.418H91.0373V95.004ZM94.6158 98.728H93.4958V97.762H94.6158V95.788H95.8338V97.762H97.7518V98.728H95.8338V102.97C95.8338 103.325 95.9131 103.609 96.0718 103.824C96.2305 104.039 96.4731 104.146 96.7998 104.146C97.0051 104.146 97.1825 104.132 97.3318 104.104C97.4905 104.076 97.6351 104.039 97.7658 103.992L97.9758 104.93C97.7891 104.995 97.5838 105.047 97.3598 105.084C97.1451 105.131 96.8885 105.154 96.5898 105.154C96.1791 105.154 95.8478 105.093 95.5958 104.972C95.3438 104.851 95.1431 104.678 94.9938 104.454C94.8445 104.23 94.7418 103.964 94.6858 103.656C94.6391 103.348 94.6158 103.012 94.6158 102.648V98.728ZM102.195 97.762H103.413V105H102.195V97.762ZM102.153 95.004H103.455V96.418H102.153V95.004ZM105.311 97.762H106.515V98.868C106.87 98.392 107.262 98.0513 107.691 97.846C108.12 97.6407 108.573 97.538 109.049 97.538C109.87 97.538 110.477 97.762 110.869 98.21C111.27 98.658 111.471 99.316 111.471 100.184V105H110.253V100.422C110.253 99.75 110.132 99.2787 109.889 99.008C109.646 98.728 109.273 98.588 108.769 98.588C108.498 98.588 108.228 98.6347 107.957 98.728C107.696 98.8213 107.458 98.9707 107.243 99.176C107.01 99.3813 106.832 99.6007 106.711 99.834C106.59 100.058 106.529 100.352 106.529 100.716V105H105.311V97.762ZM120.921 104.006C120.659 104.323 120.328 104.599 119.927 104.832C119.525 105.056 119.026 105.168 118.429 105.168C118.065 105.168 117.729 105.121 117.421 105.028C117.122 104.944 116.861 104.813 116.637 104.636C116.422 104.449 116.254 104.221 116.133 103.95C116.011 103.679 115.951 103.362 115.951 102.998C115.951 102.503 116.053 102.102 116.259 101.794C116.473 101.486 116.753 101.243 117.099 101.066C117.453 100.889 117.85 100.763 118.289 100.688C118.727 100.613 119.18 100.567 119.647 100.548L120.893 100.506V100.226C120.893 99.61 120.762 99.1667 120.501 98.896C120.239 98.6253 119.815 98.49 119.227 98.49C118.648 98.49 118.223 98.588 117.953 98.784C117.682 98.9707 117.505 99.232 117.421 99.568L116.315 99.442C116.445 98.7793 116.758 98.2987 117.253 98C117.747 97.692 118.419 97.538 119.269 97.538C119.791 97.538 120.23 97.6033 120.585 97.734C120.949 97.8553 121.243 98.0327 121.467 98.266C121.691 98.4993 121.849 98.7887 121.943 99.134C122.045 99.4793 122.097 99.8667 122.097 100.296V105H120.921V104.006ZM120.893 101.374L119.731 101.416C119.236 101.435 118.825 101.481 118.499 101.556C118.172 101.631 117.911 101.733 117.715 101.864C117.528 101.985 117.393 102.139 117.309 102.326C117.234 102.513 117.197 102.727 117.197 102.97C117.197 103.334 117.304 103.628 117.519 103.852C117.743 104.067 118.107 104.174 118.611 104.174C119.329 104.174 119.889 103.997 120.291 103.642C120.692 103.287 120.893 102.802 120.893 102.186V101.374ZM127.847 102.886C127.931 103.39 128.141 103.745 128.477 103.95C128.822 104.146 129.289 104.244 129.877 104.244C130.493 104.244 130.927 104.141 131.179 103.936C131.44 103.721 131.571 103.441 131.571 103.096C131.571 102.956 131.552 102.825 131.515 102.704C131.487 102.573 131.426 102.461 131.333 102.368C131.24 102.265 131.109 102.177 130.941 102.102C130.773 102.027 130.554 101.967 130.283 101.92L129.359 101.78C128.948 101.715 128.589 101.631 128.281 101.528C127.973 101.425 127.712 101.295 127.497 101.136C127.282 100.968 127.119 100.767 127.007 100.534C126.904 100.291 126.853 100.002 126.853 99.666C126.853 99.33 126.923 99.0313 127.063 98.77C127.212 98.5087 127.413 98.2893 127.665 98.112C127.926 97.9253 128.23 97.7853 128.575 97.692C128.93 97.5893 129.312 97.538 129.723 97.538C130.246 97.538 130.68 97.5893 131.025 97.692C131.38 97.7947 131.669 97.9347 131.893 98.112C132.117 98.2893 132.29 98.4993 132.411 98.742C132.532 98.9847 132.626 99.2413 132.691 99.512L131.585 99.694C131.52 99.498 131.445 99.3253 131.361 99.176C131.277 99.0267 131.165 98.9053 131.025 98.812C130.885 98.7093 130.712 98.6347 130.507 98.588C130.311 98.532 130.064 98.504 129.765 98.504C129.429 98.504 129.149 98.5367 128.925 98.602C128.701 98.658 128.519 98.7373 128.379 98.84C128.248 98.9427 128.155 99.0593 128.099 99.19C128.043 99.3113 128.015 99.442 128.015 99.582C128.015 99.7313 128.034 99.8667 128.071 99.988C128.108 100.1 128.178 100.203 128.281 100.296C128.384 100.38 128.524 100.455 128.701 100.52C128.878 100.585 129.107 100.641 129.387 100.688L130.437 100.856C131.286 100.996 131.893 101.239 132.257 101.584C132.63 101.929 132.817 102.433 132.817 103.096C132.817 103.404 132.756 103.689 132.635 103.95C132.514 104.202 132.332 104.426 132.089 104.622C131.846 104.809 131.543 104.953 131.179 105.056C130.815 105.168 130.39 105.224 129.905 105.224C129.466 105.224 129.056 105.182 128.673 105.098C128.3 105.014 127.968 104.883 127.679 104.706C127.39 104.519 127.156 104.277 126.979 103.978C126.802 103.679 126.699 103.315 126.671 102.886H127.847ZM138.885 104.006C138.624 104.323 138.293 104.599 137.891 104.832C137.49 105.056 136.991 105.168 136.393 105.168C136.029 105.168 135.693 105.121 135.385 105.028C135.087 104.944 134.825 104.813 134.601 104.636C134.387 104.449 134.219 104.221 134.097 103.95C133.976 103.679 133.915 103.362 133.915 102.998C133.915 102.503 134.018 102.102 134.223 101.794C134.438 101.486 134.718 101.243 135.063 101.066C135.418 100.889 135.815 100.763 136.253 100.688C136.692 100.613 137.145 100.567 137.611 100.548L138.857 100.506V100.226C138.857 99.61 138.727 99.1667 138.465 98.896C138.204 98.6253 137.779 98.49 137.191 98.49C136.613 98.49 136.188 98.588 135.917 98.784C135.647 98.9707 135.469 99.232 135.385 99.568L134.279 99.442C134.41 98.7793 134.723 98.2987 135.217 98C135.712 97.692 136.384 97.538 137.233 97.538C137.756 97.538 138.195 97.6033 138.549 97.734C138.913 97.8553 139.207 98.0327 139.431 98.266C139.655 98.4993 139.814 98.7887 139.907 99.134C140.01 99.4793 140.061 99.8667 140.061 100.296V105H138.885V104.006ZM138.857 101.374L137.695 101.416C137.201 101.435 136.79 101.481 136.463 101.556C136.137 101.631 135.875 101.733 135.679 101.864C135.493 101.985 135.357 102.139 135.273 102.326C135.199 102.513 135.161 102.727 135.161 102.97C135.161 103.334 135.269 103.628 135.483 103.852C135.707 104.067 136.071 104.174 136.575 104.174C137.294 104.174 137.854 103.997 138.255 103.642C138.657 103.287 138.857 102.802 138.857 102.186V101.374ZM142.345 98.728H141.211V97.762H142.345V97.132C142.345 96.74 142.401 96.404 142.513 96.124C142.634 95.844 142.793 95.6153 142.989 95.438C143.194 95.2513 143.427 95.116 143.689 95.032C143.959 94.9387 144.244 94.892 144.543 94.892C144.757 94.892 144.963 94.906 145.159 94.934C145.355 94.9527 145.56 94.9947 145.775 95.06L145.579 96.012C145.429 95.9653 145.285 95.9373 145.145 95.928C145.014 95.9093 144.883 95.9 144.753 95.9C144.426 95.9 144.146 95.9887 143.913 96.166C143.679 96.334 143.563 96.6467 143.563 97.104V97.762H145.397V98.728H143.563V105H142.345V98.728ZM152.53 102.97C152.409 103.67 152.096 104.221 151.592 104.622C151.097 105.023 150.383 105.224 149.45 105.224C148.349 105.224 147.504 104.893 146.916 104.23C146.328 103.558 146.034 102.625 146.034 101.43C146.034 100.805 146.118 100.249 146.286 99.764C146.454 99.2787 146.687 98.8727 146.986 98.546C147.294 98.2193 147.658 97.972 148.078 97.804C148.498 97.6267 148.955 97.538 149.45 97.538C150.01 97.538 150.491 97.6267 150.892 97.804C151.293 97.9813 151.62 98.2287 151.872 98.546C152.133 98.854 152.325 99.2227 152.446 99.652C152.577 100.081 152.642 100.553 152.642 101.066V101.682H147.266C147.266 102.046 147.313 102.387 147.406 102.704C147.509 103.012 147.649 103.283 147.826 103.516C148.013 103.74 148.241 103.917 148.512 104.048C148.783 104.179 149.095 104.244 149.45 104.244C150.057 104.244 150.5 104.132 150.78 103.908C151.06 103.675 151.251 103.362 151.354 102.97H152.53ZM151.424 100.772C151.424 100.427 151.387 100.114 151.312 99.834C151.237 99.554 151.121 99.316 150.962 99.12C150.803 98.9147 150.598 98.756 150.346 98.644C150.094 98.532 149.791 98.476 149.436 98.476C148.792 98.476 148.288 98.672 147.924 99.064C147.569 99.456 147.359 100.025 147.294 100.772H151.424ZM156.548 97.762H157.878L159.334 103.53L161 97.804H162.232L163.856 103.53L165.298 97.762H166.586L164.472 105H163.184L161.56 99.232L159.922 105H158.648L156.548 97.762ZM172.149 104.006C171.888 104.323 171.556 104.599 171.155 104.832C170.754 105.056 170.254 105.168 169.657 105.168C169.293 105.168 168.957 105.121 168.649 105.028C168.35 104.944 168.089 104.813 167.865 104.636C167.65 104.449 167.482 104.221 167.361 103.95C167.24 103.679 167.179 103.362 167.179 102.998C167.179 102.503 167.282 102.102 167.487 101.794C167.702 101.486 167.982 101.243 168.327 101.066C168.682 100.889 169.078 100.763 169.517 100.688C169.956 100.613 170.408 100.567 170.875 100.548L172.121 100.506V100.226C172.121 99.61 171.99 99.1667 171.729 98.896C171.468 98.6253 171.043 98.49 170.455 98.49C169.876 98.49 169.452 98.588 169.181 98.784C168.91 98.9707 168.733 99.232 168.649 99.568L167.543 99.442C167.674 98.7793 167.986 98.2987 168.481 98C168.976 97.692 169.648 97.538 170.497 97.538C171.02 97.538 171.458 97.6033 171.813 97.734C172.177 97.8553 172.471 98.0327 172.695 98.266C172.919 98.4993 173.078 98.7887 173.171 99.134C173.274 99.4793 173.325 99.8667 173.325 100.296V105H172.149V104.006ZM172.121 101.374L170.959 101.416C170.464 101.435 170.054 101.481 169.727 101.556C169.4 101.631 169.139 101.733 168.943 101.864C168.756 101.985 168.621 102.139 168.537 102.326C168.462 102.513 168.425 102.727 168.425 102.97C168.425 103.334 168.532 103.628 168.747 103.852C168.971 104.067 169.335 104.174 169.839 104.174C170.558 104.174 171.118 103.997 171.519 103.642C171.92 103.287 172.121 102.802 172.121 102.186V101.374ZM175.146 106.54C175.408 106.633 175.669 106.68 175.93 106.68C176.229 106.68 176.458 106.601 176.616 106.442C176.784 106.293 176.948 106.008 177.106 105.588L177.4 104.818L174.334 97.762H175.748L178.03 103.446L180.116 97.762H181.46L178.296 105.686C178.166 106.013 178.035 106.297 177.904 106.54C177.774 106.792 177.629 107.007 177.47 107.184C177.312 107.361 177.12 107.492 176.896 107.576C176.682 107.669 176.416 107.716 176.098 107.716C175.874 107.716 175.674 107.702 175.496 107.674C175.319 107.646 175.123 107.595 174.908 107.52L175.146 106.54ZM183.022 95.004H184.324L183.582 98.014H182.616L183.022 95.004ZM185.262 95.004H186.564L185.822 98.014H184.856L185.262 95.004Z" fill="#333333"/>
<rect width="220" height="21.8557" transform="matrix(1 0 0 -1 30 153.855)" fill="#E3F1FB"/>
<path d="M270 132H250V153.856L270 132Z" fill="#959595"/>
</g>
<defs>
<filter id="filter0_d_4216_15977" x="0" y="0" width="300" height="194" filterUnits="userSpaceOnUse" color-interpolation-filters="sRGB">
<feFlood flood-opacity="0" result="BackgroundImageFix"/>
<feColorMatrix in="SourceAlpha" type="matrix" values="0 0 0 0 0 0 0 0 0 0 0 0 0 0 0 0 0 0 127 0" result="hardAlpha"/>
<feOffset dy="10"/>
<feGaussianBlur stdDeviation="15"/>
<feColorMatrix type="matrix" values="0 0 0 0 0.770833 0 0 0 0 0.639852 0 0 0 0 0.481771 0 0 0 0.3 0"/>
<feBlend mode="normal" in2="BackgroundImageFix" result="effect1_dropShadow_4216_15977"/>
<feBlend mode="normal" in="SourceGraphic" in2="effect1_dropShadow_4216_15977" result="shape"/>
</filter>
</defs>
</svg>
