<svg width="300" height="194" viewBox="0 0 300 194" fill="none" xmlns="http://www.w3.org/2000/svg">
<g filter="url(#filter0_d_4216_15973)">
<rect width="240" height="112" transform="translate(30 20)" fill="#E3F1FB"/>
<path d="M51.4 47.004H52.366L51.96 50.014H50.658L51.4 47.004ZM53.64 47.004H54.606L54.2 50.014H52.898L53.64 47.004ZM58.8744 48.152H55.5704V47.004H63.4804V48.152H60.1764V57H58.8744V48.152ZM64.6646 47.004H65.8826V50.84C66.2372 50.3827 66.6246 50.0513 67.0446 49.846C67.4739 49.6407 67.9266 49.538 68.4026 49.538C69.2239 49.538 69.8306 49.762 70.2226 50.21C70.6239 50.658 70.8246 51.316 70.8246 52.184V57H69.5926V52.422C69.5926 51.75 69.4712 51.2787 69.2286 51.008C68.9952 50.728 68.6266 50.588 68.1226 50.588C67.8519 50.588 67.5812 50.6347 67.3106 50.728C67.0492 50.8213 66.8112 50.9707 66.5966 51.176C66.3632 51.3813 66.1859 51.6007 66.0646 51.834C65.9432 52.058 65.8826 52.352 65.8826 52.716V57H64.6646V47.004ZM78.9069 54.97C78.7856 55.67 78.4729 56.2207 77.9689 56.622C77.4743 57.0233 76.7603 57.224 75.8269 57.224C74.7256 57.224 73.8809 56.8927 73.2929 56.23C72.7049 55.558 72.4109 54.6247 72.4109 53.43C72.4109 52.8047 72.4949 52.2493 72.6629 51.764C72.8309 51.2787 73.0643 50.8727 73.3629 50.546C73.6709 50.2193 74.0349 49.972 74.4549 49.804C74.8749 49.6267 75.3323 49.538 75.8269 49.538C76.3869 49.538 76.8676 49.6267 77.2689 49.804C77.6703 49.9813 77.9969 50.2287 78.2489 50.546C78.5103 50.854 78.7016 51.2227 78.8229 51.652C78.9536 52.0813 79.0189 52.5527 79.0189 53.066V53.682H73.6429C73.6429 54.046 73.6896 54.3867 73.7829 54.704C73.8856 55.012 74.0256 55.2827 74.2029 55.516C74.3896 55.74 74.6183 55.9173 74.8889 56.048C75.1596 56.1787 75.4723 56.244 75.8269 56.244C76.4336 56.244 76.8769 56.132 77.1569 55.908C77.4369 55.6747 77.6283 55.362 77.7309 54.97H78.9069ZM77.8009 52.772C77.8009 52.4267 77.7636 52.114 77.6889 51.834C77.6143 51.554 77.4976 51.316 77.3389 51.12C77.1803 50.9147 76.9749 50.756 76.7229 50.644C76.4709 50.532 76.1676 50.476 75.8129 50.476C75.1689 50.476 74.6649 50.672 74.3009 51.064C73.9463 51.456 73.7363 52.0253 73.6709 52.772H77.8009ZM83.7505 49.762H84.9545V50.882C85.2252 50.4807 85.5425 50.1727 85.9065 49.958C86.2705 49.7433 86.6578 49.636 87.0685 49.636C87.3205 49.636 87.5352 49.6547 87.7125 49.692L87.5585 50.826C87.4652 50.8073 87.3718 50.7933 87.2785 50.784C87.1852 50.7653 87.0825 50.756 86.9705 50.756C86.7465 50.756 86.5178 50.798 86.2845 50.882C86.0512 50.9567 85.8318 51.0873 85.6265 51.274C85.4212 51.4513 85.2578 51.6567 85.1365 51.89C85.0245 52.1233 84.9685 52.394 84.9685 52.702V57H83.7505V49.762ZM94.739 54.97C94.6176 55.67 94.305 56.2207 93.801 56.622C93.3063 57.0233 92.5923 57.224 91.659 57.224C90.5576 57.224 89.713 56.8927 89.125 56.23C88.537 55.558 88.243 54.6247 88.243 53.43C88.243 52.8047 88.327 52.2493 88.495 51.764C88.663 51.2787 88.8963 50.8727 89.195 50.546C89.503 50.2193 89.867 49.972 90.287 49.804C90.707 49.6267 91.1643 49.538 91.659 49.538C92.219 49.538 92.6996 49.6267 93.101 49.804C93.5023 49.9813 93.829 50.2287 94.081 50.546C94.3423 50.854 94.5336 51.2227 94.655 51.652C94.7856 52.0813 94.851 52.5527 94.851 53.066V53.682H89.475C89.475 54.046 89.5216 54.3867 89.615 54.704C89.7176 55.012 89.8576 55.2827 90.035 55.516C90.2216 55.74 90.4503 55.9173 90.721 56.048C90.9916 56.1787 91.3043 56.244 91.659 56.244C92.2656 56.244 92.709 56.132 92.989 55.908C93.269 55.6747 93.4603 55.362 93.563 54.97H94.739ZM93.633 52.772C93.633 52.4267 93.5956 52.114 93.521 51.834C93.4463 51.554 93.3296 51.316 93.171 51.12C93.0123 50.9147 92.807 50.756 92.555 50.644C92.303 50.532 91.9996 50.476 91.645 50.476C91.001 50.476 90.497 50.672 90.133 51.064C89.7783 51.456 89.5683 52.0253 89.503 52.772H93.633ZM102.737 54.55C102.616 55.3807 102.299 56.034 101.785 56.51C101.272 56.986 100.549 57.224 99.6153 57.224C99.0647 57.224 98.5747 57.1353 98.1453 56.958C97.7253 56.7807 97.3707 56.5287 97.0813 56.202C96.8013 55.866 96.5867 55.4647 96.4373 54.998C96.2973 54.522 96.2273 53.99 96.2273 53.402C96.2273 52.8233 96.3067 52.296 96.4653 51.82C96.624 51.344 96.8527 50.938 97.1513 50.602C97.45 50.266 97.814 50.0047 98.2433 49.818C98.6727 49.6313 99.158 49.538 99.6993 49.538C100.567 49.538 101.239 49.7527 101.715 50.182C102.191 50.602 102.495 51.1853 102.625 51.932L101.407 52.156C101.361 51.9227 101.295 51.708 101.211 51.512C101.137 51.316 101.029 51.148 100.889 51.008C100.749 50.8587 100.577 50.7467 100.371 50.672C100.175 50.588 99.9373 50.546 99.6573 50.546C99.2747 50.546 98.948 50.6207 98.6773 50.77C98.4067 50.91 98.1827 51.1107 98.0053 51.372C97.8373 51.624 97.7113 51.9227 97.6273 52.268C97.5527 52.6133 97.5153 52.982 97.5153 53.374C97.5153 53.766 97.5527 54.1347 97.6273 54.48C97.702 54.8253 97.8233 55.1287 97.9913 55.39C98.1593 55.642 98.3787 55.8427 98.6493 55.992C98.92 56.1413 99.2513 56.216 99.6433 56.216C100.231 56.216 100.665 56.0667 100.945 55.768C101.235 55.4693 101.421 55.0633 101.505 54.55H102.737ZM110.421 54.97C110.299 55.67 109.987 56.2207 109.483 56.622C108.988 57.0233 108.274 57.224 107.341 57.224C106.239 57.224 105.395 56.8927 104.807 56.23C104.219 55.558 103.925 54.6247 103.925 53.43C103.925 52.8047 104.009 52.2493 104.177 51.764C104.345 51.2787 104.578 50.8727 104.877 50.546C105.185 50.2193 105.549 49.972 105.969 49.804C106.389 49.6267 106.846 49.538 107.341 49.538C107.901 49.538 108.381 49.6267 108.783 49.804C109.184 49.9813 109.511 50.2287 109.763 50.546C110.024 50.854 110.215 51.2227 110.337 51.652C110.467 52.0813 110.533 52.5527 110.533 53.066V53.682H105.157C105.157 54.046 105.203 54.3867 105.297 54.704C105.399 55.012 105.539 55.2827 105.717 55.516C105.903 55.74 106.132 55.9173 106.403 56.048C106.673 56.1787 106.986 56.244 107.341 56.244C107.947 56.244 108.391 56.132 108.671 55.908C108.951 55.6747 109.142 55.362 109.245 54.97H110.421ZM109.315 52.772C109.315 52.4267 109.277 52.114 109.203 51.834C109.128 51.554 109.011 51.316 108.853 51.12C108.694 50.9147 108.489 50.756 108.237 50.644C107.985 50.532 107.681 50.476 107.327 50.476C106.683 50.476 106.179 50.672 105.815 51.064C105.46 51.456 105.25 52.0253 105.185 52.772H109.315ZM112.147 49.762H113.351V50.868C113.706 50.392 114.098 50.0513 114.527 49.846C114.956 49.6407 115.409 49.538 115.885 49.538C116.706 49.538 117.313 49.762 117.705 50.21C118.106 50.658 118.307 51.316 118.307 52.184V57H117.089V52.422C117.089 51.75 116.968 51.2787 116.725 51.008C116.482 50.728 116.109 50.588 115.605 50.588C115.334 50.588 115.064 50.6347 114.793 50.728C114.532 50.8213 114.294 50.9707 114.079 51.176C113.846 51.3813 113.668 51.6007 113.547 51.834C113.426 52.058 113.365 52.352 113.365 52.716V57H112.147V49.762ZM120.551 50.728H119.431V49.762H120.551V47.788H121.769V49.762H123.687V50.728H121.769V54.97C121.769 55.3247 121.849 55.6093 122.007 55.824C122.166 56.0387 122.409 56.146 122.735 56.146C122.941 56.146 123.118 56.132 123.267 56.104C123.426 56.076 123.571 56.0387 123.701 55.992L123.911 56.93C123.725 56.9953 123.519 57.0467 123.295 57.084C123.081 57.1307 122.824 57.154 122.525 57.154C122.115 57.154 121.783 57.0933 121.531 56.972C121.279 56.8507 121.079 56.678 120.929 56.454C120.78 56.23 120.677 55.964 120.621 55.656C120.575 55.348 120.551 55.012 120.551 54.648V50.728ZM128.102 49.762H129.306V50.868C129.661 50.392 130.053 50.0513 130.482 49.846C130.911 49.6407 131.364 49.538 131.84 49.538C132.661 49.538 133.268 49.762 133.66 50.21C134.061 50.658 134.262 51.316 134.262 52.184V57H133.044V52.422C133.044 51.75 132.923 51.2787 132.68 51.008C132.437 50.728 132.064 50.588 131.56 50.588C131.289 50.588 131.019 50.6347 130.748 50.728C130.487 50.8213 130.249 50.9707 130.034 51.176C129.801 51.3813 129.623 51.6007 129.502 51.834C129.381 52.058 129.32 52.352 129.32 52.716V57H128.102V49.762ZM142.344 54.97C142.223 55.67 141.91 56.2207 141.406 56.622C140.912 57.0233 140.198 57.224 139.264 57.224C138.163 57.224 137.318 56.8927 136.73 56.23C136.142 55.558 135.848 54.6247 135.848 53.43C135.848 52.8047 135.932 52.2493 136.1 51.764C136.268 51.2787 136.502 50.8727 136.8 50.546C137.108 50.2193 137.472 49.972 137.892 49.804C138.312 49.6267 138.77 49.538 139.264 49.538C139.824 49.538 140.305 49.6267 140.706 49.804C141.108 49.9813 141.434 50.2287 141.686 50.546C141.948 50.854 142.139 51.2227 142.26 51.652C142.391 52.0813 142.456 52.5527 142.456 53.066V53.682H137.08C137.08 54.046 137.127 54.3867 137.22 54.704C137.323 55.012 137.463 55.2827 137.64 55.516C137.827 55.74 138.056 55.9173 138.326 56.048C138.597 56.1787 138.91 56.244 139.264 56.244C139.871 56.244 140.314 56.132 140.594 55.908C140.874 55.6747 141.066 55.362 141.168 54.97H142.344ZM141.238 52.772C141.238 52.4267 141.201 52.114 141.126 51.834C141.052 51.554 140.935 51.316 140.776 51.12C140.618 50.9147 140.412 50.756 140.16 50.644C139.908 50.532 139.605 50.476 139.25 50.476C138.606 50.476 138.102 50.672 137.738 51.064C137.384 51.456 137.174 52.0253 137.108 52.772H141.238ZM143.245 49.762H144.575L146.031 55.53L147.697 49.804H148.929L150.553 55.53L151.995 49.762H153.283L151.169 57H149.881L148.257 51.232L146.619 57H145.345L143.245 49.762ZM155.122 54.886C155.206 55.39 155.416 55.7447 155.752 55.95C156.098 56.146 156.564 56.244 157.152 56.244C157.768 56.244 158.202 56.1413 158.454 55.936C158.716 55.7213 158.846 55.4413 158.846 55.096C158.846 54.956 158.828 54.8253 158.79 54.704C158.762 54.5733 158.702 54.4613 158.608 54.368C158.515 54.2653 158.384 54.1767 158.216 54.102C158.048 54.0273 157.829 53.9667 157.558 53.92L156.634 53.78C156.224 53.7147 155.864 53.6307 155.556 53.528C155.248 53.4253 154.987 53.2947 154.772 53.136C154.558 52.968 154.394 52.7673 154.282 52.534C154.18 52.2913 154.128 52.002 154.128 51.666C154.128 51.33 154.198 51.0313 154.338 50.77C154.488 50.5087 154.688 50.2893 154.94 50.112C155.202 49.9253 155.505 49.7853 155.85 49.692C156.205 49.5893 156.588 49.538 156.998 49.538C157.521 49.538 157.955 49.5893 158.3 49.692C158.655 49.7947 158.944 49.9347 159.168 50.112C159.392 50.2893 159.565 50.4993 159.686 50.742C159.808 50.9847 159.901 51.2413 159.966 51.512L158.86 51.694C158.795 51.498 158.72 51.3253 158.636 51.176C158.552 51.0267 158.44 50.9053 158.3 50.812C158.16 50.7093 157.988 50.6347 157.782 50.588C157.586 50.532 157.339 50.504 157.04 50.504C156.704 50.504 156.424 50.5367 156.2 50.602C155.976 50.658 155.794 50.7373 155.654 50.84C155.524 50.9427 155.43 51.0593 155.374 51.19C155.318 51.3113 155.29 51.442 155.29 51.582C155.29 51.7313 155.309 51.8667 155.346 51.988C155.384 52.1 155.454 52.2027 155.556 52.296C155.659 52.38 155.799 52.4547 155.976 52.52C156.154 52.5853 156.382 52.6413 156.662 52.688L157.712 52.856C158.562 52.996 159.168 53.2387 159.532 53.584C159.906 53.9293 160.092 54.4333 160.092 55.096C160.092 55.404 160.032 55.6887 159.91 55.95C159.789 56.202 159.607 56.426 159.364 56.622C159.122 56.8087 158.818 56.9533 158.454 57.056C158.09 57.168 157.666 57.224 157.18 57.224C156.742 57.224 156.331 57.182 155.948 57.098C155.575 57.014 155.244 56.8833 154.954 56.706C154.665 56.5193 154.432 56.2767 154.254 55.978C154.077 55.6793 153.974 55.3153 153.946 54.886H155.122ZM168.018 57.224C167.467 57.224 166.977 57.1353 166.548 56.958C166.119 56.7807 165.755 56.5287 165.456 56.202C165.157 55.8753 164.929 55.474 164.77 54.998C164.611 54.522 164.532 53.99 164.532 53.402C164.532 52.814 164.616 52.282 164.784 51.806C164.952 51.33 165.19 50.924 165.498 50.588C165.806 50.252 166.175 49.9953 166.604 49.818C167.043 49.6313 167.528 49.538 168.06 49.538C168.601 49.538 169.087 49.6267 169.516 49.804C169.945 49.9813 170.309 50.238 170.608 50.574C170.916 50.9007 171.149 51.2973 171.308 51.764C171.467 52.2307 171.546 52.758 171.546 53.346C171.546 53.9433 171.462 54.48 171.294 54.956C171.135 55.432 170.902 55.838 170.594 56.174C170.295 56.51 169.927 56.7713 169.488 56.958C169.049 57.1353 168.559 57.224 168.018 57.224ZM168.032 56.216C168.424 56.216 168.76 56.146 169.04 56.006C169.32 55.866 169.549 55.67 169.726 55.418C169.913 55.166 170.048 54.8673 170.132 54.522C170.216 54.1673 170.258 53.78 170.258 53.36C170.258 52.9493 170.216 52.5713 170.132 52.226C170.048 51.8807 169.913 51.5867 169.726 51.344C169.549 51.092 169.32 50.896 169.04 50.756C168.76 50.616 168.424 50.546 168.032 50.546C167.64 50.546 167.304 50.616 167.024 50.756C166.753 50.896 166.525 51.092 166.338 51.344C166.161 51.5867 166.03 51.8807 165.946 52.226C165.862 52.5713 165.82 52.954 165.82 53.374C165.82 53.794 165.862 54.1767 165.946 54.522C166.03 54.8673 166.161 55.166 166.338 55.418C166.515 55.67 166.744 55.866 167.024 56.006C167.304 56.146 167.64 56.216 168.032 56.216ZM173.503 50.728H172.369V49.762H173.503V49.132C173.503 48.74 173.559 48.404 173.671 48.124C173.792 47.844 173.951 47.6153 174.147 47.438C174.352 47.2513 174.586 47.116 174.847 47.032C175.118 46.9387 175.402 46.892 175.701 46.892C175.916 46.892 176.121 46.906 176.317 46.934C176.513 46.9527 176.718 46.9947 176.933 47.06L176.737 48.012C176.588 47.9653 176.443 47.9373 176.303 47.928C176.172 47.9093 176.042 47.9 175.911 47.9C175.584 47.9 175.304 47.9887 175.071 48.166C174.838 48.334 174.721 48.6467 174.721 49.104V49.762H176.555V50.728H174.721V57H173.503V50.728ZM187.134 54.55C187.012 55.3807 186.695 56.034 186.182 56.51C185.668 56.986 184.945 57.224 184.012 57.224C183.461 57.224 182.971 57.1353 182.542 56.958C182.122 56.7807 181.767 56.5287 181.478 56.202C181.198 55.866 180.983 55.4647 180.834 54.998C180.694 54.522 180.624 53.99 180.624 53.402C180.624 52.8233 180.703 52.296 180.862 51.82C181.02 51.344 181.249 50.938 181.548 50.602C181.846 50.266 182.21 50.0047 182.64 49.818C183.069 49.6313 183.554 49.538 184.096 49.538C184.964 49.538 185.636 49.7527 186.112 50.182C186.588 50.602 186.891 51.1853 187.022 51.932L185.804 52.156C185.757 51.9227 185.692 51.708 185.608 51.512C185.533 51.316 185.426 51.148 185.286 51.008C185.146 50.8587 184.973 50.7467 184.768 50.672C184.572 50.588 184.334 50.546 184.054 50.546C183.671 50.546 183.344 50.6207 183.074 50.77C182.803 50.91 182.579 51.1107 182.402 51.372C182.234 51.624 182.108 51.9227 182.024 52.268C181.949 52.6133 181.912 52.982 181.912 53.374C181.912 53.766 181.949 54.1347 182.024 54.48C182.098 54.8253 182.22 55.1287 182.388 55.39C182.556 55.642 182.775 55.8427 183.046 55.992C183.316 56.1413 183.648 56.216 184.04 56.216C184.628 56.216 185.062 56.0667 185.342 55.768C185.631 55.4693 185.818 55.0633 185.902 54.55H187.134ZM191.807 57.224C191.256 57.224 190.766 57.1353 190.337 56.958C189.908 56.7807 189.544 56.5287 189.245 56.202C188.946 55.8753 188.718 55.474 188.559 54.998C188.4 54.522 188.321 53.99 188.321 53.402C188.321 52.814 188.405 52.282 188.573 51.806C188.741 51.33 188.979 50.924 189.287 50.588C189.595 50.252 189.964 49.9953 190.393 49.818C190.832 49.6313 191.317 49.538 191.849 49.538C192.39 49.538 192.876 49.6267 193.305 49.804C193.734 49.9813 194.098 50.238 194.397 50.574C194.705 50.9007 194.938 51.2973 195.097 51.764C195.256 52.2307 195.335 52.758 195.335 53.346C195.335 53.9433 195.251 54.48 195.083 54.956C194.924 55.432 194.691 55.838 194.383 56.174C194.084 56.51 193.716 56.7713 193.277 56.958C192.838 57.1353 192.348 57.224 191.807 57.224ZM191.821 56.216C192.213 56.216 192.549 56.146 192.829 56.006C193.109 55.866 193.338 55.67 193.515 55.418C193.702 55.166 193.837 54.8673 193.921 54.522C194.005 54.1673 194.047 53.78 194.047 53.36C194.047 52.9493 194.005 52.5713 193.921 52.226C193.837 51.8807 193.702 51.5867 193.515 51.344C193.338 51.092 193.109 50.896 192.829 50.756C192.549 50.616 192.213 50.546 191.821 50.546C191.429 50.546 191.093 50.616 190.813 50.756C190.542 50.896 190.314 51.092 190.127 51.344C189.95 51.5867 189.819 51.8807 189.735 52.226C189.651 52.5713 189.609 52.954 189.609 53.374C189.609 53.794 189.651 54.1767 189.735 54.522C189.819 54.8673 189.95 55.166 190.127 55.418C190.304 55.67 190.533 55.866 190.813 56.006C191.093 56.146 191.429 56.216 191.821 56.216ZM196.967 49.762H198.171V50.882C198.442 50.4807 198.759 50.1727 199.123 49.958C199.487 49.7433 199.875 49.636 200.285 49.636C200.537 49.636 200.752 49.6547 200.929 49.692L200.775 50.826C200.682 50.8073 200.589 50.7933 200.495 50.784C200.402 50.7653 200.299 50.756 200.187 50.756C199.963 50.756 199.735 50.798 199.501 50.882C199.268 50.9567 199.049 51.0873 198.843 51.274C198.638 51.4513 198.475 51.6567 198.353 51.89C198.241 52.1233 198.185 52.394 198.185 52.702V57H196.967V49.762ZM202.094 49.762H203.298V50.882C203.569 50.4807 203.886 50.1727 204.25 49.958C204.614 49.7433 205.002 49.636 205.412 49.636C205.664 49.636 205.879 49.6547 206.056 49.692L205.902 50.826C205.809 50.8073 205.716 50.7933 205.622 50.784C205.529 50.7653 205.426 50.756 205.314 50.756C205.09 50.756 204.862 50.798 204.628 50.882C204.395 50.9567 204.176 51.0873 203.97 51.274C203.765 51.4513 203.602 51.6567 203.48 51.89C203.368 52.1233 203.312 52.394 203.312 52.702V57H202.094V49.762ZM207.179 49.762H208.397V54.326C208.397 54.998 208.505 55.474 208.719 55.754C208.943 56.034 209.303 56.174 209.797 56.174C210.339 56.174 210.829 55.978 211.267 55.586C211.501 55.3807 211.678 55.166 211.799 54.942C211.921 54.7087 211.981 54.41 211.981 54.046V49.762H213.199V57H211.995V55.88C211.641 56.3467 211.258 56.6873 210.847 56.902C210.437 57.1167 209.993 57.224 209.517 57.224C208.696 57.224 208.099 57.0047 207.725 56.566C207.361 56.118 207.179 55.4507 207.179 54.564V49.762ZM215.069 49.762H216.273V50.798C216.572 50.3873 216.917 50.0747 217.309 49.86C217.71 49.6453 218.177 49.538 218.709 49.538C219.222 49.538 219.67 49.6313 220.053 49.818C220.445 50.0047 220.767 50.266 221.019 50.602C221.28 50.938 221.472 51.3393 221.593 51.806C221.724 52.2633 221.789 52.772 221.789 53.332C221.789 53.9293 221.714 54.4707 221.565 54.956C221.416 55.432 221.201 55.838 220.921 56.174C220.641 56.51 220.3 56.7713 219.899 56.958C219.507 57.1353 219.064 57.224 218.569 57.224C218.158 57.224 217.752 57.1447 217.351 56.986C216.959 56.818 216.604 56.524 216.287 56.104V59.716H215.069V49.762ZM216.273 53.584C216.273 54.0507 216.324 54.452 216.427 54.788C216.539 55.1147 216.688 55.3853 216.875 55.6C217.062 55.8147 217.286 55.9733 217.547 56.076C217.808 56.1693 218.093 56.216 218.401 56.216C218.7 56.216 218.975 56.1647 219.227 56.062C219.488 55.9593 219.712 55.796 219.899 55.572C220.086 55.3387 220.23 55.04 220.333 54.676C220.445 54.312 220.501 53.8687 220.501 53.346C220.501 52.814 220.44 52.3707 220.319 52.016C220.207 51.652 220.058 51.3627 219.871 51.148C219.684 50.9333 219.47 50.7793 219.227 50.686C218.994 50.5927 218.751 50.546 218.499 50.546C218.182 50.546 217.888 50.602 217.617 50.714C217.346 50.8167 217.108 50.9753 216.903 51.19C216.707 51.3953 216.553 51.6613 216.441 51.988C216.329 52.3053 216.273 52.674 216.273 53.094V53.584ZM223.719 50.728H222.599V49.762H223.719V47.788H224.937V49.762H226.855V50.728H224.937V54.97C224.937 55.3247 225.017 55.6093 225.175 55.824C225.334 56.0387 225.577 56.146 225.903 56.146C226.109 56.146 226.286 56.132 226.435 56.104C226.594 56.076 226.739 56.0387 226.869 55.992L227.079 56.93C226.893 56.9953 226.687 57.0467 226.463 57.084C226.249 57.1307 225.992 57.154 225.693 57.154C225.283 57.154 224.951 57.0933 224.699 56.972C224.447 56.8507 224.247 56.678 224.097 56.454C223.948 56.23 223.845 55.964 223.789 55.656C223.743 55.348 223.719 55.012 223.719 54.648V50.728ZM228.181 49.762H229.399V57H228.181V49.762ZM228.139 47.004H229.441V48.418H228.139V47.004ZM234.545 57.224C233.995 57.224 233.505 57.1353 233.075 56.958C232.646 56.7807 232.282 56.5287 231.983 56.202C231.685 55.8753 231.456 55.474 231.297 54.998C231.139 54.522 231.059 53.99 231.059 53.402C231.059 52.814 231.143 52.282 231.311 51.806C231.479 51.33 231.717 50.924 232.025 50.588C232.333 50.252 232.702 49.9953 233.131 49.818C233.57 49.6313 234.055 49.538 234.587 49.538C235.129 49.538 235.614 49.6267 236.043 49.804C236.473 49.9813 236.837 50.238 237.135 50.574C237.443 50.9007 237.677 51.2973 237.835 51.764C237.994 52.2307 238.073 52.758 238.073 53.346C238.073 53.9433 237.989 54.48 237.821 54.956C237.663 55.432 237.429 55.838 237.121 56.174C236.823 56.51 236.454 56.7713 236.015 56.958C235.577 57.1353 235.087 57.224 234.545 57.224ZM234.559 56.216C234.951 56.216 235.287 56.146 235.567 56.006C235.847 55.866 236.076 55.67 236.253 55.418C236.44 55.166 236.575 54.8673 236.659 54.522C236.743 54.1673 236.785 53.78 236.785 53.36C236.785 52.9493 236.743 52.5713 236.659 52.226C236.575 51.8807 236.44 51.5867 236.253 51.344C236.076 51.092 235.847 50.896 235.567 50.756C235.287 50.616 234.951 50.546 234.559 50.546C234.167 50.546 233.831 50.616 233.551 50.756C233.281 50.896 233.052 51.092 232.865 51.344C232.688 51.5867 232.557 51.8807 232.473 52.226C232.389 52.5713 232.347 52.954 232.347 53.374C232.347 53.794 232.389 54.1767 232.473 54.522C232.557 54.8673 232.688 55.166 232.865 55.418C233.043 55.67 233.271 55.866 233.551 56.006C233.831 56.146 234.167 56.216 234.559 56.216ZM239.706 49.762H240.91V50.868C241.264 50.392 241.656 50.0513 242.086 49.846C242.515 49.6407 242.968 49.538 243.444 49.538C244.265 49.538 244.872 49.762 245.264 50.21C245.665 50.658 245.866 51.316 245.866 52.184V57H244.648V52.422C244.648 51.75 244.526 51.2787 244.284 51.008C244.041 50.728 243.668 50.588 243.164 50.588C242.893 50.588 242.622 50.6347 242.352 50.728C242.09 50.8213 241.852 50.9707 241.638 51.176C241.404 51.3813 241.227 51.6007 241.106 51.834C240.984 52.058 240.924 52.352 240.924 52.716V57H239.706V49.762ZM50.966 73.762H52.184V81H50.966V73.762ZM50.924 71.004H52.226V72.418H50.924V71.004ZM54.0825 73.762H55.2865V74.868C55.6412 74.392 56.0332 74.0513 56.4625 73.846C56.8919 73.6407 57.3445 73.538 57.8205 73.538C58.6419 73.538 59.2485 73.762 59.6405 74.21C60.0419 74.658 60.2425 75.316 60.2425 76.184V81H59.0245V76.422C59.0245 75.75 58.9032 75.2787 58.6605 75.008C58.4179 74.728 58.0445 74.588 57.5405 74.588C57.2699 74.588 56.9992 74.6347 56.7285 74.728C56.4672 74.8213 56.2292 74.9707 56.0145 75.176C55.7812 75.3813 55.6039 75.6007 55.4825 75.834C55.3612 76.058 55.3005 76.352 55.3005 76.716V81H54.0825V73.762ZM68.2921 71.004H69.6501L73.5281 81H72.1281L71.0781 78.214H66.7941L65.7441 81H64.4001L68.2921 71.004ZM70.6861 77.094L68.9221 72.46L67.1861 77.094H70.6861ZM75.0517 74.728H73.9177V73.762H75.0517V73.132C75.0517 72.74 75.1077 72.404 75.2197 72.124C75.341 71.844 75.4997 71.6153 75.6957 71.438C75.901 71.2513 76.1344 71.116 76.3957 71.032C76.6664 70.9387 76.951 70.892 77.2497 70.892C77.4644 70.892 77.6697 70.906 77.8657 70.934C78.0617 70.9527 78.267 70.9947 78.4817 71.06L78.2857 72.012C78.1364 71.9653 77.9917 71.9373 77.8517 71.928C77.721 71.9093 77.5904 71.9 77.4597 71.9C77.133 71.9 76.853 71.9887 76.6197 72.166C76.3864 72.334 76.2697 72.6467 76.2697 73.104V73.762H78.1037V74.728H76.2697V81H75.0517V74.728ZM79.2935 73.762H80.4975V74.882C80.7681 74.4807 81.0855 74.1727 81.4495 73.958C81.8135 73.7433 82.2008 73.636 82.6115 73.636C82.8635 73.636 83.0781 73.6547 83.2555 73.692L83.1015 74.826C83.0081 74.8073 82.9148 74.7933 82.8215 74.784C82.7281 74.7653 82.6255 74.756 82.5135 74.756C82.2895 74.756 82.0608 74.798 81.8275 74.882C81.5941 74.9567 81.3748 75.0873 81.1695 75.274C80.9641 75.4513 80.8008 75.6567 80.6795 75.89C80.5675 76.1233 80.5115 76.394 80.5115 76.702V81H79.2935V73.762ZM84.4484 73.762H85.6664V81H84.4484V73.762ZM84.4064 71.004H85.7084V72.418H84.4064V71.004ZM93.837 78.55C93.7156 79.3807 93.3983 80.034 92.885 80.51C92.3716 80.986 91.6483 81.224 90.715 81.224C90.1643 81.224 89.6743 81.1353 89.245 80.958C88.825 80.7807 88.4703 80.5287 88.181 80.202C87.901 79.866 87.6863 79.4647 87.537 78.998C87.397 78.522 87.327 77.99 87.327 77.402C87.327 76.8233 87.4063 76.296 87.565 75.82C87.7236 75.344 87.9523 74.938 88.251 74.602C88.5496 74.266 88.9136 74.0047 89.343 73.818C89.7723 73.6313 90.2576 73.538 90.799 73.538C91.667 73.538 92.339 73.7527 92.815 74.182C93.291 74.602 93.5943 75.1853 93.725 75.932L92.507 76.156C92.4603 75.9227 92.395 75.708 92.311 75.512C92.2363 75.316 92.129 75.148 91.989 75.008C91.849 74.8587 91.6763 74.7467 91.471 74.672C91.275 74.588 91.037 74.546 90.757 74.546C90.3743 74.546 90.0476 74.6207 89.777 74.77C89.5063 74.91 89.2823 75.1107 89.105 75.372C88.937 75.624 88.811 75.9227 88.727 76.268C88.6523 76.6133 88.615 76.982 88.615 77.374C88.615 77.766 88.6523 78.1347 88.727 78.48C88.8016 78.8253 88.923 79.1287 89.091 79.39C89.259 79.642 89.4783 79.8427 89.749 79.992C90.0196 80.1413 90.351 80.216 90.743 80.216C91.331 80.216 91.765 80.0667 92.045 79.768C92.3343 79.4693 92.521 79.0633 92.605 78.55H93.837ZM99.8933 80.006C99.6319 80.3233 99.3006 80.5987 98.8993 80.832C98.4979 81.056 97.9986 81.168 97.4013 81.168C97.0373 81.168 96.7013 81.1213 96.3933 81.028C96.0946 80.944 95.8333 80.8133 95.6093 80.636C95.3946 80.4493 95.2266 80.2207 95.1053 79.95C94.9839 79.6793 94.9233 79.362 94.9233 78.998C94.9233 78.5033 95.0259 78.102 95.2313 77.794C95.4459 77.486 95.7259 77.2433 96.0713 77.066C96.4259 76.8887 96.8226 76.7627 97.2613 76.688C97.6999 76.6133 98.1526 76.5667 98.6193 76.548L99.8653 76.506V76.226C99.8653 75.61 99.7346 75.1667 99.4733 74.896C99.2119 74.6253 98.7873 74.49 98.1993 74.49C97.6206 74.49 97.1959 74.588 96.9253 74.784C96.6546 74.9707 96.4773 75.232 96.3933 75.568L95.2873 75.442C95.4179 74.7793 95.7306 74.2987 96.2253 74C96.7199 73.692 97.3919 73.538 98.2413 73.538C98.7639 73.538 99.2026 73.6033 99.5573 73.734C99.9213 73.8553 100.215 74.0327 100.439 74.266C100.663 74.4993 100.822 74.7887 100.915 75.134C101.018 75.4793 101.069 75.8667 101.069 76.296V81H99.8933V80.006ZM99.8653 77.374L98.7033 77.416C98.2086 77.4347 97.7979 77.4813 97.4713 77.556C97.1446 77.6307 96.8833 77.7333 96.6873 77.864C96.5006 77.9853 96.3653 78.1393 96.2813 78.326C96.2066 78.5127 96.1693 78.7273 96.1693 78.97C96.1693 79.334 96.2766 79.628 96.4913 79.852C96.7153 80.0667 97.0793 80.174 97.5833 80.174C98.3019 80.174 98.8619 79.9967 99.2633 79.642C99.6646 79.2873 99.8653 78.802 99.8653 78.186V77.374ZM112.308 78.55C112.186 79.3807 111.869 80.034 111.356 80.51C110.842 80.986 110.119 81.224 109.186 81.224C108.635 81.224 108.145 81.1353 107.716 80.958C107.296 80.7807 106.941 80.5287 106.652 80.202C106.372 79.866 106.157 79.4647 106.008 78.998C105.868 78.522 105.798 77.99 105.798 77.402C105.798 76.8233 105.877 76.296 106.036 75.82C106.194 75.344 106.423 74.938 106.722 74.602C107.02 74.266 107.384 74.0047 107.814 73.818C108.243 73.6313 108.728 73.538 109.27 73.538C110.138 73.538 110.81 73.7527 111.286 74.182C111.762 74.602 112.065 75.1853 112.196 75.932L110.978 76.156C110.931 75.9227 110.866 75.708 110.782 75.512C110.707 75.316 110.6 75.148 110.46 75.008C110.32 74.8587 110.147 74.7467 109.942 74.672C109.746 74.588 109.508 74.546 109.228 74.546C108.845 74.546 108.518 74.6207 108.248 74.77C107.977 74.91 107.753 75.1107 107.576 75.372C107.408 75.624 107.282 75.9227 107.198 76.268C107.123 76.6133 107.086 76.982 107.086 77.374C107.086 77.766 107.123 78.1347 107.198 78.48C107.272 78.8253 107.394 79.1287 107.562 79.39C107.73 79.642 107.949 79.8427 108.22 79.992C108.49 80.1413 108.822 80.216 109.214 80.216C109.802 80.216 110.236 80.0667 110.516 79.768C110.805 79.4693 110.992 79.0633 111.076 78.55H112.308ZM116.981 81.224C116.43 81.224 115.94 81.1353 115.511 80.958C115.082 80.7807 114.718 80.5287 114.419 80.202C114.12 79.8753 113.892 79.474 113.733 78.998C113.574 78.522 113.495 77.99 113.495 77.402C113.495 76.814 113.579 76.282 113.747 75.806C113.915 75.33 114.153 74.924 114.461 74.588C114.769 74.252 115.138 73.9953 115.567 73.818C116.006 73.6313 116.491 73.538 117.023 73.538C117.564 73.538 118.05 73.6267 118.479 73.804C118.908 73.9813 119.272 74.238 119.571 74.574C119.879 74.9007 120.112 75.2973 120.271 75.764C120.43 76.2307 120.509 76.758 120.509 77.346C120.509 77.9433 120.425 78.48 120.257 78.956C120.098 79.432 119.865 79.838 119.557 80.174C119.258 80.51 118.89 80.7713 118.451 80.958C118.012 81.1353 117.522 81.224 116.981 81.224ZM116.995 80.216C117.387 80.216 117.723 80.146 118.003 80.006C118.283 79.866 118.512 79.67 118.689 79.418C118.876 79.166 119.011 78.8673 119.095 78.522C119.179 78.1673 119.221 77.78 119.221 77.36C119.221 76.9493 119.179 76.5713 119.095 76.226C119.011 75.8807 118.876 75.5867 118.689 75.344C118.512 75.092 118.283 74.896 118.003 74.756C117.723 74.616 117.387 74.546 116.995 74.546C116.603 74.546 116.267 74.616 115.987 74.756C115.716 74.896 115.488 75.092 115.301 75.344C115.124 75.5867 114.993 75.8807 114.909 76.226C114.825 76.5713 114.783 76.954 114.783 77.374C114.783 77.794 114.825 78.1767 114.909 78.522C114.993 78.8673 115.124 79.166 115.301 79.418C115.478 79.67 115.707 79.866 115.987 80.006C116.267 80.146 116.603 80.216 116.995 80.216ZM122.099 73.762H123.317V78.326C123.317 78.998 123.424 79.474 123.639 79.754C123.863 80.034 124.222 80.174 124.717 80.174C125.258 80.174 125.748 79.978 126.187 79.586C126.42 79.3807 126.598 79.166 126.719 78.942C126.84 78.7087 126.901 78.41 126.901 78.046V73.762H128.119V81H126.915V79.88C126.56 80.3467 126.178 80.6873 125.767 80.902C125.356 81.1167 124.913 81.224 124.437 81.224C123.616 81.224 123.018 81.0047 122.645 80.566C122.281 80.118 122.099 79.4507 122.099 78.564V73.762ZM129.989 73.762H131.193V74.868C131.547 74.392 131.939 74.0513 132.369 73.846C132.798 73.6407 133.251 73.538 133.727 73.538C134.548 73.538 135.155 73.762 135.547 74.21C135.948 74.658 136.149 75.316 136.149 76.184V81H134.931V76.422C134.931 75.75 134.809 75.2787 134.567 75.008C134.324 74.728 133.951 74.588 133.447 74.588C133.176 74.588 132.905 74.6347 132.635 74.728C132.373 74.8213 132.135 74.9707 131.921 75.176C131.687 75.3813 131.51 75.6007 131.389 75.834C131.267 76.058 131.207 76.352 131.207 76.716V81H129.989V73.762ZM138.393 74.728H137.273V73.762H138.393V71.788H139.611V73.762H141.529V74.728H139.611V78.97C139.611 79.3247 139.69 79.6093 139.849 79.824C140.008 80.0387 140.25 80.146 140.577 80.146C140.782 80.146 140.96 80.132 141.109 80.104C141.268 80.076 141.412 80.0387 141.543 79.992L141.753 80.93C141.566 80.9953 141.361 81.0467 141.137 81.084C140.922 81.1307 140.666 81.154 140.367 81.154C139.956 81.154 139.625 81.0933 139.373 80.972C139.121 80.8507 138.92 80.678 138.771 80.454C138.622 80.23 138.519 79.964 138.463 79.656C138.416 79.348 138.393 79.012 138.393 78.648V74.728ZM142.827 73.762H144.031V74.882C144.301 74.4807 144.619 74.1727 144.983 73.958C145.347 73.7433 145.734 73.636 146.145 73.636C146.397 73.636 146.611 73.6547 146.789 73.692L146.635 74.826C146.541 74.8073 146.448 74.7933 146.355 74.784C146.261 74.7653 146.159 74.756 146.047 74.756C145.823 74.756 145.594 74.798 145.361 74.882C145.127 74.9567 144.908 75.0873 144.703 75.274C144.497 75.4513 144.334 75.6567 144.213 75.89C144.101 76.1233 144.045 76.394 144.045 76.702V81H142.827V73.762ZM147.982 73.762H149.2V81H147.982V73.762ZM147.94 71.004H149.242V72.418H147.94V71.004ZM157.356 78.97C157.235 79.67 156.922 80.2207 156.418 80.622C155.923 81.0233 155.209 81.224 154.276 81.224C153.175 81.224 152.33 80.8927 151.742 80.23C151.154 79.558 150.86 78.6247 150.86 77.43C150.86 76.8047 150.944 76.2493 151.112 75.764C151.28 75.2787 151.513 74.8727 151.812 74.546C152.12 74.2193 152.484 73.972 152.904 73.804C153.324 73.6267 153.781 73.538 154.276 73.538C154.836 73.538 155.317 73.6267 155.718 73.804C156.119 73.9813 156.446 74.2287 156.698 74.546C156.959 74.854 157.151 75.2227 157.272 75.652C157.403 76.0813 157.468 76.5527 157.468 77.066V77.682H152.092C152.092 78.046 152.139 78.3867 152.232 78.704C152.335 79.012 152.475 79.2827 152.652 79.516C152.839 79.74 153.067 79.9173 153.338 80.048C153.609 80.1787 153.921 80.244 154.276 80.244C154.883 80.244 155.326 80.132 155.606 79.908C155.886 79.6747 156.077 79.362 156.18 78.97H157.356ZM156.25 76.772C156.25 76.4267 156.213 76.114 156.138 75.834C156.063 75.554 155.947 75.316 155.788 75.12C155.629 74.9147 155.424 74.756 155.172 74.644C154.92 74.532 154.617 74.476 154.262 74.476C153.618 74.476 153.114 74.672 152.75 75.064C152.395 75.456 152.185 76.0253 152.12 76.772H156.25ZM159.867 78.886C159.951 79.39 160.161 79.7447 160.497 79.95C160.842 80.146 161.309 80.244 161.897 80.244C162.513 80.244 162.947 80.1413 163.199 79.936C163.46 79.7213 163.591 79.4413 163.591 79.096C163.591 78.956 163.572 78.8253 163.535 78.704C163.507 78.5733 163.446 78.4613 163.353 78.368C163.259 78.2653 163.129 78.1767 162.961 78.102C162.793 78.0273 162.573 77.9667 162.303 77.92L161.379 77.78C160.968 77.7147 160.609 77.6307 160.301 77.528C159.993 77.4253 159.731 77.2947 159.517 77.136C159.302 76.968 159.139 76.7673 159.027 76.534C158.924 76.2913 158.873 76.002 158.873 75.666C158.873 75.33 158.943 75.0313 159.083 74.77C159.232 74.5087 159.433 74.2893 159.685 74.112C159.946 73.9253 160.249 73.7853 160.595 73.692C160.949 73.5893 161.332 73.538 161.743 73.538C162.265 73.538 162.699 73.5893 163.045 73.692C163.399 73.7947 163.689 73.9347 163.913 74.112C164.137 74.2893 164.309 74.4993 164.431 74.742C164.552 74.9847 164.645 75.2413 164.711 75.512L163.605 75.694C163.539 75.498 163.465 75.3253 163.381 75.176C163.297 75.0267 163.185 74.9053 163.045 74.812C162.905 74.7093 162.732 74.6347 162.527 74.588C162.331 74.532 162.083 74.504 161.785 74.504C161.449 74.504 161.169 74.5367 160.945 74.602C160.721 74.658 160.539 74.7373 160.399 74.84C160.268 74.9427 160.175 75.0593 160.119 75.19C160.063 75.3113 160.035 75.442 160.035 75.582C160.035 75.7313 160.053 75.8667 160.091 75.988C160.128 76.1 160.198 76.2027 160.301 76.296C160.403 76.38 160.543 76.4547 160.721 76.52C160.898 76.5853 161.127 76.6413 161.407 76.688L162.457 76.856C163.306 76.996 163.913 77.2387 164.277 77.584C164.65 77.9293 164.837 78.4333 164.837 79.096C164.837 79.404 164.776 79.6887 164.655 79.95C164.533 80.202 164.351 80.426 164.109 80.622C163.866 80.8087 163.563 80.9533 163.199 81.056C162.835 81.168 162.41 81.224 161.925 81.224C161.486 81.224 161.075 81.182 160.693 81.098C160.319 81.014 159.988 80.8833 159.699 80.706C159.409 80.5193 159.176 80.2767 158.999 79.978C158.821 79.6793 158.719 79.3153 158.691 78.886H159.867ZM169.514 71.004H170.732V74.84C171.087 74.3827 171.474 74.0513 171.894 73.846C172.324 73.6407 172.776 73.538 173.252 73.538C174.074 73.538 174.68 73.762 175.072 74.21C175.474 74.658 175.674 75.316 175.674 76.184V81H174.442V76.422C174.442 75.75 174.321 75.2787 174.078 75.008C173.845 74.728 173.476 74.588 172.972 74.588C172.702 74.588 172.431 74.6347 172.16 74.728C171.899 74.8213 171.661 74.9707 171.446 75.176C171.213 75.3813 171.036 75.6007 170.914 75.834C170.793 76.058 170.732 76.352 170.732 76.716V81H169.514V71.004ZM182.007 80.006C181.745 80.3233 181.414 80.5987 181.013 80.832C180.611 81.056 180.112 81.168 179.515 81.168C179.151 81.168 178.815 81.1213 178.507 81.028C178.208 80.944 177.947 80.8133 177.723 80.636C177.508 80.4493 177.34 80.2207 177.219 79.95C177.097 79.6793 177.037 79.362 177.037 78.998C177.037 78.5033 177.139 78.102 177.345 77.794C177.559 77.486 177.839 77.2433 178.185 77.066C178.539 76.8887 178.936 76.7627 179.375 76.688C179.813 76.6133 180.266 76.5667 180.733 76.548L181.979 76.506V76.226C181.979 75.61 181.848 75.1667 181.587 74.896C181.325 74.6253 180.901 74.49 180.313 74.49C179.734 74.49 179.309 74.588 179.039 74.784C178.768 74.9707 178.591 75.232 178.507 75.568L177.401 75.442C177.531 74.7793 177.844 74.2987 178.339 74C178.833 73.692 179.505 73.538 180.355 73.538C180.877 73.538 181.316 73.6033 181.671 73.734C182.035 73.8553 182.329 74.0327 182.553 74.266C182.777 74.4993 182.935 74.7887 183.029 75.134C183.131 75.4793 183.183 75.8667 183.183 76.296V81H182.007V80.006ZM181.979 77.374L180.817 77.416C180.322 77.4347 179.911 77.4813 179.585 77.556C179.258 77.6307 178.997 77.7333 178.801 77.864C178.614 77.9853 178.479 78.1393 178.395 78.326C178.32 78.5127 178.283 78.7273 178.283 78.97C178.283 79.334 178.39 79.628 178.605 79.852C178.829 80.0667 179.193 80.174 179.697 80.174C180.415 80.174 180.975 79.9967 181.377 79.642C181.778 79.2873 181.979 78.802 181.979 78.186V77.374ZM185.816 78.886C185.9 79.39 186.11 79.7447 186.446 79.95C186.791 80.146 187.258 80.244 187.846 80.244C188.462 80.244 188.896 80.1413 189.148 79.936C189.409 79.7213 189.54 79.4413 189.54 79.096C189.54 78.956 189.521 78.8253 189.484 78.704C189.456 78.5733 189.395 78.4613 189.302 78.368C189.208 78.2653 189.078 78.1767 188.91 78.102C188.742 78.0273 188.522 77.9667 188.252 77.92L187.328 77.78C186.917 77.7147 186.558 77.6307 186.25 77.528C185.942 77.4253 185.68 77.2947 185.466 77.136C185.251 76.968 185.088 76.7673 184.976 76.534C184.873 76.2913 184.822 76.002 184.822 75.666C184.822 75.33 184.892 75.0313 185.032 74.77C185.181 74.5087 185.382 74.2893 185.634 74.112C185.895 73.9253 186.198 73.7853 186.544 73.692C186.898 73.5893 187.281 73.538 187.692 73.538C188.214 73.538 188.648 73.5893 188.994 73.692C189.348 73.7947 189.638 73.9347 189.862 74.112C190.086 74.2893 190.258 74.4993 190.38 74.742C190.501 74.9847 190.594 75.2413 190.66 75.512L189.554 75.694C189.488 75.498 189.414 75.3253 189.33 75.176C189.246 75.0267 189.134 74.9053 188.994 74.812C188.854 74.7093 188.681 74.6347 188.476 74.588C188.28 74.532 188.032 74.504 187.734 74.504C187.398 74.504 187.118 74.5367 186.894 74.602C186.67 74.658 186.488 74.7373 186.348 74.84C186.217 74.9427 186.124 75.0593 186.068 75.19C186.012 75.3113 185.984 75.442 185.984 75.582C185.984 75.7313 186.002 75.8667 186.04 75.988C186.077 76.1 186.147 76.2027 186.25 76.296C186.352 76.38 186.492 76.4547 186.67 76.52C186.847 76.5853 187.076 76.6413 187.356 76.688L188.406 76.856C189.255 76.996 189.862 77.2387 190.226 77.584C190.599 77.9293 190.786 78.4333 190.786 79.096C190.786 79.404 190.725 79.6887 190.604 79.95C190.482 80.202 190.3 80.426 190.058 80.622C189.815 80.8087 189.512 80.9533 189.148 81.056C188.784 81.168 188.359 81.224 187.874 81.224C187.435 81.224 187.024 81.182 186.642 81.098C186.268 81.014 185.937 80.8833 185.648 80.706C185.358 80.5193 185.125 80.2767 184.948 79.978C184.77 79.6793 184.668 79.3153 184.64 78.886H185.816ZM195.491 73.762H196.709V81H195.491V73.762ZM195.449 71.004H196.751V72.418H195.449V71.004ZM199.392 78.886C199.476 79.39 199.686 79.7447 200.022 79.95C200.367 80.146 200.834 80.244 201.422 80.244C202.038 80.244 202.472 80.1413 202.724 79.936C202.985 79.7213 203.116 79.4413 203.116 79.096C203.116 78.956 203.097 78.8253 203.06 78.704C203.032 78.5733 202.971 78.4613 202.878 78.368C202.785 78.2653 202.654 78.1767 202.486 78.102C202.318 78.0273 202.099 77.9667 201.828 77.92L200.904 77.78C200.493 77.7147 200.134 77.6307 199.826 77.528C199.518 77.4253 199.257 77.2947 199.042 77.136C198.827 76.968 198.664 76.7673 198.552 76.534C198.449 76.2913 198.398 76.002 198.398 75.666C198.398 75.33 198.468 75.0313 198.608 74.77C198.757 74.5087 198.958 74.2893 199.21 74.112C199.471 73.9253 199.775 73.7853 200.12 73.692C200.475 73.5893 200.857 73.538 201.268 73.538C201.791 73.538 202.225 73.5893 202.57 73.692C202.925 73.7947 203.214 73.9347 203.438 74.112C203.662 74.2893 203.835 74.4993 203.956 74.742C204.077 74.9847 204.171 75.2413 204.236 75.512L203.13 75.694C203.065 75.498 202.99 75.3253 202.906 75.176C202.822 75.0267 202.71 74.9053 202.57 74.812C202.43 74.7093 202.257 74.6347 202.052 74.588C201.856 74.532 201.609 74.504 201.31 74.504C200.974 74.504 200.694 74.5367 200.47 74.602C200.246 74.658 200.064 74.7373 199.924 74.84C199.793 74.9427 199.7 75.0593 199.644 75.19C199.588 75.3113 199.56 75.442 199.56 75.582C199.56 75.7313 199.579 75.8667 199.616 75.988C199.653 76.1 199.723 76.2027 199.826 76.296C199.929 76.38 200.069 76.4547 200.246 76.52C200.423 76.5853 200.652 76.6413 200.932 76.688L201.982 76.856C202.831 76.996 203.438 77.2387 203.802 77.584C204.175 77.9293 204.362 78.4333 204.362 79.096C204.362 79.404 204.301 79.6887 204.18 79.95C204.059 80.202 203.877 80.426 203.634 80.622C203.391 80.8087 203.088 80.9533 202.724 81.056C202.36 81.168 201.935 81.224 201.45 81.224C201.011 81.224 200.601 81.182 200.218 81.098C199.845 81.014 199.513 80.8833 199.224 80.706C198.935 80.5193 198.701 80.2767 198.524 79.978C198.347 79.6793 198.244 79.3153 198.216 78.886H199.392ZM213.548 80.006C213.286 80.3233 212.955 80.5987 212.554 80.832C212.152 81.056 211.653 81.168 211.056 81.168C210.692 81.168 210.356 81.1213 210.048 81.028C209.749 80.944 209.488 80.8133 209.264 80.636C209.049 80.4493 208.881 80.2207 208.76 79.95C208.638 79.6793 208.578 79.362 208.578 78.998C208.578 78.5033 208.68 78.102 208.886 77.794C209.1 77.486 209.38 77.2433 209.726 77.066C210.08 76.8887 210.477 76.7627 210.916 76.688C211.354 76.6133 211.807 76.5667 212.274 76.548L213.52 76.506V76.226C213.52 75.61 213.389 75.1667 213.128 74.896C212.866 74.6253 212.442 74.49 211.854 74.49C211.275 74.49 210.85 74.588 210.58 74.784C210.309 74.9707 210.132 75.232 210.048 75.568L208.942 75.442C209.072 74.7793 209.385 74.2987 209.88 74C210.374 73.692 211.046 73.538 211.896 73.538C212.418 73.538 212.857 73.6033 213.212 73.734C213.576 73.8553 213.87 74.0327 214.094 74.266C214.318 74.4993 214.476 74.7887 214.57 75.134C214.672 75.4793 214.724 75.8667 214.724 76.296V81H213.548V80.006ZM213.52 77.374L212.358 77.416C211.863 77.4347 211.452 77.4813 211.126 77.556C210.799 77.6307 210.538 77.7333 210.342 77.864C210.155 77.9853 210.02 78.1393 209.936 78.326C209.861 78.5127 209.824 78.7273 209.824 78.97C209.824 79.334 209.931 79.628 210.146 79.852C210.37 80.0667 210.734 80.174 211.238 80.174C211.956 80.174 212.516 79.9967 212.918 79.642C213.319 79.2873 213.52 78.802 213.52 78.186V77.374ZM50.938 97.762H52.142V98.868C52.4687 98.42 52.828 98.0887 53.22 97.874C53.612 97.65 54.0133 97.538 54.424 97.538C54.9653 97.538 55.3993 97.6547 55.726 97.888C56.062 98.1213 56.3093 98.4573 56.468 98.896C56.7947 98.448 57.168 98.112 57.588 97.888C58.008 97.6547 58.456 97.538 58.932 97.538C59.6413 97.538 60.1873 97.734 60.57 98.126C60.962 98.5087 61.158 99.1293 61.158 99.988V105H59.94V100.268C59.94 99.9413 59.912 99.6707 59.856 99.456C59.8 99.232 59.716 99.0593 59.604 98.938C59.5013 98.8073 59.3707 98.7187 59.212 98.672C59.0533 98.616 58.8713 98.588 58.666 98.588C58.4513 98.588 58.2273 98.6253 57.994 98.7C57.7607 98.7747 57.532 98.9053 57.308 99.092C57.1213 99.2507 56.9673 99.442 56.846 99.666C56.7247 99.89 56.664 100.147 56.664 100.436V105H55.446V100.282C55.446 99.6473 55.334 99.2087 55.11 98.966C54.8953 98.714 54.5827 98.588 54.172 98.588C53.696 98.588 53.248 98.784 52.828 99.176C52.6693 99.3253 52.5153 99.5167 52.366 99.75C52.226 99.9833 52.156 100.296 52.156 100.688V105H50.938V97.762ZM67.5046 104.006C67.2433 104.323 66.9119 104.599 66.5106 104.832C66.1093 105.056 65.6099 105.168 65.0126 105.168C64.6486 105.168 64.3126 105.121 64.0046 105.028C63.7059 104.944 63.4446 104.813 63.2206 104.636C63.0059 104.449 62.8379 104.221 62.7166 103.95C62.5953 103.679 62.5346 103.362 62.5346 102.998C62.5346 102.503 62.6373 102.102 62.8426 101.794C63.0573 101.486 63.3373 101.243 63.6826 101.066C64.0373 100.889 64.4339 100.763 64.8726 100.688C65.3113 100.613 65.7639 100.567 66.2306 100.548L67.4766 100.506V100.226C67.4766 99.61 67.3459 99.1667 67.0846 98.896C66.8233 98.6253 66.3986 98.49 65.8106 98.49C65.2319 98.49 64.8073 98.588 64.5366 98.784C64.2659 98.9707 64.0886 99.232 64.0046 99.568L62.8986 99.442C63.0293 98.7793 63.3419 98.2987 63.8366 98C64.3313 97.692 65.0033 97.538 65.8526 97.538C66.3753 97.538 66.8139 97.6033 67.1686 97.734C67.5326 97.8553 67.8266 98.0327 68.0506 98.266C68.2746 98.4993 68.4333 98.7887 68.5266 99.134C68.6293 99.4793 68.6806 99.8667 68.6806 100.296V105H67.5046V104.006ZM67.4766 101.374L66.3146 101.416C65.8199 101.435 65.4093 101.481 65.0826 101.556C64.7559 101.631 64.4946 101.733 64.2986 101.864C64.1119 101.985 63.9766 102.139 63.8926 102.326C63.8179 102.513 63.7806 102.727 63.7806 102.97C63.7806 103.334 63.8879 103.628 64.1026 103.852C64.3266 104.067 64.6906 104.174 65.1946 104.174C65.9133 104.174 66.4733 103.997 66.8746 103.642C67.2759 103.287 67.4766 102.802 67.4766 102.186V101.374ZM70.5158 95.004H71.8178V96.418H70.5158V95.004ZM68.6678 106.414C68.7985 106.461 68.9431 106.493 69.1018 106.512C69.2511 106.54 69.4238 106.554 69.6198 106.554C69.9651 106.554 70.2078 106.461 70.3478 106.274C70.4878 106.087 70.5578 105.798 70.5578 105.406V97.762H71.7758V105.084C71.7758 105.448 71.7478 105.784 71.6918 106.092C71.6358 106.4 71.5331 106.666 71.3838 106.89C71.2438 107.114 71.0431 107.287 70.7818 107.408C70.5298 107.539 70.2078 107.604 69.8158 107.604C69.5265 107.604 69.2745 107.581 69.0598 107.534C68.8451 107.497 68.6445 107.445 68.4578 107.38L68.6678 106.414ZM76.9223 105.224C76.3717 105.224 75.8817 105.135 75.4523 104.958C75.023 104.781 74.659 104.529 74.3603 104.202C74.0617 103.875 73.833 103.474 73.6743 102.998C73.5157 102.522 73.4363 101.99 73.4363 101.402C73.4363 100.814 73.5203 100.282 73.6883 99.806C73.8563 99.33 74.0943 98.924 74.4023 98.588C74.7103 98.252 75.079 97.9953 75.5083 97.818C75.947 97.6313 76.4323 97.538 76.9643 97.538C77.5057 97.538 77.991 97.6267 78.4203 97.804C78.8497 97.9813 79.2137 98.238 79.5123 98.574C79.8203 98.9007 80.0537 99.2973 80.2123 99.764C80.371 100.231 80.4503 100.758 80.4503 101.346C80.4503 101.943 80.3663 102.48 80.1983 102.956C80.0397 103.432 79.8063 103.838 79.4983 104.174C79.1997 104.51 78.831 104.771 78.3923 104.958C77.9537 105.135 77.4637 105.224 76.9223 105.224ZM76.9363 104.216C77.3283 104.216 77.6643 104.146 77.9443 104.006C78.2243 103.866 78.453 103.67 78.6303 103.418C78.817 103.166 78.9523 102.867 79.0363 102.522C79.1203 102.167 79.1623 101.78 79.1623 101.36C79.1623 100.949 79.1203 100.571 79.0363 100.226C78.9523 99.8807 78.817 99.5867 78.6303 99.344C78.453 99.092 78.2243 98.896 77.9443 98.756C77.6643 98.616 77.3283 98.546 76.9363 98.546C76.5443 98.546 76.2083 98.616 75.9283 98.756C75.6577 98.896 75.429 99.092 75.2423 99.344C75.065 99.5867 74.9343 99.8807 74.8503 100.226C74.7663 100.571 74.7243 100.954 74.7243 101.374C74.7243 101.794 74.7663 102.177 74.8503 102.522C74.9343 102.867 75.065 103.166 75.2423 103.418C75.4197 103.67 75.6483 103.866 75.9283 104.006C76.2083 104.146 76.5443 104.216 76.9363 104.216ZM82.0825 97.762H83.2865V98.882C83.5572 98.4807 83.8745 98.1727 84.2385 97.958C84.6025 97.7433 84.9899 97.636 85.4005 97.636C85.6525 97.636 85.8672 97.6547 86.0445 97.692L85.8905 98.826C85.7972 98.8073 85.7039 98.7933 85.6105 98.784C85.5172 98.7653 85.4145 98.756 85.3025 98.756C85.0785 98.756 84.8499 98.798 84.6165 98.882C84.3832 98.9567 84.1639 99.0873 83.9585 99.274C83.7532 99.4513 83.5899 99.6567 83.4685 99.89C83.3565 100.123 83.3005 100.394 83.3005 100.702V105H82.0825V97.762ZM96.5987 102.55C96.4773 103.381 96.16 104.034 95.6467 104.51C95.1333 104.986 94.41 105.224 93.4767 105.224C92.926 105.224 92.436 105.135 92.0067 104.958C91.5867 104.781 91.232 104.529 90.9427 104.202C90.6627 103.866 90.448 103.465 90.2987 102.998C90.1587 102.522 90.0887 101.99 90.0887 101.402C90.0887 100.823 90.168 100.296 90.3267 99.82C90.4853 99.344 90.714 98.938 91.0127 98.602C91.3113 98.266 91.6753 98.0047 92.1047 97.818C92.534 97.6313 93.0193 97.538 93.5607 97.538C94.4287 97.538 95.1007 97.7527 95.5767 98.182C96.0527 98.602 96.356 99.1853 96.4867 99.932L95.2687 100.156C95.222 99.9227 95.1567 99.708 95.0727 99.512C94.998 99.316 94.8907 99.148 94.7507 99.008C94.6107 98.8587 94.438 98.7467 94.2327 98.672C94.0367 98.588 93.7987 98.546 93.5187 98.546C93.136 98.546 92.8093 98.6207 92.5387 98.77C92.268 98.91 92.044 99.1107 91.8667 99.372C91.6987 99.624 91.5727 99.9227 91.4887 100.268C91.414 100.613 91.3767 100.982 91.3767 101.374C91.3767 101.766 91.414 102.135 91.4887 102.48C91.5633 102.825 91.6847 103.129 91.8527 103.39C92.0207 103.642 92.24 103.843 92.5107 103.992C92.7813 104.141 93.1127 104.216 93.5047 104.216C94.0927 104.216 94.5267 104.067 94.8067 103.768C95.096 103.469 95.2827 103.063 95.3667 102.55H96.5987ZM101.272 105.224C100.721 105.224 100.231 105.135 99.8019 104.958C99.3726 104.781 99.0086 104.529 98.7099 104.202C98.4113 103.875 98.1826 103.474 98.0239 102.998C97.8653 102.522 97.7859 101.99 97.7859 101.402C97.7859 100.814 97.8699 100.282 98.0379 99.806C98.2059 99.33 98.4439 98.924 98.7519 98.588C99.0599 98.252 99.4286 97.9953 99.8579 97.818C100.297 97.6313 100.782 97.538 101.314 97.538C101.855 97.538 102.341 97.6267 102.77 97.804C103.199 97.9813 103.563 98.238 103.862 98.574C104.17 98.9007 104.403 99.2973 104.562 99.764C104.721 100.231 104.8 100.758 104.8 101.346C104.8 101.943 104.716 102.48 104.548 102.956C104.389 103.432 104.156 103.838 103.848 104.174C103.549 104.51 103.181 104.771 102.742 104.958C102.303 105.135 101.813 105.224 101.272 105.224ZM101.286 104.216C101.678 104.216 102.014 104.146 102.294 104.006C102.574 103.866 102.803 103.67 102.98 103.418C103.167 103.166 103.302 102.867 103.386 102.522C103.47 102.167 103.512 101.78 103.512 101.36C103.512 100.949 103.47 100.571 103.386 100.226C103.302 99.8807 103.167 99.5867 102.98 99.344C102.803 99.092 102.574 98.896 102.294 98.756C102.014 98.616 101.678 98.546 101.286 98.546C100.894 98.546 100.558 98.616 100.278 98.756C100.007 98.896 99.7786 99.092 99.5919 99.344C99.4146 99.5867 99.2839 99.8807 99.1999 100.226C99.1159 100.571 99.0739 100.954 99.0739 101.374C99.0739 101.794 99.1159 102.177 99.1999 102.522C99.2839 102.867 99.4146 103.166 99.5919 103.418C99.7693 103.67 99.9979 103.866 100.278 104.006C100.558 104.146 100.894 104.216 101.286 104.216ZM106.432 97.762H107.636V98.868C107.991 98.392 108.383 98.0513 108.812 97.846C109.241 97.6407 109.694 97.538 110.17 97.538C110.991 97.538 111.598 97.762 111.99 98.21C112.391 98.658 112.592 99.316 112.592 100.184V105H111.374V100.422C111.374 99.75 111.253 99.2787 111.01 99.008C110.767 98.728 110.394 98.588 109.89 98.588C109.619 98.588 109.349 98.6347 109.078 98.728C108.817 98.8213 108.579 98.9707 108.364 99.176C108.131 99.3813 107.953 99.6007 107.832 99.834C107.711 100.058 107.65 100.352 107.65 100.716V105H106.432V97.762ZM120.689 102.55C120.567 103.381 120.25 104.034 119.737 104.51C119.223 104.986 118.5 105.224 117.567 105.224C117.016 105.224 116.526 105.135 116.097 104.958C115.677 104.781 115.322 104.529 115.033 104.202C114.753 103.866 114.538 103.465 114.389 102.998C114.249 102.522 114.179 101.99 114.179 101.402C114.179 100.823 114.258 100.296 114.417 99.82C114.575 99.344 114.804 98.938 115.103 98.602C115.401 98.266 115.765 98.0047 116.195 97.818C116.624 97.6313 117.109 97.538 117.651 97.538C118.519 97.538 119.191 97.7527 119.667 98.182C120.143 98.602 120.446 99.1853 120.577 99.932L119.359 100.156C119.312 99.9227 119.247 99.708 119.163 99.512C119.088 99.316 118.981 99.148 118.841 99.008C118.701 98.8587 118.528 98.7467 118.323 98.672C118.127 98.588 117.889 98.546 117.609 98.546C117.226 98.546 116.899 98.6207 116.629 98.77C116.358 98.91 116.134 99.1107 115.957 99.372C115.789 99.624 115.663 99.9227 115.579 100.268C115.504 100.613 115.467 100.982 115.467 101.374C115.467 101.766 115.504 102.135 115.579 102.48C115.653 102.825 115.775 103.129 115.943 103.39C116.111 103.642 116.33 103.843 116.601 103.992C116.871 104.141 117.203 104.216 117.595 104.216C118.183 104.216 118.617 104.067 118.897 103.768C119.186 103.469 119.373 103.063 119.457 102.55H120.689ZM128.372 102.97C128.25 103.67 127.938 104.221 127.434 104.622C126.939 105.023 126.225 105.224 125.292 105.224C124.19 105.224 123.346 104.893 122.758 104.23C122.17 103.558 121.876 102.625 121.876 101.43C121.876 100.805 121.96 100.249 122.128 99.764C122.296 99.2787 122.529 98.8727 122.828 98.546C123.136 98.2193 123.5 97.972 123.92 97.804C124.34 97.6267 124.797 97.538 125.292 97.538C125.852 97.538 126.332 97.6267 126.734 97.804C127.135 97.9813 127.462 98.2287 127.714 98.546C127.975 98.854 128.166 99.2227 128.288 99.652C128.418 100.081 128.484 100.553 128.484 101.066V101.682H123.108C123.108 102.046 123.154 102.387 123.248 102.704C123.35 103.012 123.49 103.283 123.668 103.516C123.854 103.74 124.083 103.917 124.354 104.048C124.624 104.179 124.937 104.244 125.292 104.244C125.898 104.244 126.342 104.132 126.622 103.908C126.902 103.675 127.093 103.362 127.196 102.97H128.372ZM127.266 100.772C127.266 100.427 127.228 100.114 127.154 99.834C127.079 99.554 126.962 99.316 126.804 99.12C126.645 98.9147 126.44 98.756 126.188 98.644C125.936 98.532 125.632 98.476 125.278 98.476C124.634 98.476 124.13 98.672 123.766 99.064C123.411 99.456 123.201 100.025 123.136 100.772H127.266ZM130.098 97.762H131.302V98.882C131.573 98.4807 131.89 98.1727 132.254 97.958C132.618 97.7433 133.005 97.636 133.416 97.636C133.668 97.636 133.883 97.6547 134.06 97.692L133.906 98.826C133.813 98.8073 133.719 98.7933 133.626 98.784C133.533 98.7653 133.43 98.756 133.318 98.756C133.094 98.756 132.865 98.798 132.632 98.882C132.399 98.9567 132.179 99.0873 131.974 99.274C131.769 99.4513 131.605 99.6567 131.484 99.89C131.372 100.123 131.316 100.394 131.316 100.702V105H130.098V97.762ZM135.225 97.762H136.429V98.868C136.784 98.392 137.176 98.0513 137.605 97.846C138.034 97.6407 138.487 97.538 138.963 97.538C139.784 97.538 140.391 97.762 140.783 98.21C141.184 98.658 141.385 99.316 141.385 100.184V105H140.167V100.422C140.167 99.75 140.046 99.2787 139.803 99.008C139.56 98.728 139.187 98.588 138.683 98.588C138.412 98.588 138.142 98.6347 137.871 98.728C137.61 98.8213 137.372 98.9707 137.157 99.176C136.924 99.3813 136.746 99.6007 136.625 99.834C136.504 100.058 136.443 100.352 136.443 100.716V105H135.225V97.762ZM146.747 98.728H145.627V97.762H146.747V95.788H147.965V97.762H149.883V98.728H147.965V102.97C147.965 103.325 148.044 103.609 148.203 103.824C148.361 104.039 148.604 104.146 148.931 104.146C149.136 104.146 149.313 104.132 149.463 104.104C149.621 104.076 149.766 104.039 149.897 103.992L150.107 104.93C149.92 104.995 149.715 105.047 149.491 105.084C149.276 105.131 149.019 105.154 148.721 105.154C148.31 105.154 147.979 105.093 147.727 104.972C147.475 104.851 147.274 104.678 147.125 104.454C146.975 104.23 146.873 103.964 146.817 103.656C146.77 103.348 146.747 103.012 146.747 102.648V98.728ZM154.182 105.224C153.631 105.224 153.141 105.135 152.712 104.958C152.283 104.781 151.919 104.529 151.62 104.202C151.321 103.875 151.093 103.474 150.934 102.998C150.775 102.522 150.696 101.99 150.696 101.402C150.696 100.814 150.78 100.282 150.948 99.806C151.116 99.33 151.354 98.924 151.662 98.588C151.97 98.252 152.339 97.9953 152.768 97.818C153.207 97.6313 153.692 97.538 154.224 97.538C154.765 97.538 155.251 97.6267 155.68 97.804C156.109 97.9813 156.473 98.238 156.772 98.574C157.08 98.9007 157.313 99.2973 157.472 99.764C157.631 100.231 157.71 100.758 157.71 101.346C157.71 101.943 157.626 102.48 157.458 102.956C157.299 103.432 157.066 103.838 156.758 104.174C156.459 104.51 156.091 104.771 155.652 104.958C155.213 105.135 154.723 105.224 154.182 105.224ZM154.196 104.216C154.588 104.216 154.924 104.146 155.204 104.006C155.484 103.866 155.713 103.67 155.89 103.418C156.077 103.166 156.212 102.867 156.296 102.522C156.38 102.167 156.422 101.78 156.422 101.36C156.422 100.949 156.38 100.571 156.296 100.226C156.212 99.8807 156.077 99.5867 155.89 99.344C155.713 99.092 155.484 98.896 155.204 98.756C154.924 98.616 154.588 98.546 154.196 98.546C153.804 98.546 153.468 98.616 153.188 98.756C152.917 98.896 152.689 99.092 152.502 99.344C152.325 99.5867 152.194 99.8807 152.11 100.226C152.026 100.571 151.984 100.954 151.984 101.374C151.984 101.794 152.026 102.177 152.11 102.522C152.194 102.867 152.325 103.166 152.502 103.418C152.679 103.67 152.908 103.866 153.188 104.006C153.468 104.146 153.804 104.216 154.196 104.216ZM162.459 97.762H163.663V98.868C163.99 98.42 164.349 98.0887 164.741 97.874C165.133 97.65 165.535 97.538 165.945 97.538C166.487 97.538 166.921 97.6547 167.247 97.888C167.583 98.1213 167.831 98.4573 167.989 98.896C168.316 98.448 168.689 98.112 169.109 97.888C169.529 97.6547 169.977 97.538 170.453 97.538C171.163 97.538 171.709 97.734 172.091 98.126C172.483 98.5087 172.679 99.1293 172.679 99.988V105H171.461V100.268C171.461 99.9413 171.433 99.6707 171.377 99.456C171.321 99.232 171.237 99.0593 171.125 98.938C171.023 98.8073 170.892 98.7187 170.733 98.672C170.575 98.616 170.393 98.588 170.187 98.588C169.973 98.588 169.749 98.6253 169.515 98.7C169.282 98.7747 169.053 98.9053 168.829 99.092C168.643 99.2507 168.489 99.442 168.367 99.666C168.246 99.89 168.185 100.147 168.185 100.436V105H166.967V100.282C166.967 99.6473 166.855 99.2087 166.631 98.966C166.417 98.714 166.104 98.588 165.693 98.588C165.217 98.588 164.769 98.784 164.349 99.176C164.191 99.3253 164.037 99.5167 163.887 99.75C163.747 99.9833 163.677 100.296 163.677 100.688V105H162.459V97.762ZM180.776 102.97C180.655 103.67 180.342 104.221 179.838 104.622C179.343 105.023 178.629 105.224 177.696 105.224C176.595 105.224 175.75 104.893 175.162 104.23C174.574 103.558 174.28 102.625 174.28 101.43C174.28 100.805 174.364 100.249 174.532 99.764C174.7 99.2787 174.933 98.8727 175.232 98.546C175.54 98.2193 175.904 97.972 176.324 97.804C176.744 97.6267 177.201 97.538 177.696 97.538C178.256 97.538 178.737 97.6267 179.138 97.804C179.539 97.9813 179.866 98.2287 180.118 98.546C180.379 98.854 180.571 99.2227 180.692 99.652C180.823 100.081 180.888 100.553 180.888 101.066V101.682H175.512C175.512 102.046 175.559 102.387 175.652 102.704C175.755 103.012 175.895 103.283 176.072 103.516C176.259 103.74 176.487 103.917 176.758 104.048C177.029 104.179 177.341 104.244 177.696 104.244C178.303 104.244 178.746 104.132 179.026 103.908C179.306 103.675 179.497 103.362 179.6 102.97H180.776ZM179.67 100.772C179.67 100.427 179.633 100.114 179.558 99.834C179.483 99.554 179.367 99.316 179.208 99.12C179.049 98.9147 178.844 98.756 178.592 98.644C178.34 98.532 178.037 98.476 177.682 98.476C177.038 98.476 176.534 98.672 176.17 99.064C175.815 99.456 175.605 100.025 175.54 100.772H179.67ZM182.05 103.362H183.45V105H182.05V103.362ZM184.759 95.004H186.061L185.319 98.014H184.353L184.759 95.004ZM186.999 95.004H188.301L187.559 98.014H186.593L186.999 95.004Z" fill="#333333"/>
<rect width="220" height="21.8557" transform="matrix(1 0 0 -1 30 153.855)" fill="#E3F1FB"/>
<path d="M270 132H250V153.856L270 132Z" fill="#959595"/>
</g>
<defs>
<filter id="filter0_d_4216_15973" x="0" y="0" width="300" height="194" filterUnits="userSpaceOnUse" color-interpolation-filters="sRGB">
<feFlood flood-opacity="0" result="BackgroundImageFix"/>
<feColorMatrix in="SourceAlpha" type="matrix" values="0 0 0 0 0 0 0 0 0 0 0 0 0 0 0 0 0 0 127 0" result="hardAlpha"/>
<feOffset dy="10"/>
<feGaussianBlur stdDeviation="15"/>
<feColorMatrix type="matrix" values="0 0 0 0 0.770833 0 0 0 0 0.639852 0 0 0 0 0.481771 0 0 0 0.3 0"/>
<feBlend mode="normal" in2="BackgroundImageFix" result="effect1_dropShadow_4216_15973"/>
<feBlend mode="normal" in="SourceGraphic" in2="effect1_dropShadow_4216_15973" result="shape"/>
</filter>
</defs>
</svg>
