<svg width="56" height="56" viewBox="0 0 56 56" fill="none" xmlns="http://www.w3.org/2000/svg">
<path d="M12.409 43.591L12.7617 43.2383L12.409 43.591C12.831 44.0129 13.4033 44.25 14 44.25H28C28.5967 44.25 29.169 44.0129 29.591 43.591C30.0129 43.169 30.25 42.5967 30.25 42C30.25 41.4033 30.0129 40.831 29.591 40.409C29.169 39.987 28.5967 39.75 28 39.75H14C13.4033 39.75 12.831 39.987 12.409 40.409C11.9871 40.831 11.75 41.4033 11.75 42C11.75 42.5967 11.9871 43.169 12.409 43.591ZM43.591 15.591L43.2374 15.2374L43.591 15.591C44.0129 15.169 44.25 14.5967 44.25 14C44.25 13.4033 44.0129 12.831 43.591 12.409L43.2374 12.7626L43.591 12.409C43.169 11.9871 42.5967 11.75 42 11.75H28C27.4033 11.75 26.831 11.9871 26.409 12.409C25.9871 12.831 25.75 13.4033 25.75 14C25.75 14.5967 25.9871 15.169 26.409 15.591C26.831 16.0129 27.4033 16.25 28 16.25H42C42.5967 16.25 43.169 16.0129 43.591 15.591ZM12.409 29.591L12.7617 29.2383L12.409 29.591C12.831 30.0129 13.4033 30.25 14 30.25H42C42.5967 30.25 43.169 30.0129 43.591 29.591C44.0129 29.169 44.25 28.5967 44.25 28C44.25 27.4033 44.0129 26.831 43.591 26.409C43.169 25.9871 42.5967 25.75 42 25.75H14C13.4033 25.75 12.831 25.9871 12.409 26.409C11.9871 26.831 11.75 27.4033 11.75 28C11.75 28.5967 11.9871 29.169 12.409 29.591Z" fill="#121212" stroke="#121212"/>
<rect x="25" y="11" width="20" height="6" fill="#121212"/>
<rect x="11" y="39" width="20" height="6" fill="#121212"/>
<rect x="11" y="25" width="34" height="6" fill="#121212"/>
</svg>
